<ttFont>
          <CharString index="0">
            12 0 27 134 11 67 -25 0 -11 -67 rlineto
            return
          </CharString>
          <CharString index="1">
            -13 -85 25 -40 98 0 rrcurveto
            101 hlineto
            101 0 32 40 13 85 rrcurveto
            21 133 rlineto
            13 85 -23 40 -98 0 rrcurveto
            -101 hlineto
            -101 0 -34 -40 -13 -85 rrcurveto
            return
          </CharString>
          <CharString index="2">
            21 133 rlineto
            14 89 39 21 79 0 rrcurveto
            101 hlineto
            86 0 20 -32 -12 -78 rrcurveto
            -21 -133 rlineto
            -14 -89 -40 -21 -77 0 rrcurveto
            -101 hlineto
            -78 0 -31 24 14 86 rrcurveto
            return
          </CharString>
          <CharString index="3">
            -13 -85 24 -40 98 0 rrcurveto
            101 hlineto
            101 0 33 40 13 85 rrcurveto
            21 133 rlineto
            13 85 -25 40 -98 0 rrcurveto
            -101 hlineto
            -101 0 -32 -40 -13 -85 rrcurveto
            return
          </CharString>
          <CharString index="4">
            21 133 rlineto
            14 89 38 21 79 0 rrcurveto
            101 hlineto
            86 0 21 -32 -12 -78 rrcurveto
            -21 -133 rlineto
            -14 -89 -41 -21 -77 0 rrcurveto
            -101 hlineto
            -78 0 -30 24 14 86 rrcurveto
            return
          </CharString>
          <CharString index="5">
            1.52587890625e-05 0 30.5751953125 -9 6.33489990234 40 rrcurveto
            17.7393951416 112 rlineto
            1.26699829102 8 -2.20799255371 5 -9 0 rrcurveto
            -10.00050354 hlineto
            -8 0 -4.63279724121 -4 -1.42579650879 -9 rrcurveto
            -9.82029724121 -62 rlineto
            -1.26658630371 -8 4.20799255371 -5 7 0 rrcurveto
            6 0 -7.44430541992 -47 rlineto
            -0.9501953125 -6 -2.42579650879 -9 -15 0 rrcurveto
            return
          </CharString>
          <CharString index="6">
            -1.10838317871 -7 4.20799255371 -5 7 0 rrcurveto
            11 hlineto
            7 0 5.63400268555 4 1.26599121094 8 rrcurveto
            9.82099914551 62 rlineto
            1.1079864502 7 -3.20799255371 5 -8 0 rrcurveto
            -10.9998931885 hlineto
            -8 0 -4.6337890625 -4 -1.2666015625 -8 rrcurveto
            return
          </CharString>
          <CharString index="7">
            -19 -120 74 -42 91 0 rrcurveto
            134 hlineto
            99 0 75 43 19 119 rrcurveto
            65 408 rlineto
            14 91 -34 71 -122 0 rrcurveto
            -134 hlineto
            -95 0 -85 -54 -17 -108 rrcurveto
            return
          </CharString>
          <CharString index="8">
            65 408 rlineto
            14 88 66 50 89 0 rrcurveto
            134 hlineto
            96 0 40 -48 -14 -90 rrcurveto
            -65 -408 rlineto
            -13 -85 -48 -53 -104 0 rrcurveto
            -134 hlineto
            -90 0 -50 46 14 92 rrcurveto
            return
          </CharString>
          <CharString index="9">
            470 0 4 24 -429 0 rlineto
            57 39 421 281 31 186 21 125 -42 87 -148 0 rrcurveto
            return
          </CharString>
          <CharString index="10">
            -51 0 -120 3 -105 -13 rrcurveto
            -2 -15 rlineto
            return
          </CharString>
          <CharString index="11">
            268 hlineto
            113 0 64 -43 -24 -142 -28 -166 -386 -264 -110 -79 rrcurveto
            return
          </CharString>
          <CharString index="12">
            38 -8 122 -3 114 0 122 0 65 59 17 109 rrcurveto
            9 59 rlineto
            16 104 -82 36 -31 5 30 2 95 28 17 105 rrcurveto
            10 69 rlineto
            15 92 -38 71 -119 2 rrcurveto
            return
          </CharString>
          <CharString index="13">
            -117 2 -113 -1 -62 -11 rrcurveto
            -2 -14 rlineto
            return
          </CharString>
          <CharString index="14">
            286 hlineto
            82 0 60 -38 -16 -99 rrcurveto
            -10 -69 rlineto
            -13 -85 -83 -39 -78 -1 rrcurveto
            return
          </CharString>
          <CharString index="15">
            -214 -6 -2 -14 rlineto
            return
          </CharString>
          <CharString index="16">
            212 -7 rlineto
            57 -2 90 -25 -16 -100 rrcurveto
            -9 -59 rlineto
            -19 -117 -78 -31 -79 0 rrcurveto
            return
          </CharString>
          <CharString index="17">
            8 -25 395 0 -33 -210 24 0 33 210 rlineto
            return
          </CharString>
          <CharString index="18">
            -90 0 49 311 -14 0 -22 -75 rlineto
            return
          </CharString>
          <CharString index="19">
            -378 0 383 496 -27 0 rlineto
            return
          </CharString>
          <CharString index="20">
            70 -10 108 0 124 0 62 0 106 33 22 137 rrcurveto
            16 99 rlineto
            15 97 -34 69 -118 0 rrcurveto
            -152 hlineto
            -77 0 -45 -51 -11 -15 rrcurveto
            71 343 400 0 4 24 -423 0 -93 -450 24 0 rlineto
            10 66 72 59 68 0 rrcurveto
            153 hlineto
            126 0 -6 -94 -8 -50 rrcurveto
            -15 -95 rlineto
            -16 -100 -84 -48 -70 0 rrcurveto
            return
          </CharString>
          <CharString index="21">
            -48 -303 75 -82 109 0 rrcurveto
            124 hlineto
            94 0 58 37 18 112 rrcurveto
            18 111 rlineto
            13 82 -26 64 -134 0 -74 0 -115 -1 -87 -10 18 112 60 208 127 0 rrcurveto
            return
          </CharString>
          <CharString index="22">
            266 0 2 15 rlineto
            return
          </CharString>
          <CharString index="23">
            -60 7 -109 2 -101 0 rrcurveto
            -92 0 -95 -96 -41 -258 rrcurveto
            return
          </CharString>
          <CharString index="24">
            282 hlineto
            84 0 50 -23 -17 -105 rrcurveto
            -17 -106 rlineto
            -17 -104 -72 -19 -62 0 rrcurveto
            -119 hlineto
            -144 0 7 201 25 156 rrcurveto
            return
          </CharString>
          <CharString index="25">
            426 0 -350 -708 28 0 350 709 -12 23 -438 0 rlineto
            return
          </CharString>
          <CharString index="26">
            -6 -41 -8 -113 172 0 rrcurveto
            115 hlineto
            64 0 96 24 21 130 rrcurveto
            15 98 rlineto
            10 63 -15 45 -67 20 57 4 45 54 9 54 rrcurveto
            10 65 rlineto
            19 123 -48 57 -112 0 rrcurveto
            -116 hlineto
            -103 0 -73 -32 -21 -134 rrcurveto
            -10 -65 rlineto
            -8 -53 3 -72 84 -15 -39 0 -67 -37 -12 -76 rrcurveto
            return
          </CharString>
          <CharString index="27">
            17 105 rlineto
            13 82 100 24 46 0 rrcurveto
            133 hlineto
            50 0 78 0 -17 -106 rrcurveto
            -17 -105 rlineto
            -15 -96 -81 -31 -61 0 rrcurveto
            -108 hlineto
            -85 0 -68 34 15 93 rrcurveto
            return
          </CharString>
          <CharString index="28">
            10 68 rlineto
            15 104 48 47 109 0 rrcurveto
            114 hlineto
            93 0 45 -41 -17 -110 rrcurveto
            -11 -68 rlineto
            -7 -46 -49 -63 -97 0 rrcurveto
            -129 hlineto
            -66 0 -74 8 16 101 rrcurveto
            return
          </CharString>
          <CharString index="29">
            60 -7 110 -2 101 0 92 0 95 87 41 258 48 303 -70 91 -109 0 rrcurveto
            -116 hlineto
            -94 0 -72 -32 -18 -112 rrcurveto
            -18 -111 rlineto
            -13 -82 19 -69 134 0 74 0 122 1 87 10 -18 -112 -57 -208 -130 0 rrcurveto
            return
          </CharString>
          <CharString index="30">
            17 113 rlineto
            16 104 79 19 62 0 rrcurveto
            120 hlineto
            143 0 -11 -201 -25 -156 rrcurveto
            -277 hlineto
            -76 0 -65 16 17 105 rrcurveto
            return
          </CharString>
          <CharString index="31">
            -1.10800170898 -7 4.36601257324 -4 7 0 rrcurveto
            11 hlineto
            7.00001525879 0 5.4759979248 3 1.26599121094 8 rrcurveto
            9.97900390625 63 rlineto
            1.10800170898 7 -3.2080078125 5 -8 0 rrcurveto
            -11 hlineto
            -8 0 -4.63198852539 -4 -1.26800537109 -8 rrcurveto
            return
          </CharString>
          <CharString index="32">
            -17 -107 60 -81 104 0 rrcurveto
            98 hlineto
            return
          </CharString>
          <CharString index="33">
            126 0 114 0 50 10 rrcurveto
            2 14 rlineto
            return
          </CharString>
          <CharString index="34">
            -384 hlineto
            -86 0 -60 58 17 106 rrcurveto
            81 512 rlineto
            13 83 48 71 120 0 rrcurveto
            374 hlineto
            82 0 53 -33 -18 -121 rrcurveto
            -53 -354 rlineto
            -20 -133 -87 -8 -48 0 rrcurveto
            67 456 rlineto
            -51 49 -97 20 -79 -7 -74 -7 -107 -41 -34 -221 rrcurveto
            return
          </CharString>
          <CharString index="35">
            -34 -227 75 -54 111 2 73 1 102 32 31 34 rrcurveto
            return
          </CharString>
          <CharString index="36">
            -2 -60 29 0 rlineto
            144 0 20 129 5 35 rrcurveto
            53 354 rlineto
            17 113 -46 65 -111 0 rrcurveto
            -375 hlineto
            -138 0 -52 -86 -15 -92 rrcurveto
            return
          </CharString>
          <CharString index="37">
            30 241 116 22 57 2 65 2 59 -5 69 -37 rrcurveto
            -59 -399 rlineto
            return
          </CharString>
          <CharString index="38">
            -65 -49 -95 -12 -55 1 -78 1 -69 34 25 199 rrcurveto
            return
          </CharString>
          <CharString index="39">
            28 0 134 253 333 0 51 -253 24 0 -146 732 -34 0 rlineto
            return
          </CharString>
          <CharString index="40">
            229 432 86 -432 rlineto
            return
          </CharString>
          <CharString index="41">
            253 hlineto
            154 0 55 95 16 102 18 114 -79 63 -42 10 64 7 77 71 15 96 17 107 -31 67 -148 0 rrcurveto
            -253 hlineto
            return
          </CharString>
          <CharString index="42">
            55 346 229 0 rlineto
            92 2 66 -77 -15 -92 -24 -150 -95 -29 -79 0 rrcurveto
            return
          </CharString>
          <CharString index="43">
            49 313 229 0 rlineto
            110 0 55 -33 -24 -120 -20 -98 -77 -62 -93 0 rrcurveto
            return
          </CharString>
          <CharString index="44">
            -34 -215 33 -167 185 0 52 0 93 9 72 13 rrcurveto
            2 14 rlineto
            0 -109 -12 -105 vhcurveto
            -152 0 -49 120 36 228 44 280 83 70 147 0 92 0 119 -14 1 0 rrcurveto
            2 14 rlineto
            -68 13 -92 11 -52 0 -203 0 -61 -134 -36 -230 rrcurveto
            return
          </CharString>
          <CharString index="45">
            259 hlineto
            185 0 89 163 36 192 28 149 -3 228 -226 0 rrcurveto
            -252 hlineto
            return
          </CharString>
          <CharString index="46">
            108 684 227 0 rlineto
            151 0 72 -107 -40 -237 -25 -148 -80 -192 -182 0 rrcurveto
            return
          </CharString>
          <CharString index="47">
            -18 -113 68 -20 66 2 rrcurveto
            return
          </CharString>
          <CharString index="48">
            289 10 2 14 rlineto
            return
          </CharString>
          <CharString index="49">
            -287 hlineto
            -55 0 -56 10 15 92 rrcurveto
            36 228 360 5 2 14 -358 5 36 227 rlineto
            12 75 45 31 62 0 rrcurveto
            return
          </CharString>
          <CharString index="50">
            297 0 2 14 rlineto
            return
          </CharString>
          <CharString index="51">
            -296 10 rlineto
            -64 2 -66 -29 -16 -98 rrcurveto
            return
          </CharString>
          <CharString index="52">
            24 0 56 351 359 5 3 14 -359 5 36 227 rlineto
            12 77 39 29 66 0 rrcurveto
            return
          </CharString>
          <CharString index="53">
            -296 10 rlineto
            -67 2 -62 -22 -18 -114 rrcurveto
            return
          </CharString>
          <CharString index="54">
            -33 -207 -10 -177 207 2 90 0 125 43 33 16 rrcurveto
            -54 14 vlineto
            61 386 rlineto
            -24 2 -23 1 -21 0 rrcurveto
            return
          </CharString>
          <CharString index="55">
            -81 0 -48 0 -42 -11 rrcurveto
            -3 -14 214 0 -46 -295 rlineto
            0 -167 -50 -78 vhcurveto
            -159 0 -24 101 39 248 34 217 49 131 166 0 94 0 146 -22 6 0 rrcurveto
            3 19 rlineto
            -68 13 -125 14 -52 0 rrcurveto
            -199 0 -46 -163 -32 -200 rrcurveto
            return
          </CharString>
          <CharString index="56">
            24 0 54 342 440 0 -54 -342 24 0 116 732 -24 0 -58 -366 -440 0 58 366 -24 0 rlineto
            return
          </CharString>
          <CharString index="57">
            24 0 116 732 -24 0 rlineto
            return
          </CharString>
          <CharString index="58">
            47 -34 87 -1 48 32 50 33 18 67 7 47 rrcurveto
            90 567 -24 0 -90 -567 rlineto
            -28 -169 -115 12 -84 27 rrcurveto
            return
          </CharString>
          <CharString index="59">
            25 0 56 355 156 0 181 -355 28 0 -187 368 302 364 -30 0 -294 -353 -153 0 56 353 -24 0 rlineto
            return
          </CharString>
          <CharString index="60">
            -18 -113 73 -13 66 0 rrcurveto
            271 0 4 24 -276 0 rlineto
            -54 0 -57 10 15 92 rrcurveto
            96 606 -24 0 rlineto
            return
          </CharString>
          <CharString index="61">
            25 0 188 696 103 -696 28 0 324 701 -32 -701 25 0 32 732 -39 0 -318 -691 -105 691 -34 0 rlineto
            return
          </CharString>
          <CharString index="62">
            24 0 110 690 331 -690 24 0 116 732 -24 0 -110 -689 -330 689 -25 0 rlineto
            return
          </CharString>
          <CharString index="63">
            -53 -333 81 -39 180 0 180 0 97 35 51 323 54 343 -88 40 -173 0 -172 0 -103 -26 -54 -343 rrcurveto
            return
          </CharString>
          <CharString index="64">
            53 337 99 15 148 0 160 0 79 -28 -51 -324 -47 -296 -80 -45 -171 0 -179 0 -58 43 47 298 rrcurveto
            return
          </CharString>
          <CharString index="65">
            24 0 53 333 rlineto
            return
          </CharString>
          <CharString index="66">
            5 -3 205 -7 40 0 74 0 103 5 32 204 28 179 -93 21 -79 0 rrcurveto
            -276 hlineto
            return
          </CharString>
          <CharString index="67">
            57 360 252 0 rlineto
            76 0 71 -20 -24 -154 rrcurveto
            return
          </CharString>
          <CharString index="68">
            4 -3 185 -6 53 -1 rrcurveto
            109 -323 26 0 -109 323 rlineto
            75 2 86 15 30 188 28 179 -93 25 -79 0 rrcurveto
            -276 hlineto
            return
          </CharString>
          <CharString index="69">
            57 360 252 0 rlineto
            76 0 71 -21 -24 -154 -25 -162 -76 -23 -79 0 rrcurveto
            return
          </CharString>
          <CharString index="70">
            45 -8 139 -7 49 0 99 0 99 17 22 142 rrcurveto
            10 68 rlineto
            13 82 -18 70 -133 0 rrcurveto
            -114 hlineto
            -92 0 -52 19 16 104 rrcurveto
            11 66 rlineto
            19 121 69 37 105 -4 0 0 158 -4 63 -4 rrcurveto
            2 13 rlineto
            -48 8 -118 11 -53 0 -112 0 -86 -29 -23 -145 rrcurveto
            -11 -66 rlineto
            -12 -78 7 -73 155 0 rrcurveto
            112 hlineto
            100 0 31 -38 -13 -85 rrcurveto
            -10 -68 rlineto
            -18 -117 -82 -23 -90 0 -93 0 -101 2 -43 4 rrcurveto
            return
          </CharString>
          <CharString index="71">
            254 0 -112 -708 24 0 112 708 260 0 4 24 -538 0 rlineto
            return
          </CharString>
          <CharString index="72">
            -52 -329 126 4 136 0 122 0 124 2 51 323 rrcurveto
            65 412 -24 0 -65 -412 rlineto
            -45 -285 -105 -16 -125 0 -136 0 -95 2 47 299 rrcurveto
            65 412 -24 0 rlineto
            return
          </CharString>
          <CharString index="73">
            146 -732 34 0 202 396 96 -396 34 0 370 732 -26 0 -359 -708 -97 407 150 301 -26 0 -358 -707 -142 707 rlineto
            return
          </CharString>
          <CharString index="74">
            168 -472 -41 -260 24 0 41 260 338 472 -29 0 -318 -440 -156 440 rlineto
            return
          </CharString>
          <CharString index="75">
            463 0 4 24 -431 0 539 684 4 24 -463 0 -4 -24 431 0 -539 -684 rlineto
            return
          </CharString>
          <CharString index="76">
            18 0 143 115 94 -115 17 0 -98 130 -21 0 rlineto
            return
          </CharString>
          <CharString index="77">
            112 -133 14 0 -100 133 rlineto
            return
          </CharString>
          <CharString index="78">
            -41 -234 83 -52 114 0 77 0 101 48 29 19 rrcurveto
            return
          </CharString>
          <CharString index="79">
            -1 -60 14 0 70 479 rlineto
            -51 49 -105 22 -70 -9 rrcurveto
            -82 -10 -98 -24 -40 -228 rrcurveto
            return
          </CharString>
          <CharString index="80">
            30 192 53 63 117 16 97 13 76 -36 29 -18 rrcurveto
            -58 -401 rlineto
            return
          </CharString>
          <CharString index="81">
            -68 -29 -60 -30 -87 0 -110 0 -42 82 23 148 rrcurveto
            return
          </CharString>
          <CharString index="82">
            13 0 19 59 rlineto
            22 -24 99 -41 68 0 145 0 61 140 19 122 22 136 -10 147 -151 0 -45 0 -93 -14 -68 -26 rrcurveto
            45 286 -22 0 rlineto
            return
          </CharString>
          <CharString index="83">
            65 412 rlineto
            72 18 52 12 77 0 84 0 69 -47 -32 -205 -28 -174 -87 -71 -85 0 -79 0 -59 28 -49 27 rrcurveto
            return
          </CharString>
          <CharString index="84">
            -37 -233 70 -45 99 0 83 1 42 5 85 23 rrcurveto
            2 16 rlineto
            0 -116 -21 -92 vhcurveto
            -86 0 -60 37 33 206 34 216 66 34 91 0 rrcurveto
            89 106 -16 0 hvcurveto
            3 14 rlineto
            -60 14 -82 12 -52 0 -102 0 -79 -31 -37 -232 rrcurveto
            return
          </CharString>
          <CharString index="85">
            -19 -122 16 -155 145 0 68 0 108 41 30 24 rrcurveto
            1 -59 13 0 124 785 -22 0 -45 -286 rlineto
            -60 26 -86 14 -45 0 -151 0 -55 -132 -22 -136 rrcurveto
            return
          </CharString>
          <CharString index="86">
            33 209 86 43 84 0 77 0 46 -12 66 -18 rrcurveto
            -66 -412 rlineto
            -57 -27 -65 -28 -79 0 -85 0 -69 64 29 181 rrcurveto
            return
          </CharString>
          <CharString index="87">
            -33 -194 32 -91 128 0 83 0 66 6 84 23 rrcurveto
            3 16 rlineto
            -78 -11 -83 -11 -77 1 -107 2 -19 75 20 153 37 -15 356 -63 28 219 15 116 -77 37 -126 0 -195 0 -31 -111 -26 -152 rrcurveto
            return
          </CharString>
          <CharString index="88">
            29 145 12 111 198 0 104 0 64 -31 -13 -98 -25 -196 -369 69 0 0 rrcurveto
            return
          </CharString>
          <CharString index="89">
            87 0 -80 -507 24 0 80 507 rlineto
            return
          </CharString>
          <CharString index="90">
            178 0 4 24 -178 0 15 99 rlineto
            12 78 18 54 68 0 rrcurveto
            142 0 rlineto
            return
          </CharString>
          <CharString index="91">
            -34 10 -77 2 -30 -1 -110 -4 -6 -98 -9 -54 rrcurveto
            -15 -99 rlineto
            return
          </CharString>
          <CharString index="92">
            224 -24 rlineto
            76 -8 90 52 20 124 rrcurveto
            99 628 rlineto
            -46 4 -77 9 -106 0 -125 0 -74 -94 -27 -168 -25 -158 12 -127 153 0 45 0 100 13 68 26 rrcurveto
            -21 -133 rlineto
            -17 -108 -87 -41 -54 4 rrcurveto
            -226 15 rlineto
            return
          </CharString>
          <CharString index="93">
            24 149 67 96 116 -3 rrcurveto
            199 -5 -74 -459 rlineto
            -86 -21 -53 -14 -74 0 -116 0 -31 81 28 176 rrcurveto
            return
          </CharString>
          <CharString index="94">
            24 0 72 455 rlineto
            80 40 58 21 88 0 89 0 41 -62 -13 -84 rrcurveto
            -59 -370 24 0 59 370 rlineto
            14 88 -42 82 -106 0 -81 0 -85 -33 -65 -38 rrcurveto
            50 315 -24 0 rlineto
            return
          </CharString>
          <CharString index="95">
            24 0 84 531 -24 0 rlineto
            return
          </CharString>
          <CharString index="96">
            -1 -7 4 -5 7 0 rrcurveto
            11 hlineto
            7 0 6 4 1 8 rrcurveto
            6 42 rlineto
            1 7 -2 5 -8 0 rrcurveto
            -12 hlineto
            -8 0 -5 -4 -1 -8 rrcurveto
            return
          </CharString>
          <CharString index="97">
            13 hlineto
            26 88 14 92 13 86 rrcurveto
            85 535 -24 0 rlineto
            return
          </CharString>
          <CharString index="98">
            24 0 44 275 rlineto
            19 -2 44 0 51 12 rrcurveto
            167 -285 28 0 -172 292 rlineto
            87 27 100 63 41 149 rrcurveto
            -25 hlineto
            -31 -105 -90 -130 -216 1 rrcurveto
            77 485 -24 0 rlineto
            return
          </CharString>
          <CharString index="99">
            -21 -132 32 -57 84 0 rrcurveto
            65 0 2 13 rlineto
            -7 -65 11 0 hvcurveto
            -29 4 -62 4 25 157 rrcurveto
            94 594 -24 0 rlineto
            return
          </CharString>
          <CharString index="100">
            24 0 72 455 rlineto
            80 40 58 21 88 0 89 0 41 -67 -13 -79 rrcurveto
            -59 -370 24 0 59 370 rlineto
            4 27 -1 25 -7 24 77 38 81 32 84 0 89 0 41 -67 -13 -79 rrcurveto
            -59 -370 24 0 59 370 rlineto
            14 88 -45 82 -106 0 -80 0 -112 -43 -58 -39 -18 48 -43 34 -68 0 -81 0 -82 -33 -65 -38 rrcurveto
            return
          </CharString>
          <CharString index="101">
            24 0 72 455 rlineto
            80 40 58 21 88 0 89 0 41 -67 -13 -79 rrcurveto
            -59 -370 24 0 59 370 rlineto
            14 88 -45 82 -106 0 -81 0 -82 -33 -65 -38 rrcurveto
            return
          </CharString>
          <CharString index="102">
            -30 -190 31 -80 176 0 168 0 62 62 31 194 30 187 -32 98 -173 0 -159 0 -70 -54 -34 -217 rrcurveto
            return
          </CharString>
          <CharString index="103">
            37 232 77 22 120 0 121 0 69 -37 -34 -217 -32 -202 -72 -37 -128 0 -127 0 -64 28 33 211 rrcurveto
            return
          </CharString>
          <CharString index="104">
            24 0 47 299 rlineto
            60 -26 91 -13 45 0 153 0 50 113 25 158 27 168 -43 108 -125 0 -106 0 -70 -2 -51 -8 rrcurveto
            return
          </CharString>
          <CharString index="105">
            74 468 200 0 rlineto
            120 0 25 -108 -22 -137 -26 -161 -52 -93 -124 0 -74 0 -41 10 -80 21 rrcurveto
            return
          </CharString>
          <CharString index="106">
            24 0 70 444 rlineto
            83 37 57 32 89 0 29 0 21 -2 23 -5 rrcurveto
            4 23 rlineto
            -19 7 -25 1 -29 0 -90 0 -73 -38 -67 -35 rrcurveto
            -1 67 -12 0 rlineto
            return
          </CharString>
          <CharString index="107">
            37 -4 154 -6 49 0 64 0 70 3 17 109 rrcurveto
            8 49 rlineto
            12 75 -48 45 -76 0 rrcurveto
            -128 hlineto
            -75 0 -39 1 14 86 rrcurveto
            7 46 rlineto
            11 72 35 32 84 0 rrcurveto
            return
          </CharString>
          <CharString index="108">
            231 0 3 14 rlineto
            return
          </CharString>
          <CharString index="109">
            -51 5 -127 4 -52 0 -103 0 -42 -39 -13 -82 rrcurveto
            -7 -46 rlineto
            -16 -103 42 -14 94 0 rrcurveto
            131 hlineto
            71 0 26 -41 -8 -49 rrcurveto
            -8 -49 rlineto
            -15 -93 -59 -1 -47 0 rrcurveto
            return
          </CharString>
          <CharString index="110">
            84 0 -51 -320 rlineto
            -21 -132 34 -57 84 0 rrcurveto
            63 0 2 13 rlineto
            -7 -65 11 0 hvcurveto
            -29 4 -62 4 25 157 rrcurveto
            51 320 rlineto
            return
          </CharString>
          <CharString index="111">
            175 0 4 24 -175 0 23 148 -16 0 -31 -148 rlineto
            return
          </CharString>
          <CharString index="112">
            -14 -88 46 -82 106 0 81 0 81 33 65 38 rrcurveto
            return
          </CharString>
          <CharString index="113">
            -62 14 vlineto
            84 531 -24 0 -72 -455 rlineto
            return
          </CharString>
          <CharString index="114">
            -80 -40 -58 -21 -88 0 -89 0 -41 67 13 79 rrcurveto
            59 370 -24 0 rlineto
            return
          </CharString>
          <CharString index="115">
            134 -531 26 0 174 300 78 -300 27 0 255 440 rlineto
            6 11 32 52 -8 29 rrcurveto
            -15 hlineto
            -4 -28 -23 -37 -12 -21 rrcurveto
            -242 -416 -77 299 63 109 rlineto
            6 11 32 52 -8 29 rrcurveto
            -15 hlineto
            -4 -28 -23 -36 -12 -21 rrcurveto
            -239 -413 -127 499 rlineto
            return
          </CharString>
          <CharString index="116">
            83 -421 rlineto
            19 -98 66 -11 21 -1 0 0 -115 -256 -71 1 rrcurveto
            -14 vlineto
            95 118 270 0 hvcurveto
            213 445 rlineto
            9 19 19 44 -8 29 rrcurveto
            -15 hlineto
            -4 -28 -14 -34 -10 -22 rrcurveto
            -205 -429 rlineto
            1 0 -76 -12 -20 103 rrcurveto
            -82 415 rlineto
            return
          </CharString>
          <CharString index="117">
            381 hlineto
            0 0 5 23 -1 1 rrcurveto
            -348 0 424 482 4 24 -396 0 -4 -24 362 0 -423 -482 rlineto
            return
          </CharString>
          <CharString index="118">
            4 -8 rlineto
            40 26 31 24 38 0 33 0 40 -73 42 0 42 0 34 29 39 33 rrcurveto
            -5 7 rlineto
            -26 -19 -42 -34 -39 0 -32 0 -45 73 -39 0 -39 0 -37 -28 -39 -30 rrcurveto
            return
          </CharString>
          <CharString index="119">
            -1 -7 3 -6 8 0 rrcurveto
            11 hlineto
            8 0 5 5 1 8 rrcurveto
            11 63 rlineto
            1.21600341797 6.96600341797 -4.21600341797 3.03399658203 -7 0 rrcurveto
            -12 hlineto
            -7 0 -4.6130065918 -2.05700683594 -1.3869934082 -7.94299316406 rrcurveto
            return
          </CharString>
          <CharString index="120">
            -2 -10 7 -8 10 0 10 0 8 8 2 10 2 10 -6 7 -10 0 -10 0 -9 -7 -2 -10 rrcurveto
            return
          </CharString>
          <CharString index="121">
            314 0 4 24 -314 0 rlineto
            return
          </CharString>
          <CharString index="122">
            252 0 2 15 -252 0 rlineto
            return
          </CharString>
          <CharString index="123">
            309 0 3 18 -272 0 rlineto
            42 31 264 177 19 113 13 78 -24 65 -98 0 rrcurveto
            return
          </CharString>
          <CharString index="124">
            -72 0 -45 1 -67 -8 -1 1 -3 -12 2 0 rrcurveto
            return
          </CharString>
          <CharString index="125">
            177 hlineto
            96 0 13 -52 -11 -69 -17 -106 -250 -169 -76 -54 rrcurveto
            return
          </CharString>
          <CharString index="126">
            41 -9 69 -2 74 0 99 0 35 46 11 71 rrcurveto
            5 30 rlineto
            9 63 -56 31 -21 4 24 2 65 28 8 57 rrcurveto
            6 38 rlineto
            9 60 -26 51 -87 0 rrcurveto
            return
          </CharString>
          <CharString index="127">
            -76 0 -73 1 -47 -9 rrcurveto
            -1 -10 rlineto
            return
          </CharString>
          <CharString index="128">
            193 hlineto
            50 0 52 -15 -12 -75 rrcurveto
            -4 -36 rlineto
            -6 -50 -64 -31 -62 -2 rrcurveto
            -137 -4 -2 -10 143 -4 rlineto
            52 -1 53 -29 -9 -60 rrcurveto
            -3 -23 rlineto
            -13 -82 -41 -23 -82 0 rrcurveto
            return
          </CharString>
          <CharString index="129">
            14 0 154 133 -26 0 rlineto
            return
          </CharString>
          <CharString index="130">
            -1 -7 4 -5 7 0 rrcurveto
            12 hlineto
            7 0 5 4 1 8 rrcurveto
            2 12 rlineto
            1 7 -2 5 -8 0 rrcurveto
            -12 hlineto
            -8 0 -5 -4 -1 -8 rrcurveto
            return
          </CharString>
          <CharString index="131">
            31 hlineto
            83 0 24 36 16 100 rrcurveto
            -17 hlineto
            -15 -108 -32 -8 -55 -8 rrcurveto
            -34 -5 rlineto
            return
          </CharString>
          <CharString index="132">
            77 0 60 38 17 13 rrcurveto
            -71 -451 18 0 76 478 -18 0 rlineto
            0 -78 -67 -80 vhcurveto
            return
          </CharString>
          <CharString index="133">
            20 0 508 770 -20 0 rlineto
            return
          </CharString>
          <CharString index="134">
            2 -10 287 0 -26 -166 18 0 26 166 rlineto
            return
          </CharString>
          <CharString index="135">
            -59 0 27 169 -9 0 -17 -48 rlineto
            return
          </CharString>
          <CharString index="136">
            83 0 92 1 79 9 rrcurveto
            2 14 rlineto
            return
          </CharString>
          <CharString index="137">
            -9 -57 39 -45 56 0 56 0 52 45 9 57 9 57 -37 46 -56 0 -56 0 -54 -46 -9 -57 rrcurveto
            return
          </CharString>
          <CharString index="138">
            8 48 45 40 48 0 48 0 33 -40 -8 -48 -8 -48 -44 -39 -48 0 -48 0 -34 39 8 48 rrcurveto
            return
          </CharString>
          <CharString index="139">
            65 0 -58 -366 259 0 rlineto
            185 0 90 163 36 192 28 149 -4 228 -226 0 rrcurveto
            -252 0 -56 -352 -65 0 rlineto
            return
          </CharString>
          <CharString index="140">
            54 342 159 0 2 14 -159 0 52 328 227 0 rlineto
            151 0 72 -107 -40 -237 -25 -148 -80 -192 -182 0 rrcurveto
            return
          </CharString>
          <CharString index="141">
            -3 -20 10 -12 20 0 rrcurveto
            24 hlineto
            20 0 17 8 4 24 rrcurveto
            4 30 rlineto
            3 22 -7 13 -25 0 rrcurveto
            -24 hlineto
            -22 0 -14 -14 -3 -21 rrcurveto
            return
          </CharString>
          <CharString index="142">
            -16 -100 56 -13 59 0 rrcurveto
            117 hlineto
            64 0 52 8 15 96 rrcurveto
            40 255 rlineto
            11 67 -23 49 -83 0 rrcurveto
            -117 hlineto
            -71 0 -51 -23 -13 -84 rrcurveto
            return
          </CharString>
          <CharString index="143">
            39 247 rlineto
            11 72 35 24 73 0 rrcurveto
            109 hlineto
            74 0 19 -33 -10 -63 rrcurveto
            -39 -247 rlineto
            -11 -67 -19 -29 -84 0 rrcurveto
            -109 hlineto
            -69 0 -32 16 13 80 rrcurveto
            return
          </CharString>
          <CharString index="144">
            -59 0 27 169 -9 0 -16 -48 rlineto
            return
          </CharString>
          <CharString index="145">
            -262 0 230 289 -23 0 rlineto
            return
          </CharString>
          <CharString index="146">
            35 -6 98 -1 81 0 63 0 51 32 13 82 rrcurveto
            10 64 rlineto
            11 71 -29 29 -77 0 -82 0 -82 12 -38 -61 rrcurveto
            49 232 279 0 3 18 -295 0 -61 -292 18 0 rlineto
            7 37 45 36 46 0 rrcurveto
            110 hlineto
            84 0 1 -36 -8 -50 rrcurveto
            -8 -56 rlineto
            -11 -68 -39 -31 -61 0 rrcurveto
            return
          </CharString>
          <CharString index="147">
            -36 -213 56 -37 72 0 rrcurveto
            114 hlineto
            61 0 42 30 12 72 rrcurveto
            12 71 rlineto
            8 51 -11 33 -88 0 -48 0 -120 -1 -56 -6 20 123 35 89 84 0 rrcurveto
            205 0 2 12 rlineto
            -41 6 -98 2 -67 -2 -65 -2 -60 -31 -33 -197 rrcurveto
            return
          </CharString>
          <CharString index="148">
            220 hlineto
            54 0 35 -5 -9 -57 rrcurveto
            -13 -72 rlineto
            -10 -56 -33 -31 -58 0 rrcurveto
            -107 hlineto
            -71 0 -36 45 28 176 rrcurveto
            return
          </CharString>
          <CharString index="149">
            315 0 -255 -458 21 0 256 461 -7 15 -327 0 rlineto
            return
          </CharString>
          <CharString index="150">
            -9 -54 12 -50 92 0 rrcurveto
            125 hlineto
            55 0 46 20 13 84 rrcurveto
            10 58 rlineto
            7 45 -33 31 -32 6 49 4 29 40 5 34 rrcurveto
            7 40 rlineto
            14 86 -36 33 -70 0 rrcurveto
            -110 hlineto
            -67 0 -50 -22 -15 -92 rrcurveto
            -7 -40 rlineto
            -5 -34 11 -45 54 -10 -27 -1 -49 -22 -8 -48 rrcurveto
            return
          </CharString>
          <CharString index="151">
            8 52 rlineto
            7 42 44 31 54 0 rrcurveto
            125 hlineto
            29 0 47 -22 -8 -53 rrcurveto
            -8 -50 rlineto
            -11 -68 -35 -22 -59 0 rrcurveto
            -112 hlineto
            -70 0 -21 25 10 65 rrcurveto
            return
          </CharString>
          <CharString index="152">
            5 32 rlineto
            13 80 37 23 68 0 rrcurveto
            97 hlineto
            66 0 30 -19 -13 -84 rrcurveto
            -5 -32 rlineto
            -8 -51 -48 -26 -40 0 rrcurveto
            -131 hlineto
            -45 0 -34 24 8 53 rrcurveto
            return
          </CharString>
          <CharString index="153">
            41 -6 97 -2 67 2 65 2 60 31 33 197 36 213 -58 37 -72 0 rrcurveto
            -105 hlineto
            -61 0 -50 -27 -11 -72 rrcurveto
            -11 -76 rlineto
            -8 -51 12 -31 88 0 48 0 118 1 56 6 -20 -123 -34 -89 -84 0 rrcurveto
            return
          </CharString>
          <CharString index="154">
            11 72 rlineto
            9 56 35 31 58 0 rrcurveto
            106 hlineto
            71 0 36 -45 -28 -176 rrcurveto
            -220 hlineto
            -54 0 -33 5 9 57 rrcurveto
            return
          </CharString>
          <CharString index="155">
            465 0 4 24 -414 0 rlineto
            65 30 396 227 26 165 18 113 -52 79 -140 0 rrcurveto
            return
          </CharString>
          <CharString index="156">
            -114 5 -108 -7 -52 -8 rrcurveto
            -2 -13 rlineto
            return
          </CharString>
          <CharString index="157">
            261 hlineto
            108 0 76 -40 -19 -122 -25 -155 -389 -227 -100 -48 rrcurveto
            return
          </CharString>
          <CharString index="158">
            38 -8 121 -3 114 0 122 0 66 56 17 109 rrcurveto
            9 59 rlineto
            16 104 -82 39 -31 5 30 2 94 22 18 105 rrcurveto
            11 71 rlineto
            15 92 -41 75 -119 2 rrcurveto
            return
          </CharString>
          <CharString index="159">
            -117 2 -111 -1 -62 -11 rrcurveto
            -2 -14 rlineto
            return
          </CharString>
          <CharString index="160">
            286 hlineto
            82 0 60 -42 -16 -99 rrcurveto
            -10 -69 rlineto
            -13 -85 -83 -35 -78 -1 rrcurveto
            return
          </CharString>
          <CharString index="161">
            212 -7 rlineto
            57 -2 90 -30 -16 -100 rrcurveto
            -9 -59 rlineto
            -19 -117 -78 -26 -79 0 rrcurveto
            return
          </CharString>
          <CharString index="162">
            473 0 4 25 -473 0 rlineto
            return
          </CharString>
          <CharString index="163">
            696 0 4 25 -696 0 rlineto
            return
          </CharString>
          <CharString index="164">
            -11 -72 53 -42 55 0 55 0 66 38 12 76 rrcurveto
            -14 hlineto
            -9 -58 -50 -41 -59 -1 -54 -1 -39 44 9 57 rrcurveto
            return
          </CharString>
          <CharString index="165">
            -159 -66 56 -131 118 16 rrcurveto
            2 14 rlineto
            -132 -3 9 125 118 45 rrcurveto
            return
          </CharString>
          <CharString index="166">
            98 -130 21 0 153 130 -18 0 -143 -115 -94 115 rlineto
            return
          </CharString>
          <CharString index="167">
            12 0 28 134 10 67 -25 0 -10 -67 rlineto
            return
          </CharString>
          <CharString index="168">
            -1.1083984375 -7 4.2080078125 -5 7 0 rrcurveto
            11 hlineto
            7 0 5.6337890625 4 1.265625 8 rrcurveto
            9.8212890625 62 rlineto
            1.107421875 7 -3.2080078125 5 -8 0 rrcurveto
            -10.9990234375 hlineto
            -8 0 -4.6337890625 -4 -1.2666015625 -8 rrcurveto
            return
          </CharString>
          <CharString index="169">
            -1.1083984375 -7 4.2080078125 -5 7 0 rrcurveto
            11 hlineto
            7 0 5.6337890625 4 1.2666015625 8 rrcurveto
            9.8203125 62 rlineto
            1.1083984375 7 -3.2080078125 5 -8 0 rrcurveto
            -11 hlineto
            -8 0 -4.6337890625 -4 -1.2666015625 -8 rrcurveto
            return
          </CharString>
          <CharString index="170">
            -19 -96 70 -60 102 0 rrcurveto
            130 hlineto
            147 0 19 88 10 66 rrcurveto
            5 33 rlineto
            13 79 -72 31 -68 9 rrcurveto
            -239 30 rlineto
            -42 5 12 24 4 26 5 32 22 21 73 0 rrcurveto
            147 hlineto
            137 0 45 93 10 77 18 141 -87 46 -69 1 rrcurveto
            -98 1 rlineto
            -107 1 -72 -60 -20 -130 -8 -53 20 -73 42 -24 -39 -5 -37 -14 -9 -61 rrcurveto
            return
          </CharString>
          <CharString index="171">
            33 163 260 -32 rlineto
            96 -12 36 -30 -10 -61 rrcurveto
            -4 -28 rlineto
            -11 -69 -26 -61 -110 0 rrcurveto
            -144 hlineto
            -65 0 -73 42 18 88 rrcurveto
            return
          </CharString>
          <CharString index="172">
            22 125 65 40 82 0 rrcurveto
            106 hlineto
            74 0 54 -63 -16 -102 -6 -38 -27 -108 -121 0 rrcurveto
            -138 hlineto
            -77 0 -28 87 10 59 rrcurveto
            return
          </CharString>
          <CharString index="173">
            -1.23500061035 -6.9619140625 5.23500061035 -5.0380859375 7 0 rrcurveto
            11 hlineto
            7 0 4.59199523926 4.0625 1.40800476074 7.9375 rrcurveto
            11 62 rlineto
            1 7 -2 5 -8 0 rrcurveto
            -12 hlineto
            -8 0 -5 -4 -1 -8 rrcurveto
            return
          </CharString>
          <CharString index="174">
            -1 -7 4 -4 7 0 rrcurveto
            4 hlineto
            7 0 5 3 1 8 rrcurveto
            5 33 rlineto
            1 7 -2 5 -8 0 rrcurveto
            -4 hlineto
            -8 0 -5 -4 -1 -8 rrcurveto
            return
          </CharString>
          <CharString index="175">
            -1.1083984375 -7 4.2080078125 -5 7 0 rrcurveto
            11 hlineto
            7 0 5.6337890625 4 1.265625 8 rrcurveto
            9.8212890625 62 rlineto
            1.107421875 7 -3.2080078125 5 -8 0 rrcurveto
            -10.9990234375 hlineto
            -8 0 -4.634765625 -4 -1.265625 -8 rrcurveto
            return
          </CharString>
          <CharString index="176">
            97 0 -80 -507 24 0 80 507 rlineto
            return
          </CharString>
          <CharString index="177">
            0 0 27.517578125 -8.099609375 5.701171875 36 rrcurveto
            15.96484375 100.799804688 rlineto
            1.140625 7.2001953125 -1.9873046875 4.5 -8.099609375 0 rrcurveto
            -9.0009765625 hlineto
            -7.19921875 0 -4.169921875 -3.6005859375 -1.283203125 -8.099609375 rrcurveto
            -8.837890625 -55.7998046875 rlineto
            -1.140625 -7.2001953125 3.787109375 -4.5 6.30078125 0 rrcurveto
            5.3994140625 0 -6.69921875 -42.2998046875 rlineto
            -0.85546875 -5.400390625 -2.18359375 -8.099609375 -13.5 0 rrcurveto
            return
          </CharString>
          <CharString index="178">
            -1.1083984375 -7 4.2080078125 -5 7 0 rrcurveto
            11 hlineto
            7 0 5.6337890625 4 1.265625 8 rrcurveto
            9.8212890625 62 rlineto
            1.1083984375 7 -3.2080078125 5 -8 0 rrcurveto
            -11 hlineto
            -8 0 -4.6337890625 -4 -1.2666015625 -8 rrcurveto
            return
          </CharString>
          <CharString index="179">
            -13 -85 21 -43 98 0 rrcurveto
            47 hlineto
            101 0 35 37 13 85 rrcurveto
            10 63 rlineto
            13 85 -23 43 -98 0 rrcurveto
            -47 hlineto
            -101 0 -33 -37 -13 -85 rrcurveto
            return
          </CharString>
          <CharString index="180">
            10 63 rlineto
            14 89 38 21 79 0 rrcurveto
            46 hlineto
            86 0 21 -32 -12 -78 rrcurveto
            -10 -63 rlineto
            -14 -89 -41 -21 -77 0 rrcurveto
            -46 hlineto
            -78 0 -30 24 14 86 rrcurveto
            return
          </CharString>
          <CharString index="181">
            -13 -85 21 -43 98 0 rrcurveto
            49 hlineto
            101 0 33 36 13 85 rrcurveto
            10 63 rlineto
            14 88 -23 41 -98 0 rrcurveto
            -46 hlineto
            -101 0 -35 -37 -13 -85 rrcurveto
            return
          </CharString>
          <CharString index="182">
            28 0 106 182 289 0 43 -182 25 0 -136 570 -24 0 rlineto
            return
          </CharString>
          <CharString index="183">
            193 335 77 -335 rlineto
            return
          </CharString>
          <CharString index="184">
            234 hlineto
            126 0 43 66 13 85 16 98 -85 44 -15 -1 32 8 74 18 16 100 11 67 -17 86 -124 0 rrcurveto
            -234 hlineto
            return
          </CharString>
          <CharString index="185">
            41 256 210 0 rlineto
            65 0 60 -48 -12 -78 -19 -118 -78 -12 -57 0 rrcurveto
            return
          </CharString>
          <CharString index="186">
            39 242 211 0 rlineto
            62 0 63 -24 -16 -100 -13 -84 -72 -34 -64 0 rrcurveto
            return
          </CharString>
          <CharString index="187">
            -22 -138 -1 -167 181 0 77 0 72 9 60 11 rrcurveto
            2 14 rlineto
            0 0 -134 -8 -73 -2 -128 0 -39 87 30 188 28 178 70 81 123 0 65 0 125 -7 15 -3 rrcurveto
            2 14 rlineto
            -49 12 -111 8 -43 0 -170 0 -57 -132 -23 -145 rrcurveto
            return
          </CharString>
          <CharString index="188">
            217 hlineto
            60 0 169 2 36 275 25 192 -41 101 -157 2 rrcurveto
            -218 hlineto
            return
          </CharString>
          <CharString index="189">
            83 524 193 0 rlineto
            127 0 55 -67 -28 -198 -20 -146 -63 -113 -154 0 rrcurveto
            return
          </CharString>
          <CharString index="190">
            -8 -52 33 -33 50 0 rrcurveto
            return
          </CharString>
          <CharString index="191">
            295 11 2 13 rlineto
            return
          </CharString>
          <CharString index="192">
            -297 hlineto
            -12 0 -47 4 9 59 rrcurveto
            29 187 327 6 2 14 -325 6 29 184 rlineto
            5 34 19 32 69 0 rrcurveto
            return
          </CharString>
          <CharString index="193">
            275 0 2 14 rlineto
            return
          </CharString>
          <CharString index="194">
            -279 9 rlineto
            -64 0 -41 -28 -10 -62 rrcurveto
            return
          </CharString>
          <CharString index="195">
            24 0 43 272 327 6 2 14 -325 6 29 184 rlineto
            5 34 19 32 69 0 rrcurveto
            return
          </CharString>
          <CharString index="196">
            -281 9 rlineto
            -64 0 -39 -28 -10 -62 rrcurveto
            return
          </CharString>
          <CharString index="197">
            -9 -54 -30 -246 207 1 60 0 82 27 58 34 rrcurveto
            return
          </CharString>
          <CharString index="198">
            2 -54 14 0 48 308 rlineto
            -24 2 -21 1 -21 0 rrcurveto
            return
          </CharString>
          <CharString index="199">
            -81 0 8 -3 -74 -7 rrcurveto
            -2 -14 188 0 -33 -209 rlineto
            -25 -17 -95 -44 -81 0 -117 0 -57 94 28 177 32 199 65 68 135 0 86 0 51 -9 61 -6 rrcurveto
            2 14 rlineto
            -65 16 -89 9 -43 0 rrcurveto
            -172 0 -57 -103 -31 -184 rrcurveto
            return
          </CharString>
          <CharString index="200">
            24 0 42 264 381 0 -42 -264 24 0 90 571 -24 0 -44 -283 -381 0 44 283 -24 0 rlineto
            return
          </CharString>
          <CharString index="201">
            24 0 90 570 -24 0 rlineto
            return
          </CharString>
          <CharString index="202">
            43 -23 77 -12 48 32 50 33 15 72 8 47 rrcurveto
            63 401 -24 0 -63 -401 rlineto
            -27 -174 -101 17 -83 22 rrcurveto
            return
          </CharString>
          <CharString index="203">
            24 0 42 268 125 0 159 -268 28 0 -163 279 253 292 -30 0 -245 -279 -123 0 44 279 -24 0 rlineto
            return
          </CharString>
          <CharString index="204">
            -9 -55 36 -31 53 0 rrcurveto
            280 0 4 24 -280 0 rlineto
            -39 0 -27 17 8 50 rrcurveto
            76 479 -24 0 rlineto
            return
          </CharString>
          <CharString index="205">
            26 0 145 515 138 -515 16 0 289 510 -24 -510 24 0 26 571 -21 0 -296 -526 -141 526 -21 0 rlineto
            return
          </CharString>
          <CharString index="206">
            24 0 85 528 325 -528 19 0 90 571 -23 0 -85 -525 -322 525 -23 0 rlineto
            return
          </CharString>
          <CharString index="207">
            -39 -249 68 -40 162 0 168 0 72 40 39 245 41 256 -67 39 -165 0 -168 0 -72 -47 -39 -244 rrcurveto
            return
          </CharString>
          <CharString index="208">
            36 221 60 45 154 0 170 0 33 -42 -32 -222 -30 -213 -61 -55 -161 0 -160 0 -45 44 36 222 rrcurveto
            return
          </CharString>
          <CharString index="209">
            215 -9 rlineto
            64 1 105 -8 21 172 15 120 -71 36 -73 0 rrcurveto
            -251 hlineto
            return
          </CharString>
          <CharString index="210">
            43 273 227 0 rlineto
            77 0 45 -40 -14 -90 rrcurveto
            return
          </CharString>
          <CharString index="211">
            24 0 42 264 rlineto
            return
          </CharString>
          <CharString index="212">
            1 -2 182 -6 30 -2 rrcurveto
            98 -254 29 0 -100 255 rlineto
            73 4 75 37 16 108 20 134 -79 33 -69 0 rrcurveto
            -252 hlineto
            return
          </CharString>
          <CharString index="213">
            43 269 228 0 rlineto
            65 0 61 -33 -20 -107 -19 -104 -79 -25 -41 0 rrcurveto
            return
          </CharString>
          <CharString index="214">
            35 -12 159 -4 49 0 55 0 79 15 17 109 rrcurveto
            11 70 rlineto
            12 75 -39 33 -87 0 rrcurveto
            -130 hlineto
            -70 0 -44 -1 13 83 rrcurveto
            11 67 rlineto
            12 76 41 33 78 0 rrcurveto
            98 134 -6 0 hvcurveto
            2 14 rlineto
            -66 9 -112 6 -52 0 -103 0 -43 -45 -13 -82 rrcurveto
            -11 -67 rlineto
            -15 -96 42 -15 94 0 rrcurveto
            130 hlineto
            72 0 32 -20 -10 -60 rrcurveto
            -11 -70 rlineto
            -8 -50 -33 -54 -82 0 rrcurveto
            -96 -149 6 0 hvcurveto
            return
          </CharString>
          <CharString index="215">
            206 0 -86 -546 24 0 86 546 206 0 4 24 -436 0 rlineto
            return
          </CharString>
          <CharString index="216">
            -39 -239 92 -26 136 0 121 0 96 32 37 233 rrcurveto
            49 310 -25 0 -49 -310 rlineto
            -29 -183 -64 -58 -139 0 -152 0 -39 51 30 190 rrcurveto
            49 310 -25 0 rlineto
            return
          </CharString>
          <CharString index="217">
            125 -570 22 0 190 363 81 -363 22 0 299 570 -27 0 -279 -529 -78 353 91 176 -27 0 -278 -531 -116 531 rlineto
            return
          </CharString>
          <CharString index="218">
            167 -380 -30 -191 24 0 30 191 285 380 -30 0 -265 -354 -154 354 rlineto
            return
          </CharString>
          <CharString index="219">
            416 0 4 24 -383 0 465 522 4 24 -416 0 -4 -24 384 0 -466 -522 rlineto
            return
          </CharString>
          <CharString index="220">
            0 0 27.517578125 -8.099609375 5.701171875 36 rrcurveto
            15.9658203125 100.799804688 rlineto
            1.140625 7.2001953125 -1.9873046875 4.5 -8.1005859375 0 rrcurveto
            -9 hlineto
            -7.2001953125 0 -4.169921875 -3.6005859375 -1.283203125 -8.099609375 rrcurveto
            -8.837890625 -55.7998046875 rlineto
            -1.1396484375 -7.2001953125 3.787109375 -4.5 6.2998046875 0 rrcurveto
            5.400390625 0 -6.7001953125 -42.2998046875 rlineto
            -0.85546875 -5.400390625 -2.1826171875 -8.099609375 -13.5 0 rrcurveto
            return
          </CharString>
          <CharString index="221">
            -2 -10 7 -8 10 0 10 0 9 8 2 10 2 10 -7 7 -10 0 -10 0 -9 -7 -2 -10 rrcurveto
            return
          </CharString>
          <CharString index="222">
            65 0 -45 -283 217 0 rlineto
            60 0 158 -6 46 281 20 122 -17 173 -176 2 rrcurveto
            -217 0 -44 -275 -65 0 rlineto
            return
          </CharString>
          <CharString index="223">
            41 259 125 0 2 14 -125 0 40 251 193 0 rlineto
            93 0 92 -66 -32 -199 -24 -148 -58 -111 -154 0 rrcurveto
            return
          </CharString>
          <CharString index="224">
            -1 -7 2 -5 8 0 rrcurveto
            12 hlineto
            8 0 5 4 1 8 rrcurveto
            10 62 rlineto
            1.12600708008 6.98100280762 -4.12600708008 5.01899719238 -7 0 rrcurveto
            -11 hlineto
            -7 0 -5.71699523926 -4.04200744629 -1.28300476074 -7.95799255371 rrcurveto
            return
          </CharString>
          <CharString index="225">
            24 0 103 650 rlineto
            12 75 91 10 12 -63 rrcurveto
            119 -620 rlineto
            18 -93 134 21 15 95 rrcurveto
            103 657 -24 0 -104 -655 rlineto
            -12 -65 -93 -22 -13 69 rrcurveto
            -118 618 rlineto
            -17 89 -133 -13 -15 -97 rrcurveto
            return
          </CharString>
          <CharString index="226">
            23 0 147 662 rlineto
            13 59 75 18 9 -67 rrcurveto
            57 -409 rlineto
            9 -66 77 5 26 61 rrcurveto
            174 410 rlineto
            26 62 73 -9 -5 -64 rrcurveto
            -55 -662 24 0 55 654 rlineto
            9 103 -109 10 -40 -86 rrcurveto
            -174 -411 rlineto
            -16 -38 -43 -5 -6 43 rrcurveto
            -57 410 rlineto
            -13 90 -120 -16 -16 -102 rrcurveto
            return
          </CharString>
          <CharString index="227">
            24 0 75 474 rlineto
            94 33 58 9 71 0 86 0 44 -67 -13 -79 rrcurveto
            -59 -370 24 0 59 370 rlineto
            6 39 -6 38 -17 30 89 30 71 9 69 0 86 0 43 -67 -13 -79 rrcurveto
            -58 -370 24 0 58 370 rlineto
            14 88 -45 82 -106 0 -101 0 -41 -12 -99 -37 -23 30 -37 19 -51 0 -108 0 -24 -13 -118 -44 rrcurveto
            return
          </CharString>
          <CharString index="228">
            24 0 75 474 rlineto
            94 33 58 9 71 0 86 0 44 -67 -13 -79 rrcurveto
            -59 -370 24 0 59 370 rlineto
            14 88 -45 82 -106 0 -108 0 -24 -13 -118 -44 rrcurveto
            return
          </CharString>
          <CharString index="229">
            24 0 75 474 rlineto
            105 37 95 14 100 -11 rrcurveto
            4 24 rlineto
            -161 14 -85 -34 -81 -35 rrcurveto
            return
          </CharString>
          <CharString index="230">
            -27 -168 53 -103 125 0 106 0 76 4 51 8 rrcurveto
            73 490 rlineto
            -60 30 -93 15 -66 0 -153 0 -60 -118 -25 -158 rrcurveto
            return
          </CharString>
          <CharString index="231">
            26 161 60 93 124 0 74 0 48 -10 80 -21 rrcurveto
            -74 -468 -207 0 rlineto
            -120 0 -33 108 22 137 rrcurveto
            return
          </CharString>
          <CharString index="232">
            -14 -88 46 -82 106 0 108 0 23 13 118 44 rrcurveto
            76 483 -24 0 -75 -474 rlineto
            -94 -33 -58 -9 -71 0 -86 0 -44 67 13 79 rrcurveto
            59 370 -24 0 rlineto
            return
          </CharString>
          <CharString index="233">
            48 -8 75 -4 106 0 125 0 75 92 27 168 25 158 -12 129 -153 0 -45 0 -100 -13 -68 -26 rrcurveto
            45 286 -24 0 rlineto
            return
          </CharString>
          <CharString index="234">
            74 468 rlineto
            86 21 52 10 74 0 124 0 22 -93 -26 -161 -22 -137 -57 -108 -120 0 rrcurveto
            return
          </CharString>
          <CharString index="235">
            -27 -168 43 -103 125 0 106 0 76 4 51 8 rrcurveto
            124 782 -24 0 -46 -286 rlineto
            -60 26 -95 13 -45 0 -153 0 -50 -118 -25 -158 rrcurveto
            return
          </CharString>
          <CharString index="236">
            26 161 50 93 124 0 74 0 48 -10 80 -21 rrcurveto
            -74 -468 -207 0 rlineto
            -120 0 -23 108 22 137 rrcurveto
            return
          </CharString>
          <CharString index="237">
            24 0 76 482 177 0 4 24 -177 0 20 124 rlineto
            11 69 24 65 92 0 rrcurveto
            return
          </CharString>
          <CharString index="238">
            -71 14 -18 -3 -49 0 -120 0 -19 -102 -9 -54 rrcurveto
            return
          </CharString>
          <CharString index="239">
            24 0 48 305 rlineto
            60 -26 96 -13 45 0 153 0 48 111 27 162 28 170 -44 104 -125 0 -106 0 -76 -4 -51 -8 rrcurveto
            return
          </CharString>
          <CharString index="240">
            74 468 207 0 rlineto
            120 0 23 -108 -22 -137 -26 -161 -50 -93 -124 0 -74 0 -48 10 -80 21 rrcurveto
            return
          </CharString>
          <CharString index="241">
            -31 -166 92 -23 41 0 rrcurveto
            76 0 3 13 rlineto
            -7 -66 10 0 hvcurveto
            -74 11 -28 42 18 113 rrcurveto
            51 318 204 0 4 24 -204 0 23 148 -24 0 rlineto
            return
          </CharString>
        <CharString name=".notdef">
          179 0 13 505 13 hstem
          100 14 530 14 vstem
          100 hmoveto
          558 531 -558 hlineto
          14 -509 rmoveto
          0 485 256 -241 rlineto
          -246 252 rmoveto
          511 0 -254 -242 rlineto
          -254 -263 rmoveto
          254 243 253 -243 rlineto
          -242 253 rmoveto
          252 240 0 -481 rlineto
          endchar
        </CharString>
        <CharString name="A">
          64 21 -21 253 24 455 -20 hstem
          45 hmoveto
          -68 callsubr
          -215 -455 rmoveto
          -67 callsubr
          endchar
        </CharString>
        <CharString name="AE">
          317 -3 24 -14 14 231 24 75 24 333 24 -24 14 hstemhm
          hintmask 10110000
          30 hmoveto
          30 0 199 252 259 0 -21 -131 rlineto
          -18 -113 78 -13 65 2 rrcurveto
          hintmask 01110000
          250 10 2 14 rlineto
          hintmask 10111000
          -257 hlineto
          -55 0 -56 10 15 92 rrcurveto
          37 228 329 5 3 14 -329 5 35 217 rlineto
          12 75 -8 41 116 0 rrcurveto
          hintmask 00110100
          267 0 2 14 rlineto
          hintmask 10111000
          -265 10 rlineto
          -110 5 -32 -48 -79 -99 rrcurveto
          -220 -314 rmoveto
          303 381 -60 -381 rlineto
          endchar
        </CharString>
        <CharString name="Aacute">
          64 0 21 232 24 435 20 65 133 hstem
          455.458999634 168 vstem
          455.458984375 797 rmoveto
          22 callsubr
          -552.458984375 -930 rmoveto
          -68 callsubr
          -215 -455 rmoveto
          -67 callsubr
          endchar
        </CharString>
        <CharString name="Abreve">
          64 0 21 232 24 435 20 65 14 hstem
          365.524993896 14 202 14 vstem
          365.525390625 911 rmoveto
          57 callsubr
          -334.525390625 -911 rmoveto
          -68 callsubr
          -215 -455 rmoveto
          -67 callsubr
          endchar
        </CharString>
        <CharString name="Acircumflex">
          64 0 21 232 24 435 20 65 130 hstem
          326.458999634 272 vstem
          326.458984375 797 rmoveto
          -31 callsubr
          -434.458984375 -927 rmoveto
          -68 callsubr
          -215 -455 rmoveto
          -67 callsubr
          endchar
        </CharString>
        <CharString name="Adieresis">
          64 0 21 232 24 435 20 65 35 hstem
          320.311004639 35 220 35 vstem
          320.310546875 815 rmoveto
          13 callsubr
          255 hmoveto
          13 callsubr
          -530.310546875 -815 rmoveto
          -68 callsubr
          -215 -455 rmoveto
          -67 callsubr
          endchar
        </CharString>
        <CharString name="Agrave">
          64 0 21 232 24 435 20 65 133 hstem
          343.458999634 126 vstem
          343.458984375 930 rmoveto
          -30 callsubr
          -324.458984375 -930 rmoveto
          -68 callsubr
          -215 -455 rmoveto
          -67 callsubr
          endchar
        </CharString>
        <CharString name="Amacron">
          64 0 21 232 24 435 20 65 15 hstem
          336.647994995 254 vstem
          336.6484375 797 rmoveto
          15 callsubr
          -293.6484375 -812 rmoveto
          -68 callsubr
          -215 -455 rmoveto
          -67 callsubr
          endchar
        </CharString>
        <CharString name="Aogonek">
          343 -181 14 147 20 0 21 232 24 435 20 hstemhm
          hintmask 11000000
          701 hmoveto
          58 callsubr
          hintmask 00111000
          -566 hmoveto
          -68 callsubr
          -215 -455 rmoveto
          -67 callsubr
          endchar
        </CharString>
        <CharString name="Aring">
          64 0 21 232 24 435 20 -1.83299255371 15 175 15 hstemhm
          367.615005493 203 hintmask 00011100
          367.615234375 832.166992188 rmoveto
          30 callsubr
          15 hmoveto
          31 callsubr
          hintmask 11100000
          -337.615234375 -832.166992188 rmoveto
          -68 callsubr
          -215 -455 rmoveto
          -67 callsubr
          endchar
        </CharString>
        <CharString name="Atilde">
          64 0 21 232 24 435 20 65 16 57 16 hstem
          298.328125 828 rmoveto
          11 callsubr
          -253.328125 -828 rmoveto
          -68 callsubr
          -215 -455 rmoveto
          -67 callsubr
          endchar
        </CharString>
        <CharString name="B">
          11 0 25 346 24 313 24 hstem
          80 hmoveto
          -66 callsubr
          -88 -707 rmoveto
          -65 callsubr
          -170 370 rmoveto
          -64 callsubr
          endchar
        </CharString>
        <CharString name="C">
          -15 -6 24 698 24 hstem
          117 376 rmoveto
          -63 callsubr
          endchar
        </CharString>
        <CharString name="Cacute">
          -15 -6 24 698 24 60 133 hstem
          420 168 vstem
          420 800 rmoveto
          22 callsubr
          -445 -557 rmoveto
          -63 callsubr
          endchar
        </CharString>
        <CharString name="Ccaron">
          -15 -6 24 698 24 60 130 hstem
          311 272 vstem
          311 930 rmoveto
          59 callsubr
          81 -130 rmoveto
          21 hmoveto
          -313 -424 rmoveto
          -63 callsubr
          endchar
        </CharString>
        <CharString name="Ccedilla">
          -15 -172 7 159 24 698 24 hstem
          330 17 vstem
          117 376 rmoveto
          -63 callsubr
          77 -548 rmoveto
          31 hlineto
          83 0 23 36 16 100 rrcurveto
          -17 hlineto
          -15 -108 -32 -8 -55 -8 rrcurveto
          -33 -5 rlineto
          endchar
        </CharString>
        <CharString name="Ccircumflex">
          -15 -6 24 698 24 60 130 hstem
          290.667007446 272 vstem
          290.666992188 800 rmoveto
          -31 callsubr
          -326.666992188 -554 rmoveto
          -63 callsubr
          endchar
        </CharString>
        <CharString name="Cdotaccent">
          -15 -6 24 698 24 60 86 hstem
          401.070007324 44.820602417 vstem
          401.0703125 812 rmoveto
          62 callsubr
          -293.890625 -498 rmoveto
          -63 callsubr
          endchar
        </CharString>
        <CharString name="D">
          79 0 24 684 24 hstem
          80 hmoveto
          -62 callsubr
          -88 -708 rmoveto
          -61 callsubr
          endchar
        </CharString>
        <CharString name="Dcaron">
          79 0 24 684 24 65 130 hstem
          327.035003662 272 vstem
          327.03515625 927 rmoveto
          59 callsubr
          81 -130 rmoveto
          21 hmoveto
          -366.03515625 -797 rmoveto
          -62 callsubr
          -88 -708 rmoveto
          -61 callsubr
          endchar
        </CharString>
        <CharString name="Dcroat">
          107 0 24 342 14 328 24 hstem
          73 366 rmoveto
          32 callsubr
          33 -356 rmoveto
          33 callsubr
          endchar
        </CharString>
        <CharString name="E">
          -18 -3 24 -14 14 330 24 333 24 -24 14 hstemhm
          hintmask 10100000
          98 128 rmoveto
          -60 callsubr
          hintmask 01100000
          -59 callsubr
          hintmask 10110000
          -58 callsubr
          hintmask 00101000
          -57 callsubr
          hintmask 10110000
          -56 callsubr
          endchar
        </CharString>
        <CharString name="Eacute">
          -18 -3 24 -14 14 330 24 333 14 -14 24 60 133 hstemhm
          408 168 hintmask 00000110
          408 792 rmoveto
          22 callsubr
          hintmask 10100000
          -452 -797 rmoveto
          -60 callsubr
          hintmask 01100000
          -59 callsubr
          hintmask 10101000
          -58 callsubr
          hintmask 00110000
          -57 callsubr
          hintmask 10101000
          -56 callsubr
          endchar
        </CharString>
        <CharString name="Ecaron">
          -18 -3 24 -14 14 330 24 333 14 -14 24 65 130 hstemhm
          313.005004883 272 hintmask 00000110
          313.004882812 927 rmoveto
          59 callsubr
          81 -130 rmoveto
          21 hmoveto
          hintmask 10100000
          -334.004882812 -669 rmoveto
          -60 callsubr
          hintmask 01100000
          -59 callsubr
          hintmask 10101000
          -58 callsubr
          hintmask 00110000
          -57 callsubr
          hintmask 10101000
          -56 callsubr
          endchar
        </CharString>
        <CharString name="Ecircumflex">
          -18 -3 24 -14 14 330 24 333 14 -14 24 60 130 hstemhm
          294 272 hintmask 00000110
          294 792 rmoveto
          -31 callsubr
          hintmask 10100000
          -349 -794 rmoveto
          -60 callsubr
          hintmask 01100000
          -59 callsubr
          hintmask 10101000
          -58 callsubr
          hintmask 00110000
          -57 callsubr
          hintmask 10101000
          -56 callsubr
          endchar
        </CharString>
        <CharString name="Edieresis">
          -18 -3 24 -14 14 330 24 333 14 -14 24 93 35 hstemhm
          283 35 220 35 hintmask 00000111
          283 843 rmoveto
          13 callsubr
          255 hmoveto
          13 callsubr
          hintmask 10100000
          -440 -715 rmoveto
          -60 callsubr
          hintmask 01100000
          -59 callsubr
          hintmask 10101000
          -58 callsubr
          hintmask 00110000
          -57 callsubr
          hintmask 10101000
          -56 callsubr
          endchar
        </CharString>
        <CharString name="Edotaccent">
          -18 -3 24 -14 14 330 24 333 14 -14 24 65 86 hstemhm
          401.807998657 44.820602417 hintmask 00000100
          401.80859375 809 rmoveto
          71 callsubr
          hintmask 10100000
          -313.62890625 -743 rmoveto
          -60 callsubr
          hintmask 01100000
          -59 callsubr
          hintmask 10101000
          -58 callsubr
          hintmask 00110000
          -57 callsubr
          hintmask 10101000
          -56 callsubr
          endchar
        </CharString>
        <CharString name="Egrave">
          -18 -3 24 -14 14 330 24 333 14 -14 24 60 133 hstemhm
          310 126 hintmask 00000110
          310 925 rmoveto
          -30 callsubr
          hintmask 10100000
          -238 -797 rmoveto
          -60 callsubr
          hintmask 01100000
          -59 callsubr
          hintmask 10101000
          -58 callsubr
          hintmask 00110000
          -57 callsubr
          hintmask 10101000
          -56 callsubr
          endchar
        </CharString>
        <CharString name="Emacron">
          -18 -3 24 -14 14 330 24 333 14 -14 24 65 15 hstemhm
          301.591995239 254 hintmask 00000110
          301.591796875 797 rmoveto
          15 callsubr
          hintmask 10100000
          -205.591796875 -684 rmoveto
          -60 callsubr
          hintmask 01100000
          -59 callsubr
          hintmask 10101000
          -58 callsubr
          hintmask 00110000
          -57 callsubr
          hintmask 10101000
          -56 callsubr
          endchar
        </CharString>
        <CharString name="Eng">
          43 -257 18 260 -21 732 -20 hstem
          80 hmoveto
          25 0 108 684 312 -684 -13 -85 rlineto
          -24 -151 -53 7 -88 -10 rrcurveto
          -3 -18 rlineto
          118 0 50 21 24 152 rrcurveto
          13 84 116 732 -24 0 -108 -684 -312 684 -25 0 rlineto
          endchar
        </CharString>
        <CharString name="Eogonek">
          -18 -174.052001953 14 146.999801636 20 -9.94779968262 24 -14 14 330 24 333 14 -14 24 hstemhm
          hintmask 00000000
          490.314453125 6.947265625 rmoveto
          58 callsubr
          hintmask 00101000
          -404.314453125 121.052734375 rmoveto
          -60 callsubr
          hintmask 00011000
          -59 callsubr
          hintmask 00101010
          -58 callsubr
          hintmask 00001100
          -57 callsubr
          hintmask 00101010
          -56 callsubr
          endchar
        </CharString>
        <CharString name="Eth">
          107 0 24 342 14 328 24 hstem
          72 366 rmoveto
          32 callsubr
          33 -356 rmoveto
          33 callsubr
          endchar
        </CharString>
        <CharString name="Euro">
          149 -6 24 250 21 141 20 266 24 hstem
          70 272 rmoveto
          87 -4 rlineto
          -35 -240 154 -34 78 0 85 0 47 2 84 19 rrcurveto
          3 15 rlineto
          0 0 -112 -15 -109 3 -135 3 -62 98 26 149 -3 2 288 1 0 0 rrcurveto
          2 14 -283 4 22 141 285 3 2 14 -284 3 rlineto
          22 136 46 129 187 1 83 1 128 -11 0 0 rrcurveto
          2 14 rlineto
          -68 13 -92 7 -52 0 -244 0 -25 -218 -11 -72 rrcurveto
          -88 -4 -2 -13 87 -3 -22 -141 -89 -3 rlineto
          endchar
        </CharString>
        <CharString name="Euro.smcp">
          -90 -5 24 191 23 -17 10 107 9 211 24 hstemhm
          hintmask 10111000
          47 216 rmoveto
          hintmask 11011000
          67 -6 rlineto
          -24 -150 72 -65 111 0 65 0 57 10 66 18 rrcurveto
          2 12 rlineto
          0 -106 -16 -80 vhcurveto
          -131 0 -22 92 15 99 rrcurveto
          hintmask 10111000
          -2 2 188 4 0 0 rrcurveto
          2 12 rlineto
          hintmask 11011000
          -184 5 15 94 185 5 2 11 -184 6 rlineto
          14 90 42 114 144 0 rrcurveto
          64 116 -11 0 hvcurveto
          2 12 rlineto
          -53 10 -84 13 -41 0 -190 0 -30 -172 -9 -56 rrcurveto
          -69 -7 -1 -9 67 -6 -15 -94 rlineto
          hintmask 10111000
          -69 -7 rlineto
          endchar
        </CharString>
        <CharString name="F">
          -24 21 -21 351 24 333 24 -24 14 hstemhm
          hintmask 11100000
          80 hmoveto
          -55 callsubr
          hintmask 11010000
          299 0 2 14 rlineto
          hintmask 11100000
          -54 callsubr
          endchar
        </CharString>
        <CharString name="G">
          61 0 19 345 25 -25 14 338 24 hstemhm
          537 14 hintmask 11011000
          125 377 rmoveto
          -53 callsubr
          hintmask 10111000
          -52 callsubr
          endchar
        </CharString>
        <CharString name="Gbreve">
          61 0 19 345 14 -14 25 327 24 60 14 hstemhm
          314.731994629 14 202 14 -7.73199462891 14 hintmask 00001010
          314.732421875 914 rmoveto
          57 callsubr
          hintmask 10110001
          -203.732421875 -537 rmoveto
          -53 callsubr
          hintmask 11010001
          -52 callsubr
          endchar
        </CharString>
        <CharString name="Gcircumflex">
          61 0 19 345 14 -14 25 327 24 60 130 hstemhm
          275.667007446 272 -10.6670074463 14 hintmask 00001000
          275.666992188 800 rmoveto
          -31 callsubr
          hintmask 10110010
          -303.666992188 -553 rmoveto
          -53 callsubr
          hintmask 11010010
          -52 callsubr
          endchar
        </CharString>
        <CharString name="Gcommaaccent">
          61 -201.199996948 5.39999389648 195.800003052 19 345 14 -14 25 327 24 hstemhm
          294.207000732 49.1844940186 193.608505249 14 hintmask 10000000
          294.20703125 -201.200195312 rmoveto
          70 callsubr
          hintmask 01011010
          -170.061523438 572.799804688 rmoveto
          -53 callsubr
          hintmask 01101010
          -52 callsubr
          endchar
        </CharString>
        <CharString name="Gdotaccent">
          61 0 19 345 14 -14 25 327 24 60 86 hstemhm
          415.070007324 44.820602417 77.1093902588 14 hintmask 00001000
          415.0703125 812 rmoveto
          62 callsubr
          hintmask 10110010
          -299.890625 -497 rmoveto
          -53 callsubr
          hintmask 11010010
          -52 callsubr
          endchar
        </CharString>
        <CharString name="H">
          72 21 -21 342 24 366 -20 hstem
          85 hmoveto
          -51 callsubr
          endchar
        </CharString>
        <CharString name="Hbar">
          28 21 -21 342 24 171 15 180 -20 hstem
          85 hmoveto
          24 0 54 342 420 0 -54 -342 24 0 85 537 65 0 2 15 -65 0 29 180 -24 0 -29 -180 -420 0 29 180 -24 0 rlineto
          -29 -180 -65 0 -2 -15 65 0 rlineto
          -3 -171 rmoveto
          27 171 420 0 -27 -171 rlineto
          endchar
        </CharString>
        <CharString name="Hcircumflex">
          72 0 21 321 24 346 20 65 130 hstem
          319.458999634 272 vstem
          319.458984375 797 rmoveto
          -31 callsubr
          -387.458984375 -927 rmoveto
          -51 callsubr
          endchar
        </CharString>
        <CharString name="I">
          -387 21 -21 732 -20 hstem
          90 140 vstem
          90 hmoveto
          -50 callsubr
          endchar
        </CharString>
        <CharString name="Iacute">
          -387 0 21 691 20 65 133 hstemhm
          90 140 -8.54100036621 168 hintmask 00101000
          221.458984375 797 rmoveto
          22 callsubr
          hintmask 11010000
          -273.458984375 -930 rmoveto
          -50 callsubr
          endchar
        </CharString>
        <CharString name="Icircumflex">
          -387 0 21 691 20 65 130 hstemhm
          90 140 -137.541000366 272 hintmask 00101000
          92.458984375 797 rmoveto
          -31 callsubr
          hintmask 11010000
          -155.458984375 -927 rmoveto
          -50 callsubr
          endchar
        </CharString>
        <CharString name="Idieresis">
          -387 0 21 691 20 65 35 hstemhm
          86.3114929199 35 -31.3114929199 140 111.311004639 35 hintmask 00110000
          86.3115234375 815 rmoveto
          13 callsubr
          255 hmoveto
          13 callsubr
          hintmask 11001000
          -251.311523438 -815 rmoveto
          -50 callsubr
          endchar
        </CharString>
        <CharString name="Idotaccent">
          -387 0 21 691 20 65 86 hstemhm
          90 140 -17.1369934082 44.820602417 hintmask 00100000
          212.86328125 809 rmoveto
          62 callsubr
          hintmask 11010000
          -132.68359375 -871 rmoveto
          -50 callsubr
          endchar
        </CharString>
        <CharString name="Idotaccent.smcp">
          -378 21 -21 624 86 hstem
          157.79699707 44.820602417 vstem
          60 hmoveto
          94 callsubr
          7.796875 66 rmoveto
          71 callsubr
          endchar
        </CharString>
        <CharString name="Igrave">
          -387 0 21 691 20 65 133 hstemhm
          90 140 -120.541000366 126 hintmask 00101000
          109.458984375 930 rmoveto
          -30 callsubr
          hintmask 11010000
          -45.458984375 -930 rmoveto
          -50 callsubr
          endchar
        </CharString>
        <CharString name="Imacron">
          -387 0 21 691 20 65 15 hstemhm
          90 140 -127.352996826 254 hintmask 00100000
          102.647460938 797 rmoveto
          15 callsubr
          hintmask 11010000
          -14.6474609375 -812 rmoveto
          -50 callsubr
          endchar
        </CharString>
        <CharString name="Iogonek">
          -387 -180.92199707 14 147.000091553 20 -0.0780944824219 21 691 20 hstemhm
          90 140 hintmask 00000000
          97.3349609375 0.078125 rmoveto
          58 callsubr
          hintmask 00111000
          -19.3349609375 -0.078125 rmoveto
          -50 callsubr
          endchar
        </CharString>
        <CharString name="Itilde">
          -387 0 21 691 20 70 16 57 16 hstem
          109 140 vstem
          90 833 rmoveto
          11 callsubr
          19 -833 rmoveto
          -50 callsubr
          endchar
        </CharString>
        <CharString name="J">
          -260 21 14 697 -20 hstem
          38 21 rmoveto
          -49 callsubr
          endchar
        </CharString>
        <CharString name="Jcircumflex">
          -260 21 14 677 20 65 130 hstem
          247.458999634 272 vstem
          247.458984375 797 rmoveto
          -31 callsubr
          -362.458984375 -906 rmoveto
          -49 callsubr
          endchar
        </CharString>
        <CharString name="K">
          -51 21 -21 355 24 353 -20 hstem
          80 hmoveto
          -48 callsubr
          endchar
        </CharString>
        <CharString name="Kcommaaccent">
          -51 -196.199996948 5.39999389648 190.800003052 21 334 24 333 20 hstem
          252.207000732 49.1844940186 vstem
          hintmask 00000000
          252.20703125 -196.200195312 rmoveto
          70 callsubr
          -173.061523438 190.799804688 rmoveto
          -48 callsubr
          endchar
        </CharString>
        <CharString name="L">
          -32 0 24 708 -20 hstem
          99 126 rmoveto
          -47 callsubr
          endchar
        </CharString>
        <CharString name="Lacute">
          -32 0 24 688 20 65 133 hstem
          214.160995483 168 vstem
          214.161132812 797 rmoveto
          22 callsubr
          -257.161132812 -804 rmoveto
          -47 callsubr
          endchar
        </CharString>
        <CharString name="Lcaron">
          -32 0 24 708 -20 hstem
          285 12 vstem
          99 126 rmoveto
          -18 -113 68 -13 66 0 rrcurveto
          276 0 4 24 -276 0 rlineto
          -54 0 -57 10 15 92 rrcurveto
          96 606 -24 0 rlineto
          90 -161 rmoveto
          60 callsubr
          endchar
        </CharString>
        <CharString name="Lcommaaccent">
          -32 -196.199996948 5.39999389648 190.800003052 24 688 20 hstem
          258.207000732 49.1844940186 vstem
          hintmask 00000000
          258.20703125 -196.200195312 rmoveto
          70 callsubr
          -160.061523438 316.799804688 rmoveto
          -47 callsubr
          endchar
        </CharString>
        <CharString name="Lslash">
          -32 0 24 708 -20 hstem
          54 360 rmoveto
          89 36 -43 -270 rlineto
          -18 -113 71 -13 66 0 rrcurveto
          273 0 4 24 -276 0 rlineto
          -54 0 -57 10 15 92 rrcurveto
          44 281 128 52 4 20 -128 -52 48 305 -24 0 -50 -315 -89 -36 rlineto
          endchar
        </CharString>
        <CharString name="M">
          191 21 -21 732 -20 hstem
          707 25 7 25 vstem
          71 hmoveto
          -46 callsubr
          endchar
        </CharString>
        <CharString name="M.salt">
          233 21 -21 hstem
          55 hmoveto
          119 callsubr
          endchar
        </CharString>
        <CharString name="N">
          63 21 -21 732 -20 hstem
          80 hmoveto
          -45 callsubr
          endchar
        </CharString>
        <CharString name="N.salt">
          89 21 -21 732 -20 hstem
          80 hmoveto
          118 callsubr
          endchar
        </CharString>
        <CharString name="Nacute">
          63 0 21 691 20 65 133 hstem
          443.958999634 168 vstem
          443.958984375 797 rmoveto
          22 callsubr
          -505.958984375 -930 rmoveto
          -45 callsubr
          endchar
        </CharString>
        <CharString name="Nacute.salt">
          89 0 21 691 20 65 133 hstem
          447 168 vstem
          447 797 rmoveto
          22 callsubr
          -509 -930 rmoveto
          118 callsubr
          endchar
        </CharString>
        <CharString name="Ncaron">
          63 0 21 691 20 65 130 hstem
          335.559997559 272 vstem
          335.559570312 927 rmoveto
          59 callsubr
          81 -130 rmoveto
          21 hmoveto
          -374.559570312 -797 rmoveto
          -45 callsubr
          endchar
        </CharString>
        <CharString name="Ncaron.salt">
          89 0 21 691 20 65 130 hstem
          362 272 vstem
          362 927 rmoveto
          59 callsubr
          81 -130 rmoveto
          21 hmoveto
          -401 -797 rmoveto
          118 callsubr
          endchar
        </CharString>
        <CharString name="Ncommaaccent">
          63 -196.199996948 5.39999389648 190.800003052 21 691 20 hstem
          294.207000732 49.1844940186 vstem
          hintmask 00000000
          294.20703125 -196.200195312 rmoveto
          70 callsubr
          -215.061523438 190.799804688 rmoveto
          -45 callsubr
          endchar
        </CharString>
        <CharString name="Ncommaaccent.salt">
          89 -232.807006836 5.39999389648 227.407012939 21 691 20 hstem
          290.705993652 49.1844940186 vstem
          hintmask 00000000
          290.705078125 -232.806640625 rmoveto
          0 0 27.5185546875 -8.1005859375 5.701171875 36 rrcurveto
          15.96484375 100.799804688 rlineto
          1.140625 7.2001953125 -1.9873046875 4.5 -8.099609375 0 rrcurveto
          -9.0009765625 hlineto
          -7.19921875 0 -4.169921875 -3.599609375 -1.283203125 -8.1005859375 rrcurveto
          -8.837890625 -55.7998046875 rlineto
          -1.140625 -7.2001953125 3.787109375 -4.5 6.30078125 0 rrcurveto
          5.3994140625 0 -6.69921875 -42.2998046875 rlineto
          -0.85546875 -5.3994140625 -2.18359375 -8.1005859375 -13.5 0 rrcurveto
          -211.560546875 227.407226562 rmoveto
          118 callsubr
          endchar
        </CharString>
        <CharString name="Ntilde">
          63 0 21 691 20 65 16 57 16 hstem
          286.828125 828 rmoveto
          11 callsubr
          -206.828125 -828 rmoveto
          -45 callsubr
          endchar
        </CharString>
        <CharString name="Ntilde.salt">
          89 0 21 691 20 75 16 57 16 hstem
          283 838 rmoveto
          11 callsubr
          -203 -838 rmoveto
          118 callsubr
          endchar
        </CharString>
        <CharString name="O">
          105 -4 24 693 24 hstem
          118 368 rmoveto
          -44 callsubr
          24 -7 rmoveto
          -43 callsubr
          endchar
        </CharString>
        <CharString name="OE">
          446 -4 24 -13 14 330 24 333 14 -9 24 hstemhm
          hintmask 10100000
          117 368 rmoveto
          -53 -333 81 -39 180 0 126 0 85 17 57 120 -22 -111 67 -28 70 3 rrcurveto
          hintmask 01110000
          259 10 2 14 -257 0 rlineto
          -55 0 -56 10 15 92 rrcurveto
          36 228 330 5 2 14 -328 5 36 227 rlineto
          12 75 45 31 62 0 rrcurveto
          267 0 2 14 -265 10 rlineto
          -79 3 -61 -42 -10 -105 rrcurveto
          hintmask 10101000
          -18 130 -80 19 -121 0 rrcurveto
          -172 0 -103 -26 -54 -343 rrcurveto
          24 -7 rmoveto
          -43 callsubr
          endchar
        </CharString>
        <CharString name="Oacute">
          105 -4 24 693 24 60 133 hstem
          449.667007446 168 vstem
          449.666992188 797 rmoveto
          22 callsubr
          -473.666992188 -562 rmoveto
          -44 callsubr
          24 -7 rmoveto
          -43 callsubr
          endchar
        </CharString>
        <CharString name="Ocircumflex">
          105 -4 24 693 24 60 130 hstem
          320.667007446 272 vstem
          320.666992188 797 rmoveto
          -31 callsubr
          -355.666992188 -559 rmoveto
          -44 callsubr
          24 -7 rmoveto
          -43 callsubr
          endchar
        </CharString>
        <CharString name="Odieresis">
          105 -4 24 693 24 60 35 hstem
          314.518997192 35 220 35 vstem
          314.518554688 815 rmoveto
          13 callsubr
          255 hmoveto
          13 callsubr
          -451.518554688 -447 rmoveto
          -44 callsubr
          24 -7 rmoveto
          -43 callsubr
          endchar
        </CharString>
        <CharString name="Ograve">
          105 -4 24 693 24 60 133 hstem
          337.667007446 126 vstem
          337.666992188 930 rmoveto
          -30 callsubr
          -245.666992188 -562 rmoveto
          -44 callsubr
          24 -7 rmoveto
          -43 callsubr
          endchar
        </CharString>
        <CharString name="Ohungarumlaut">
          105 -4 24 693 24 60 133 hstem
          380.167007446 307 vstem
          380.166992188 797 rmoveto
          22 callsubr
          -3 -133 rmoveto
          22 callsubr
          -543.166992188 -562 rmoveto
          -44 callsubr
          24 -7 rmoveto
          -43 callsubr
          endchar
        </CharString>
        <CharString name="Omacron">
          105 -4 24 693 24 60 15 hstem
          330.854995728 254 vstem
          330.85546875 797 rmoveto
          15 callsubr
          -214.85546875 -444 rmoveto
          -44 callsubr
          24 -7 rmoveto
          -43 callsubr
          endchar
        </CharString>
        <CharString name="Omega">
          207 0 12 703 24 hstem
          71 hmoveto
          220 0 4 24 rlineto
          -130 116 -40 94 24 149 29 182 83 150 227 0 227 0 28 -157 -27 -173 -21 -132 -78 -135 -157 -94 rrcurveto
          -4 -24 228 0 2 12 -188 11 rlineto
          146 92 77 147 19 117 29 182 -32 178 -248 0 -262 0 -75 -185 -25 -154 -18 -111 0 -135 155 -130 rrcurveto
          -191 -12 rlineto
          endchar
        </CharString>
        <CharString name="Oslash">
          105 -4 24 693 24 hstem
          85 hmoveto
          18 0 38 47 rlineto
          37 -44 62 -7 86 0 180 0 97 35 51 323 26 163 -7 100 -33 53 rrcurveto
          50 62 -18 0 -40 -50 rlineto
          -38 47 -68 8 -84 0 -172 0 -98 -30 -54 -343 -25 -161 6 -93 33 -51 rrcurveto
          10 302 rmoveto
          53 337 99 15 148 0 79 0 60 -5 34 -46 rrcurveto
          -465 -582 rlineto
          -29 49 -2 86 23 146 rrcurveto
          16 -293 rmoveto
          465 581 rlineto
          27 -50 4 -88 -24 -150 -47 -296 -77 -45 -171 0 -84 0 -61 8 -32 40 rrcurveto
          endchar
        </CharString>
        <CharString name="Otilde">
          105 -4 24 693 24 60 16 57 16 hstem
          292.536132812 828 rmoveto
          11 callsubr
          -174.536132812 -460 rmoveto
          -44 callsubr
          24 -7 rmoveto
          -43 callsubr
          endchar
        </CharString>
        <CharString name="P">
          5 21 -21 323 24 -14 14 360 25 hstemhm
          hintmask 10110000
          75 hmoveto
          -42 callsubr
          hintmask 11010000
          -41 callsubr
          hintmask 10110000
          -37 -385 rmoveto
          -40 callsubr
          hintmask 11010000
          -23 -159 -78 -27 -79 0 rrcurveto
          endchar
        </CharString>
        <CharString name="Q">
          111 -4 24 693 24 hstem
          319 14 vstem
          122 368 rmoveto
          -44 callsubr
          24 -7 rmoveto
          -43 callsubr
          173 -394 rmoveto
          5 -94 95 -20 76 27 rrcurveto
          4 24 rlineto
          -63 -20 -86 1 -17 82 rrcurveto
          endchar
        </CharString>
        <CharString name="R">
          33 21 -21 323 24 -14 14 360 25 hstemhm
          hintmask 10110000
          75 hmoveto
          -42 callsubr
          hintmask 11010000
          -39 callsubr
          hintmask 10110000
          -37 -385 rmoveto
          -38 callsubr
          endchar
        </CharString>
        <CharString name="Racute">
          33 0 21 302 24 -14 14 360 25 65 133 hstemhm
          402.458999634 168 hintmask 00001100
          402.458984375 797 rmoveto
          22 callsubr
          hintmask 10110000
          -469.458984375 -930 rmoveto
          -42 callsubr
          hintmask 11010000
          -39 callsubr
          hintmask 10110000
          -37 -385 rmoveto
          -38 callsubr
          endchar
        </CharString>
        <CharString name="Rcaron">
          33 0 21 302 24 -14 14 360 25 65 130 hstemhm
          294.059997559 272 hintmask 00001100
          294.059570312 927 rmoveto
          59 callsubr
          81 -130 rmoveto
          21 hmoveto
          hintmask 10110000
          -338.059570312 -797 rmoveto
          -42 callsubr
          hintmask 11010000
          -39 callsubr
          hintmask 10110000
          -37 -385 rmoveto
          -38 callsubr
          endchar
        </CharString>
        <CharString name="Rcommaaccent">
          33 -196.199996948 5.39999389648 190.800003052 21 302 24 -14 14 360 25 hstemhm
          265.207000732 49.1844940186 hintmask 10000000
          265.20703125 -196.200195312 rmoveto
          70 callsubr
          hintmask 01011000
          -191.061523438 190.799804688 rmoveto
          -42 callsubr
          hintmask 01101000
          -39 callsubr
          hintmask 01011000
          -37 -385 rmoveto
          -38 callsubr
          endchar
        </CharString>
        <CharString name="S">
          -14 -8 24 331 24 343 24 hstem
          79 7 rmoveto
          -37 callsubr
          endchar
        </CharString>
        <CharString name="Sacute">
          -14 -8 24 331 24 343 24 60 133 hstem
          402.667007446 168 vstem
          402.666992188 798 rmoveto
          22 callsubr
          -465.666992188 -924 rmoveto
          -37 callsubr
          endchar
        </CharString>
        <CharString name="Scaron">
          -14 -8 24 331 24 343 24 60 130 hstem
          297.268005371 272 vstem
          297.267578125 928 rmoveto
          59 callsubr
          81 -130 rmoveto
          21 hmoveto
          -337.267578125 -791 rmoveto
          -37 callsubr
          endchar
        </CharString>
        <CharString name="Scedilla">
          -14 -181 7 166 24 331 24 343 24 hstem
          303 17 vstem
          166 -181 rmoveto
          24 callsubr
          -88 181 rmoveto
          -37 callsubr
          endchar
        </CharString>
        <CharString name="Scircumflex">
          -14 -8 24 331 24 343 24 60 130 hstem
          243.667007446 272 vstem
          243.666992188 798 rmoveto
          -31 callsubr
          -317.666992188 -921 rmoveto
          -37 callsubr
          endchar
        </CharString>
        <CharString name="T">
          52 21 -21 708 24 hstem
          139 708 rmoveto
          -36 callsubr
          endchar
        </CharString>
        <CharString name="Tbar">
          12 21 -21 410 14 284 24 hstem
          139 708 rmoveto
          234 0 -45 -284 -130 0 -2 -14 130 0 -65 -410 24 0 65 410 130 0 2 14 -130 0 45 284 240 0 4 24 -498 0 rlineto
          endchar
        </CharString>
        <CharString name="Tcaron">
          52 0 21 687 24 65 130 hstem
          307.059997559 272 vstem
          307.059570312 927 rmoveto
          59 callsubr
          81 -130 rmoveto
          21 hmoveto
          -287.059570312 -89 rmoveto
          -36 callsubr
          endchar
        </CharString>
        <CharString name="Tcommaaccent">
          52 -185 7 178 21 687 24 hstem
          276 17 vstem
          139 -185 rmoveto
          24 callsubr
          -2 886 rmoveto
          -36 callsubr
          endchar
        </CharString>
        <CharString name="Thorn">
          -26 21 -21 149 24 -14 14 391 24 hstemhm
          hintmask 10110000
          60 hmoveto
          24 0 25 159 rlineto
          hintmask 11010000
          34 -5 142 -4 40 -1 74 0 106 18 32 204 28 179 -92 38 -79 0 rrcurveto
          -217 0 22 141 -24 0 rlineto
          -38 -243 -39 -243 -38 -243 rrcurveto
          hintmask 10110000
          51 173 rmoveto
          62 391 217 0 rlineto
          66 -1 83 -23 -26 -163 rrcurveto
          hintmask 11010000
          -25 -157 -66 -47 -94 0 rrcurveto
          endchar
        </CharString>
        <CharString name="U">
          102 -5 24 713 -20 hstem
          131 320 rmoveto
          -35 callsubr
          endchar
        </CharString>
        <CharString name="Uacute">
          102 -5 24 693 20 65 133 hstem
          452.958999634 168 vstem
          452.958984375 797 rmoveto
          22 callsubr
          -463.958984375 -610 rmoveto
          -35 callsubr
          endchar
        </CharString>
        <CharString name="Ubreve">
          102 -5 24 693 20 65 14 hstem
          363.024993896 14 202 14 vstem
          363.025390625 911 rmoveto
          57 callsubr
          -246.025390625 -591 rmoveto
          -35 callsubr
          endchar
        </CharString>
        <CharString name="Ucircumflex">
          102 -5 24 693 20 65 130 hstem
          323.958999634 272 vstem
          323.958984375 797 rmoveto
          -31 callsubr
          -345.958984375 -607 rmoveto
          -35 callsubr
          endchar
        </CharString>
        <CharString name="Udieresis">
          102 -5 24 693 20 65 35 hstem
          317.811004639 35 220 35 vstem
          317.810546875 815 rmoveto
          13 callsubr
          255 hmoveto
          13 callsubr
          -441.810546875 -495 rmoveto
          -35 callsubr
          endchar
        </CharString>
        <CharString name="Ugrave">
          102 -5 24 693 20 65 133 hstem
          340.958999634 126 vstem
          340.958984375 930 rmoveto
          -30 callsubr
          -235.958984375 -610 rmoveto
          -35 callsubr
          endchar
        </CharString>
        <CharString name="Uhungarumlaut">
          102 -5 24 693 20 65 133 hstem
          383.458999634 307 vstem
          383.458984375 797 rmoveto
          22 callsubr
          -3 -133 rmoveto
          22 callsubr
          -533.458984375 -610 rmoveto
          -35 callsubr
          endchar
        </CharString>
        <CharString name="Umacron">
          102 -5 24 693 20 65 15 hstem
          334.147994995 254 vstem
          334.1484375 797 rmoveto
          15 callsubr
          -205.1484375 -492 rmoveto
          -35 callsubr
          endchar
        </CharString>
        <CharString name="Uogonek">
          102 -184.923995972 14 146.999801636 20 -1.07580566406 24 693 20 hstemhm
          hintmask 00000000
          338.334960938 -3.923828125 rmoveto
          58 callsubr
          hintmask 00110000
          -219.334960938 323.923828125 rmoveto
          -35 callsubr
          endchar
        </CharString>
        <CharString name="Uring">
          102 -5 24 693 20 65 15 175 15 hstem
          374.623001099 203 vstem
          374.623046875 899 rmoveto
          30 callsubr
          15 hmoveto
          31 callsubr
          -258.623046875 -579 rmoveto
          -35 callsubr
          endchar
        </CharString>
        <CharString name="Utilde">
          102 -5 24 693 20 65 16 57 16 hstem
          295.828125 828 rmoveto
          11 callsubr
          -164.828125 -508 rmoveto
          -35 callsubr
          endchar
        </CharString>
        <CharString name="V">
          89 21 -21 732 -20 hstem
          150 732 rmoveto
          146 -732 34 0 390 732 -27 0 -377 -706 -141 706 rlineto
          endchar
        </CharString>
        <CharString name="W">
          401 21 -21 732 -20 hstem
          150 732 rmoveto
          -34 callsubr
          endchar
        </CharString>
        <CharString name="Wacute">
          401 0 21 691 20 65 133 hstem
          594.458999634 168 vstem
          594.458984375 797 rmoveto
          22 callsubr
          -586.458984375 -198 rmoveto
          -34 callsubr
          endchar
        </CharString>
        <CharString name="Wcircumflex">
          401 0 21 691 20 65 130 hstem
          465.458999634 272 vstem
          465.458984375 797 rmoveto
          -31 callsubr
          -468.458984375 -195 rmoveto
          -34 callsubr
          endchar
        </CharString>
        <CharString name="Wdieresis">
          401 0 21 691 20 65 35 hstem
          459.311004639 35 220 35 vstem
          459.310546875 815 rmoveto
          13 callsubr
          255 hmoveto
          13 callsubr
          -564.310546875 -83 rmoveto
          -34 callsubr
          endchar
        </CharString>
        <CharString name="Wgrave">
          401 0 21 691 20 65 133 hstem
          482.458999634 126 vstem
          482.458984375 930 rmoveto
          -30 callsubr
          -358.458984375 -198 rmoveto
          -34 callsubr
          endchar
        </CharString>
        <CharString name="X">
          -37 21 -21 732 -20 hstem
          38 hmoveto
          31 0 257 339 152 -339 28 0 -163 363 284 369 -31 0 -265 -344 -152 344 -28 0 162 -367 rlineto
          endchar
        </CharString>
        <CharString name="X.salt">
          -29 21 -21 732 -20 hstem
          20 hmoveto
          32 0 248 280 rlineto
          56 63 -9 80 -36 60 rrcurveto
          -146 249 -28 0 150 -257 rlineto
          34 -58 10 -64 -51 -58 rrcurveto
          102 -7 rmoveto
          160 -288 30 0 -166 295 rlineto
          -32 58 26 67 55 56 rrcurveto
          233 256 -32 0 -221 -241 rlineto
          -54 -59 -38 -83 39 -61 rrcurveto
          endchar
        </CharString>
        <CharString name="Y">
          49 21 -21 732 -20 hstem
          150 732 rmoveto
          -33 callsubr
          endchar
        </CharString>
        <CharString name="Yacute">
          49 0 21 691 20 65 133 hstem
          418.458999634 168 vstem
          418.458984375 797 rmoveto
          22 callsubr
          -410.458984375 -198 rmoveto
          -33 callsubr
          endchar
        </CharString>
        <CharString name="Ycircumflex">
          49 0 21 691 20 65 130 hstem
          289.458999634 272 vstem
          289.458984375 797 rmoveto
          -31 callsubr
          -292.458984375 -195 rmoveto
          -33 callsubr
          endchar
        </CharString>
        <CharString name="Ydieresis">
          49 0 21 691 20 65 35 hstem
          283.311004639 35 220 35 vstem
          283.310546875 815 rmoveto
          13 callsubr
          255 hmoveto
          13 callsubr
          -388.310546875 -83 rmoveto
          -33 callsubr
          endchar
        </CharString>
        <CharString name="Ygrave">
          49 0 21 691 20 65 133 hstem
          306.458999634 126 vstem
          306.458984375 930 rmoveto
          -30 callsubr
          -182.458984375 -198 rmoveto
          -33 callsubr
          endchar
        </CharString>
        <CharString name="Z">
          -72 0 24 684 24 hstem
          35 hmoveto
          -32 callsubr
          endchar
        </CharString>
        <CharString name="Zacute">
          -72 0 24 684 24 65 133 hstem
          385.958999634 168 vstem
          385.958984375 797 rmoveto
          22 callsubr
          -492.958984375 -930 rmoveto
          -32 callsubr
          endchar
        </CharString>
        <CharString name="Zcaron">
          -72 0 24 684 24 65 130 hstem
          277.559997559 272 vstem
          277.559570312 927 rmoveto
          59 callsubr
          81 -130 rmoveto
          21 hmoveto
          -361.559570312 -797 rmoveto
          -32 callsubr
          endchar
        </CharString>
        <CharString name="Zdotaccent">
          -72 0 24 684 24 46 86 hstem
          345.089004517 44.820602417 vstem
          345.08984375 790 rmoveto
          61 callsubr
          -319.91015625 -852 rmoveto
          -32 callsubr
          endchar
        </CharString>
        <CharString name="a">
          -34 -7 23 5 -21 hstemhm
          453 13 hintmask 10100000
          90 279 rmoveto
          -29 callsubr
          hintmask 01100000
          -28 callsubr
          19 -33 rmoveto
          -27 callsubr
          hintmask 10100000
          -26 callsubr
          endchar
        </CharString>
        <CharString name="a.salt">
          -24 -12 24 499 24 hstem
          89 259 rmoveto
          123 callsubr
          24 -2 rmoveto
          124 callsubr
          endchar
        </CharString>
        <CharString name="a.smcp">
          -15 21 -21 182 24 hstem
          45 hmoveto
          75 callsubr
          -184 -364 rmoveto
          76 callsubr
          endchar
        </CharString>
        <CharString name="a.superior">
          -165 364 20 hstem
          374 13 vstem
          116 553 rmoveto
          -23 -153 50 -36 75 0 62 0 77 40 20 19 rrcurveto
          -3 -54 13 0 52 322 rlineto
          -34 33 -89 14 -50 -3 -53 -3 -74 -29 -23 -150 rrcurveto
          18 -4 rmoveto
          18 117 50 50 74 0 58 0 52 -12 34 -16 rrcurveto
          -41 -251 rlineto
          -45 -30 -70 -23 -48 0 -58 0 -45 25 21 140 rrcurveto
          endchar
        </CharString>
        <CharString name="aacute">
          -34 -7 23 -16 21 581.972000122 133 hstemhm
          345.416000366 168 -60.4160003662 13 hintmask 00010000
          345.416015625 602.971679688 rmoveto
          22 callsubr
          hintmask 10001000
          -397.416015625 -456.971679688 rmoveto
          -29 callsubr
          hintmask 01001000
          -28 callsubr
          19 -33 rmoveto
          -27 callsubr
          hintmask 10001000
          -26 callsubr
          endchar
        </CharString>
        <CharString name="aacute.salt">
          -24 -12 24 499 24 61 133 hstem
          359.824996948 168 vstem
          359.825195312 596 rmoveto
          22 callsubr
          -412.825195312 -470 rmoveto
          123 callsubr
          24 -2 rmoveto
          124 callsubr
          endchar
        </CharString>
        <CharString name="aacute.smcp">
          -15 0 21 161 24 424 133 hstem
          390.667007446 168 vstem
          390.666992188 630 rmoveto
          22 callsubr
          -487.666992188 -763 rmoveto
          75 callsubr
          -184 -364 rmoveto
          76 callsubr
          endchar
        </CharString>
        <CharString name="abreve">
          -34 -7 23 -16 21 581.972000122 14 hstemhm
          255.481994629 14 183.518005371 13 5.48199462891 14 hintmask 00010000
          255.482421875 716.971679688 rmoveto
          57 callsubr
          hintmask 10001000
          -179.482421875 -437.971679688 rmoveto
          -29 callsubr
          hintmask 01001000
          -28 callsubr
          19 -33 rmoveto
          -27 callsubr
          hintmask 10001000
          -26 callsubr
          endchar
        </CharString>
        <CharString name="abreve.salt">
          -24 -12 24 499 24 61 14 hstem
          269.89100647 14 202 14 vstem
          269.890625 710 rmoveto
          57 callsubr
          -194.890625 -451 rmoveto
          123 callsubr
          24 -2 rmoveto
          124 callsubr
          endchar
        </CharString>
        <CharString name="abreve.smcp">
          -15 0 21 161 24 424 14 hstem
          300.731994629 14 202 14 vstem
          300.732421875 744 rmoveto
          57 callsubr
          -269.732421875 -744 rmoveto
          75 callsubr
          -184 -364 rmoveto
          76 callsubr
          endchar
        </CharString>
        <CharString name="acircumflex">
          -34 -7 23 -16 21 581.972000122 130 hstemhm
          216.416000366 272 -35.4160003662 13 hintmask 00010000
          216.416015625 602.971679688 rmoveto
          -31 callsubr
          hintmask 10001000
          -279.416015625 -453.971679688 rmoveto
          -29 callsubr
          hintmask 01001000
          -28 callsubr
          19 -33 rmoveto
          -27 callsubr
          hintmask 10001000
          -26 callsubr
          endchar
        </CharString>
        <CharString name="acircumflex.salt">
          -24 -12 24 499 24 61 130 hstem
          230.824996948 272 vstem
          230.825195312 596 rmoveto
          -31 callsubr
          -294.825195312 -467 rmoveto
          123 callsubr
          24 -2 rmoveto
          124 callsubr
          endchar
        </CharString>
        <CharString name="acircumflex.smcp">
          -15 0 21 161 24 424 130 hstem
          261.667007446 272 vstem
          261.666992188 630 rmoveto
          -31 callsubr
          -369.666992188 -760 rmoveto
          75 callsubr
          -184 -364 rmoveto
          76 callsubr
          endchar
        </CharString>
        <CharString name="acute">
          -382 531 133 hstem
          104 168 vstem
          104 531 rmoveto
          22 callsubr
          endchar
        </CharString>
        <CharString name="acute.smcp">
          -382 531 133 hstem
          104 168 vstem
          104 531 rmoveto
          22 callsubr
          endchar
        </CharString>
        <CharString name="adieresis">
          -34 -7 23 -16 21 581.972000122 35 hstemhm
          210.268997192 35 207.731002808 13 -0.731002807617 35 hintmask 00000000
          210.268554688 620.971679688 rmoveto
          13 callsubr
          255 hmoveto
          13 callsubr
          hintmask 10001000
          -375.268554688 -341.971679688 rmoveto
          -29 callsubr
          hintmask 01001000
          -28 callsubr
          19 -33 rmoveto
          -27 callsubr
          hintmask 10001000
          -26 callsubr
          endchar
        </CharString>
        <CharString name="adieresis.salt">
          -24 -12 24 499 24 61 35 hstem
          204.677993774 35 220 35 vstem
          204.677734375 614 rmoveto
          13 callsubr
          255 hmoveto
          13 callsubr
          -370.677734375 -355 rmoveto
          123 callsubr
          24 -2 rmoveto
          124 callsubr
          endchar
        </CharString>
        <CharString name="adieresis.smcp">
          -15 0 21 161 24 424 35 hstem
          255.518997192 35 220 35 vstem
          255.518554688 648 rmoveto
          13 callsubr
          255 hmoveto
          13 callsubr
          -465.518554688 -648 rmoveto
          75 callsubr
          -184 -364 rmoveto
          76 callsubr
          endchar
        </CharString>
        <CharString name="ae">
          384 -7 23 501 24 hstem
          50 279 rmoveto
          -41 -234 83 -52 114 0 99 0 84 54 51 27 18 -55 41 -26 69 0 83 0 66 6 84 23 rrcurveto
          3 16 rlineto
          -78 -11 -81 -11 -77 1 -107 2 -21 75 20 153 37 -15 356 -63 28 219 15 116 -77 37 -126 0 -92 0 -55 -24 -36 -42 -57 44 -115 30 -66 -8 rrcurveto
          -82 -10 -100 -24 -40 -228 rrcurveto
          19 -33 rmoveto
          30 192 53 63 117 16 97 13 90 -46 42 -23 -28 -48 -16 -60 -13 -75 -13 -78 -3 -62 10 -46 -67 -29 -86 -47 -84 0 -110 0 -42 82 23 148 rrcurveto
          393 15 rmoveto
          29 151 16 105 193 0 104 0 65 -31 -13 -98 -25 -196 -369 69 0 0 rrcurveto
          endchar
        </CharString>
        <CharString name="ae.smcp">
          241 -7 24 -13 13 193 24 33 26 250 23 -23 14 hstemhm
          hintmask 10110000
          45 hmoveto
          31 0 175 210 208 0 -21 -132 rlineto
          -9 -56 30 -29 50 0 rrcurveto
          hintmask 01110000
          279 11 2 13 rlineto
          hintmask 10111000
          -277 hlineto
          -12 0 -47 4 9 59 rrcurveto
          30 187 306 6 3 14 -305 6 29 184 rlineto
          9 54 14 12 69 0 rrcurveto
          hintmask 00110100
          255 0 2 14 rlineto
          hintmask 10111000
          -255 9 rlineto
          -96 -5 -17 -9 -59 -70 rrcurveto
          -178 -248 rmoveto
          238 282 -45 -282 rlineto
          endchar
        </CharString>
        <CharString name="afii61289">
          -173 -1 13 hstem
          69 248 rmoveto
          5 -12 rlineto
          11 5 32 18 13 14 rrcurveto
          -14 -85 rlineto
          -22 -141 37 -48 77 0 rrcurveto
          69 0 2 13 rlineto
          -7 -66 11 0 hvcurveto
          -53 8 -34 22 21 135 rrcurveto
          17 106 rlineto
          114 90 126 111 20 103 15 75 -40 66 -80 0 -61 0 -52 -40 -12 -67 rrcurveto
          -52 -328 rlineto
          -22 -20 -22 -19 -22 -17 rrcurveto
          93 78 rmoveto
          48 300 rlineto
          18 111 157 6 8 -103 10 -128 -167 -122 -74 -64 rrcurveto
          endchar
        </CharString>
        <CharString name="afii61352">
          493 21 -21 381 18 315 21 hstem
          789 18 vstem
          72 hmoveto
          25 0 102 645 rlineto
          12 74 91 21 16 -72 rrcurveto
          135 -616 rlineto
          21 -96 131 31 14 88 rrcurveto
          78 495 rlineto
          11 70 25 74 79 0 rrcurveto
          188 hlineto
          61 0 54 -14 -23 -147 -16 -102 -40 -52 -79 0 rrcurveto
          -70 hlineto
          -86 0 -20 50 26 166 rrcurveto
          -18 hlineto
          -28 -176 24 -58 103 0 rrcurveto
          65 hlineto
          103 0 37 65 17 107 19 121 -27 61 -102 0 rrcurveto
          -183 hlineto
          -86 0 -39 -45 -19 -122 -28 -177 -48 -305 0 0 -17 -77 -90 -14 -13 62 rrcurveto
          -135 621 rlineto
          -18 88 -133 -14 -16 -102 rrcurveto
          endchar
        </CharString>
        <CharString name="agrave">
          -34 -7 23 -16 21 581.972000122 133 hstemhm
          233.416000366 126 93.5839996338 13 hintmask 00010000
          233.416015625 735.971679688 rmoveto
          -30 callsubr
          hintmask 10001000
          -169.416015625 -456.971679688 rmoveto
          -29 callsubr
          hintmask 01001000
          -28 callsubr
          19 -33 rmoveto
          -27 callsubr
          hintmask 10001000
          -26 callsubr
          endchar
        </CharString>
        <CharString name="agrave.salt">
          -24 -12 24 499 24 61 133 hstem
          227.824996948 126 vstem
          227.825195312 729 rmoveto
          -30 callsubr
          -164.825195312 -470 rmoveto
          123 callsubr
          24 -2 rmoveto
          124 callsubr
          endchar
        </CharString>
        <CharString name="agrave.smcp">
          -15 0 21 161 24 424 133 hstem
          278.667007446 126 vstem
          278.666992188 763 rmoveto
          -30 callsubr
          -259.666992188 -763 rmoveto
          75 callsubr
          -184 -364 rmoveto
          76 callsubr
          endchar
        </CharString>
        <CharString name="amacron">
          -34 -7 23 -16 21 581.972000122 15 hstemhm
          226.604995728 254 -27.6049957275 13 hintmask 00000000
          226.604492188 602.971679688 rmoveto
          15 callsubr
          hintmask 10001000
          -138.604492188 -338.971679688 rmoveto
          -29 callsubr
          hintmask 01001000
          -28 callsubr
          19 -33 rmoveto
          -27 callsubr
          hintmask 10001000
          -26 callsubr
          endchar
        </CharString>
        <CharString name="amacron.salt">
          -24 -12 24 499 24 61 15 hstem
          221.014007568 254 vstem
          221.013671875 596 rmoveto
          15 callsubr
          -134.013671875 -352 rmoveto
          123 callsubr
          24 -2 rmoveto
          124 callsubr
          endchar
        </CharString>
        <CharString name="amacron.smcp">
          -15 0 21 161 24 424 15 hstem
          271.854995728 254 vstem
          271.85546875 630 rmoveto
          15 callsubr
          -228.85546875 -645 rmoveto
          75 callsubr
          -184 -364 rmoveto
          76 callsubr
          endchar
        </CharString>
        <CharString name="ampersand">
          109 21 -21 710 14 hstem
          91 82 rmoveto
          65 -105 136 -3 86 70 rrcurveto
          82 67 68 -111 24 0 -74 125 94 78 82 84 -7 8 -182 -151 -227 394 rlineto
          -64 112 68 60 130 0 rrcurveto
          213 0 2 14 rlineto
          -71 6 -157 9 -60 -13 -81 -18 -67 -65 69 -119 rrcurveto
          49 -85 -97 -73 rlineto
          -99 -74 -44 -110 62 -100 rrcurveto
          18 15 rmoveto
          -52 88 33 92 102 76 rrcurveto
          89 66 166 -289 -86 -70 rlineto
          -87 -71 -116 25 -49 83 rrcurveto
          endchar
        </CharString>
        <CharString name="ampersand.salt">
          348 0 24 154 24 166 24 116 24 -14 14 hstemhm
          213 24 596 14 hintmask 11110110
          89 288 rmoveto
          -15 -95 78 -15 61 0 -21 -159 74 -19 111 0 rrcurveto
          133 hlineto
          103 0 129 17 27 170 rrcurveto
          51 321 rlineto
          hintmask 11101110
          157 10 2 14 rlineto
          hintmask 11110110
          -155 0 23 148 -14 0 rlineto
          hintmask 11101110
          -33 -148 rlineto
          hintmask 11110110
          -458 hlineto
          -134 0 -84 -15 -21 -137 rrcurveto
          10 -94 rmoveto
          13 86 rlineto
          17 119 63 15 130 2 rrcurveto
          460 0 -51 -321 rlineto
          -22 -141 -114 -22 -107 0 rrcurveto
          -126 hlineto
          -106 0 -51 20 18 134 rrcurveto
          252 hlineto
          85 0 44 7 16 98 17 108 -66 1 -61 0 rrcurveto
          -129 hlineto
          -111 0 -45 -63 -23 -127 -54 0 -61 9 12 75 rrcurveto
          128 -84 rmoveto
          21 134 57 32 72 0 rrcurveto
          129 hlineto
          75 0 26 -10 -11 -72 -11 -72 -27 -12 -79 0 rrcurveto
          endchar
        </CharString>
        <CharString name="ampersand.smcp">
          -3 21 -21 551 12 hstem
          78 64 rmoveto
          48 -87 107 -1 72 58 rrcurveto
          66 52 52 -86 27 0 -61 102 41 36 82 87 -5 8 -129 -109 -170 287 rlineto
          -38 65 22 75 117 0 rrcurveto
          158 0 2 12 rlineto
          -123 12 -63 -1 -28 -5 -65 -12 -55 -69 51 -89 rrcurveto
          34 -59 -75 -55 rlineto
          -86 -63 -27 -80 46 -78 rrcurveto
          22 12 rmoveto
          -38 67 21 69 79 56 rrcurveto
          70 50 126 -209 -68 -56 rlineto
          -65 -54 -87 10 -38 67 rrcurveto
          endchar
        </CharString>
        <CharString name="aogonek">
          -34 -180.92199707 14 147.000091553 20 -7.07809448242 23 -16 21 hstemhm
          453 13 hintmask 00000000
          454.067382812 0.078125 rmoveto
          58 callsubr
          hintmask 00101000
          -376.067382812 278.921875 rmoveto
          -29 callsubr
          hintmask 00011000
          -28 callsubr
          19 -33 rmoveto
          -27 callsubr
          hintmask 00101000
          -26 callsubr
          endchar
        </CharString>
        <CharString name="aogonek.salt">
          140 -180 14 147 20 -13 24 499 24 hstemhm
          hintmask 11000000
          460 1 rmoveto
          58 callsubr
          hintmask 00110000
          -383 258 rmoveto
          123 callsubr
          24 -2 rmoveto
          124 callsubr
          endchar
        </CharString>
        <CharString name="aogonek.smcp">
          20 -180.92199707 14 147.000091553 20 -0.0780944824219 21 161 24 hstemhm
          hintmask 00000000
          509.067382812 0.078125 rmoveto
          58 callsubr
          hintmask 00110000
          -476.067382812 -0.078125 rmoveto
          75 callsubr
          -184 -364 rmoveto
          76 callsubr
          endchar
        </CharString>
        <CharString name="approxequal">
          -106 220 16 57 16 87 16 57 16 hstem
          89 251 rmoveto
          11 callsubr
          28 176 rmoveto
          4 -8 rlineto
          40 26 31 24 38 0 33 0 40 -73 42 0 42 0 34 29 39 33 rrcurveto
          -5 7 rlineto
          -26 -19 -43 -34 -39 0 -32 0 -44 73 -39 0 -39 0 -37 -28 -39 -30 rrcurveto
          endchar
        </CharString>
        <CharString name="aring">
          -34 -7 23 -16 21 581.972000122 15 175 15 hstemhm
          267.080001831 203 -17.0800018311 13 hintmask 00001000
          267.080078125 704.971679688 rmoveto
          30 callsubr
          15 hmoveto
          31 callsubr
          hintmask 10000100
          -192.080078125 -425.971679688 rmoveto
          -29 callsubr
          hintmask 01000100
          -28 callsubr
          19 -33 rmoveto
          -27 callsubr
          hintmask 10000100
          -26 callsubr
          endchar
        </CharString>
        <CharString name="aring.salt">
          -24 -12 24 499 24 61 15 175 15 hstem
          281.488998413 203 vstem
          281.489257812 698 rmoveto
          30 callsubr
          15 hmoveto
          31 callsubr
          -207.489257812 -439 rmoveto
          123 callsubr
          24 -2 rmoveto
          124 callsubr
          endchar
        </CharString>
        <CharString name="aring.smcp">
          -15 0 21 161 24 364 15 175 15 hstem
          302.330993652 203 vstem
          302.331054688 672 rmoveto
          30 callsubr
          15 hmoveto
          31 callsubr
          -272.331054688 -672 rmoveto
          75 callsubr
          -184 -364 rmoveto
          76 callsubr
          endchar
        </CharString>
        <CharString name="asciicircum">
          -152 531 130 hstem
          134 272 vstem
          134 531 rmoveto
          -31 callsubr
          endchar
        </CharString>
        <CharString name="asciitilde">
          -91 541 16 57 16 hstem
          140 572 rmoveto
          11 callsubr
          endchar
        </CharString>
        <CharString name="asterisk">
          -96 592 14 hstem
          139 592 rmoveto
          142 -6 3 24 -143 -4 rlineto
          50 -197 rmoveto
          12 -4 67 134 -25 4 rlineto
          50 -48 rmoveto
          111 -71 10 11 -105 83 rlineto
          -13 205 rmoveto
          36 -130 25 11 -47 123 rlineto
          36 -175 rmoveto
          15 -19 117 90 -7 12 rlineto
          endchar
        </CharString>
        <CharString name="asterisk.smcp">
          -97 452 14 hstem
          114 452 rmoveto
          142 -6 3 24 -143 -4 rlineto
          50 -197 rmoveto
          12 -4 67 134 -25 4 rlineto
          50 -48 rmoveto
          111 -71 10 11 -105 83 rlineto
          -13 205 rmoveto
          36 -130 25 11 -47 123 rlineto
          36 -175 rmoveto
          15 -19 117 90 -7 12 rlineto
          endchar
        </CharString>
        <CharString name="at">
          322 -179 24 -14 14 151 24 -17 23 649 24 hstemhm
          hintmask 10001000
          64 9 rmoveto
          -75 callsubr
          hintmask 01001000
          -74 callsubr
          hintmask 10011000
          -73 callsubr
          hintmask 00101000
          -72 callsubr
          hintmask 10011000
          -71 callsubr
          135 -267 rmoveto
          -70 callsubr
          hintmask 00101000
          -69 callsubr
          endchar
        </CharString>
        <CharString name="at.alt">
          158 -89 24 -14 14 151 24 -17 23 649 24 hstemhm
          hintmask 10001000
          76 99 rmoveto
          -75 callsubr
          hintmask 01001000
          -74 callsubr
          hintmask 10011000
          -73 callsubr
          hintmask 00101000
          -72 callsubr
          hintmask 10011000
          -71 callsubr
          135 -267 rmoveto
          -70 callsubr
          hintmask 00101000
          -69 callsubr
          endchar
        </CharString>
        <CharString name="at.smcp">
          323 -139 24 -14 14 151 24 -17 23 649 24 hstemhm
          hintmask 10001000
          71 49 rmoveto
          -75 callsubr
          hintmask 01001000
          -74 callsubr
          hintmask 10011000
          -73 callsubr
          hintmask 00101000
          -72 callsubr
          hintmask 10011000
          -71 callsubr
          135 -267 rmoveto
          -70 callsubr
          hintmask 00101000
          -69 callsubr
          endchar
        </CharString>
        <CharString name="atilde">
          -34 -7 23 -16 21 581.972000122 16 57 16 hstemhm
          453 13 hintmask 00000000
          188.28515625 633.971679688 rmoveto
          11 callsubr
          hintmask 10001000
          -98.28515625 -354.971679688 rmoveto
          -29 callsubr
          hintmask 01001000
          -28 callsubr
          19 -33 rmoveto
          -27 callsubr
          hintmask 10001000
          -26 callsubr
          endchar
        </CharString>
        <CharString name="atilde.salt">
          -24 -12 24 499 24 61 16 57 16 hstem
          208.694335938 627 rmoveto
          11 callsubr
          -119.694335938 -368 rmoveto
          123 callsubr
          24 -2 rmoveto
          124 callsubr
          endchar
        </CharString>
        <CharString name="atilde.smcp">
          -15 0 21 161 24 424 16 57 16 hstem
          233.53515625 661 rmoveto
          11 callsubr
          -188.53515625 -661 rmoveto
          75 callsubr
          -184 -364 rmoveto
          76 callsubr
          endchar
        </CharString>
        <CharString name="b">
          -34 -6 24 497 24 246 -20 hstem
          60 hmoveto
          -25 callsubr
          -89 -712 rmoveto
          -24 callsubr
          endchar
        </CharString>
        <CharString name="b.salt">
          -21 -12 24 499 24 247 -20 hstem
          61 hmoveto
          126 callsubr
          -98 -770 rmoveto
          127 callsubr
          endchar
        </CharString>
        <CharString name="b.smcp">
          -61 0 25 256 24 242 24 hstem
          80 hmoveto
          77 callsubr
          -62 -546 rmoveto
          78 callsubr
          -166 280 rmoveto
          79 callsubr
          endchar
        </CharString>
        <CharString name="b.superior">
          -151 374 18 329 18 hstem
          119 378 rmoveto
          12 0 15 55 rlineto
          16 -16 44 -43 70 0 109 0 33 92 13 82 14 91 7 100 -114 0 -34 0 -64 -10 -51 -20 rrcurveto
          31 193 -18 0 rlineto
          -54 -455 rmoveto
          40 250 rlineto
          45 11 41 13 58 0 80 0 21 -42 -20 -125 -17 -106 -43 -56 -75 0 -59 0 -45 36 -26 19 rrcurveto
          endchar
        </CharString>
        <CharString name="backslash">
          -147 141 167 vstem
          141 770 rmoveto
          148 -842 19 0 -148 842 rlineto
          endchar
        </CharString>
        <CharString name="bar">
          -364 74 157 vstem
          74 -72 rmoveto
          24 0 133 842 -24 0 rlineto
          endchar
        </CharString>
        <CharString name="braceleft">
          -319 -150 23 1006 23 hstem
          67 380 rmoveto
          40 3 45 -28 -8 -48 rrcurveto
          -44 -278 rlineto
          -12 -78 -4 -101 149 0 rrcurveto
          4 23 rlineto
          -91 0 -41 35 18 114 rrcurveto
          46 289 rlineto
          7 42 -31 35 -42 6 44 6 42 32 8 48 rrcurveto
          37 236 rlineto
          19 122 55 41 88 0 rrcurveto
          4 23 rlineto
          -133 0 -41 -83 -15 -96 rrcurveto
          -38 -243 rlineto
          -9 -58 -60 -12 -33 -3 rrcurveto
          endchar
        </CharString>
        <CharString name="braceright">
          -321 -150 23 507 27 474 21 hstem
          -13 -150 rmoveto
          149 0 26 89 12 78 rrcurveto
          46 290 rlineto
          8 48 53 28 40 -3 rrcurveto
          4 27 rlineto
          -33 3 -54 13 9 57 rrcurveto
          36 229 rlineto
          15 96 -11 97 -133 0 rrcurveto
          -4 -21 rlineto
          88 0 41 -43 -19 -122 rrcurveto
          -37 -236 rlineto
          -8 -48 32 -32 42 -6 -44 -6 -41 -35 -7 -42 rrcurveto
          -46 -289 rlineto
          -18 -114 -51 -35 -91 0 rrcurveto
          endchar
        </CharString>
        <CharString name="bracketleft">
          -314 -150 24 1004 24 hstem
          76 22 rmoveto
          -10 -60 4 -112 115 0 rrcurveto
          50 0 4 24 -50 0 rlineto
          -83 0 -19 68 13 80 rrcurveto
          112 708 rlineto
          17 105 53 43 66 0 rrcurveto
          50 0 3 24 -49 0 rlineto
          -121 0 -33 -107 -10 -65 rrcurveto
          endchar
        </CharString>
        <CharString name="bracketright">
          -309 -150 24 1004 24 hstem
          -13 -150 rmoveto
          50 hlineto
          121 0 31 101 11 71 rrcurveto
          112 708 rlineto
          10 60 1 112 -119 0 rrcurveto
          -50 0 -4 -24 50 0 rlineto
          66 0 39 -43 -17 -105 rrcurveto
          -112 -708 rlineto
          -13 -80 -39 -68 -83 0 rrcurveto
          -50 hlineto
          endchar
        </CharString>
        <CharString name="breve">
          -307 530 14 hstem
          60 14 202 14 vstem
          60 644 rmoveto
          57 callsubr
          endchar
        </CharString>
        <CharString name="brokenbar">
          -362 74 157 vstem
          74 -72 rmoveto
          24 0 52 328 -24 0 rlineto
          27 173 rmoveto
          24 0 54 341 -24 0 rlineto
          endchar
        </CharString>
        <CharString name="bullet">
          -242 334 97 hstem
          139 92 vstem
          139 366 rmoveto
          34 callsubr
          endchar
        </CharString>
        <CharString name="bullet.smcp">
          -242 274 97 hstem
          130 92 vstem
          130 306 rmoveto
          34 callsubr
          endchar
        </CharString>
        <CharString name="c">
          -88 -5 24 493 24 hstem
          90 273 rmoveto
          -23 callsubr
          endchar
        </CharString>
        <CharString name="c.smcp">
          -59 -4 24 534 24 hstem
          101 301 rmoveto
          80 callsubr
          endchar
        </CharString>
        <CharString name="c.superior">
          -213 373 18 328 18 hstem
          132 558 rmoveto
          -25 -156 55 -29 72 0 62 0 39 8 40 14 rrcurveto
          2 12 rlineto
          0 -62 -16 -78 vhcurveto
          -82 0 -24 45 19 117 23 144 48 22 67 0 rrcurveto
          43 88 -13 0 hvcurveto
          2 12 rlineto
          -46 11 -44 8 -39 0 -77 0 -58 -24 -25 -155 rrcurveto
          endchar
        </CharString>
        <CharString name="c_h">
          461 -5 24 493 24 248 -20 hstem
          81 273 rmoveto
          -37 -233 66 -45 103 0 195 0 166 -22 37 233 rrcurveto
          40 250 rlineto
          80 40 57 21 88 0 89 0 41 -62 -13 -84 rrcurveto
          -59 -370 24 0 59 370 rlineto
          14 88 -45 82 -106 0 -81 0 -81 -33 -65 -38 rrcurveto
          50 314 -24 0 -92 -578 rlineto
          -34 -215 -169 28 -167 0 -86 0 -59 37 33 206 34 216 65 34 91 0 rrcurveto
          89 107 -16 0 hvcurveto
          2 14 rlineto
          -60 14 -82 12 -52 0 -102 0 -79 -31 -37 -232 rrcurveto
          endchar
        </CharString>
        <CharString name="c_k">
          378 -7 24 4 -21 531 -20 3 24 244 -20 hstemhm
          hintmask 10001000
          81 268 rmoveto
          -37 -233 148 -42 99 0 81 -1 107 46 114 78 rrcurveto
          hintmask 01101000
          -18 -116 24 0 21 135 rlineto
          50 36 49 41 50 45 rrcurveto
          155 -257 27 0 -163 274 rlineto
          82 77 78 88 69 92 rrcurveto
          -30 hlineto
          -57 -86 -147 -159 -158 -118 rrcurveto
          97 614 -24 0 -100 -634 rlineto
          hintmask 10011000
          -108 -77 -111 -55 -90 1 -93 1 -124 44 32 200 32 200 60 52 99 0 rrcurveto
          89 136 -18 0 hvcurveto
          2 14 rlineto
          -68 13 -103 15 -52 0 rrcurveto
          -102 0 -79 -38 -37 -232 rrcurveto
          endchar
        </CharString>
        <CharString name="c_t">
          197 -7 24 -21 13 497 24 hstemhm
          671 16 hintmask 10110000
          81 267 rmoveto
          -37 -233 70 -41 99 0 83 1 42 5 85 23 rrcurveto
          2 16 rlineto
          0 -116 -21 -92 vhcurveto
          -86 0 -60 37 33 206 33 208 71 38 86 0 rrcurveto
          342 0 -51 -321 rlineto
          hintmask 01110000
          -21 -132 34 -57 84 0 rrcurveto
          64 0 2 13 rlineto
          -7 -66 11 0 hvcurveto
          -29 4 -62 4 25 157 rrcurveto
          51 323 175 0 3 22 -175 0 24 148 -16 0 -32 -148 -341 0 rlineto
          -98 0 -83 -34 -36 -229 rrcurveto
          endchar
        </CharString>
        <CharString name="cacute">
          -88 -5 24 493 24 60 133 hstem
          340.667007446 168 vstem
          340.666992188 596 rmoveto
          22 callsubr
          -392.666992188 -456 rmoveto
          -23 callsubr
          endchar
        </CharString>
        <CharString name="cacute.smcp">
          -59 -4 24 534 24 60 133 hstem
          346.395996094 168 vstem
          346.396484375 638 rmoveto
          22 callsubr
          -387.396484375 -470 rmoveto
          80 callsubr
          endchar
        </CharString>
        <CharString name="caron">
          -176 531 130 hstem
          32 272 vstem
          32 661 rmoveto
          59 callsubr
          81 -130 rmoveto
          21 hmoveto
          endchar
        </CharString>
        <CharString name="caron.smcp">
          -152 531 130 hstem
          159 272 vstem
          159 661 rmoveto
          59 callsubr
          endchar
        </CharString>
        <CharString name="ccaron">
          -88 -5 24 493 24 60 130 hstem
          252.268005371 272 vstem
          252.267578125 726 rmoveto
          59 callsubr
          81 -130 rmoveto
          21 hmoveto
          -281.267578125 -323 rmoveto
          -23 callsubr
          endchar
        </CharString>
        <CharString name="ccaron.smcp">
          -59 -4 24 534 24 65 130 hstem
          255.268005371 272 vstem
          255.267578125 773 rmoveto
          59 callsubr
          81 -130 rmoveto
          21 hmoveto
          -273.267578125 -342 rmoveto
          80 callsubr
          endchar
        </CharString>
        <CharString name="ccedilla">
          -85 -171 7 159 24 493 24 hstem
          251 17 vstem
          92 273 rmoveto
          -23 callsubr
          22 -444 rmoveto
          24 callsubr
          endchar
        </CharString>
        <CharString name="ccedilla.smcp">
          -59 -175.470794678 7 164.470794678 24 534 24 hstem
          291.486999512 17 vstem
          154.487304688 -175.470703125 rmoveto
          24 callsubr
          -54.4873046875 469.470703125 rmoveto
          80 callsubr
          endchar
        </CharString>
        <CharString name="ccircumflex">
          -88 -5 24 493 24 60 130 hstem
          181.667007446 272 vstem
          181.666992188 596 rmoveto
          -31 callsubr
          -244.666992188 -453 rmoveto
          -23 callsubr
          endchar
        </CharString>
        <CharString name="ccircumflex.smcp">
          -59 -4 24 534 24 65 130 hstem
          230.667007446 272 vstem
          230.666992188 643 rmoveto
          -31 callsubr
          -282.666992188 -472 rmoveto
          80 callsubr
          endchar
        </CharString>
        <CharString name="cdotaccent">
          -88 -5 24 493 24 41 86 hstem
          269.796005249 44.820602417 vstem
          269.796875 589 rmoveto
          68 callsubr
          -189.6171875 -378 rmoveto
          -23 callsubr
          endchar
        </CharString>
        <CharString name="cdotaccent.smcp">
          -59 -4 24 534 24 65 86 hstem
          345.070404053 44.820602417 vstem
          345.0703125 655 rmoveto
          62 callsubr
          -253.890625 -416 rmoveto
          80 callsubr
          endchar
        </CharString>
        <CharString name="cedilla">
          -308 -173 7 hstem
          159 17 vstem
          22 -173 rmoveto
          24 callsubr
          endchar
        </CharString>
        <CharString name="cent">
          -101 -5 24 493 24 hstem
          80 273 rmoveto
          -39 -241 74 -39 115 2 rrcurveto
          -12 -77 18 0 13 78 rlineto
          62 2 40 6 72 20 rrcurveto
          3 16 rlineto
          0 -117 -21 -92 vhcurveto
          -86 0 -59 37 33 206 34 216 65 34 91 0 rrcurveto
          89 107 -16 0 hvcurveto
          2 14 rlineto
          -48 12 -61 10 -50 3 rrcurveto
          13 83 -18 0 -13 -82 rlineto
          -115 0 -83 -23 -38 -240 rrcurveto
          endchar
        </CharString>
        <CharString name="circumflex">
          -245 531 130 hstem
          66 272 vstem
          66 531 rmoveto
          -31 callsubr
          endchar
        </CharString>
        <CharString name="circumflex.smcp">
          -152 531 130 hstem
          134 272 vstem
          134 531 rmoveto
          -31 callsubr
          endchar
        </CharString>
        <CharString name="colon">
          -402 21 -21 530 -20 hstem
          75.9004058838 110.143005371 vstem
          75.9004058838 12 rmoveto
          -101 callsubr
          55.3432922363 381 rmoveto
          -76 callsubr
          endchar
        </CharString>
        <CharString name="comma">
          -408 -68 6 hstem
          60.2295074463 54.6495056152 vstem
          60.2295074463 -68 rmoveto
          -102 callsubr
          endchar
        </CharString>
        <CharString name="copyright">
          288 0 14 133 14 408 14 135 14 hstem
          111 371 rmoveto
          -21 -134 20 -237 184 0 rrcurveto
          256 hlineto
          151 0 95 171 31 193 20 124 14 244 -196 0 rrcurveto
          -256 hlineto
          -192 0 -80 -198 -26 -163 rrcurveto
          14 -3 rmoveto
          46 271 125 79 111 0 rrcurveto
          258 hlineto
          151 0 27 -159 -30 -191 -37 -231 -111 -123 -113 0 rrcurveto
          -257 hlineto
          -156 0 -41 197 27 157 rrcurveto
          161 hmoveto
          -28 -177 59 -44 79 0 67 0 53 3 67 18 rrcurveto
          2 9 rlineto
          -49 -11 -66 -5 -72 0 -95 0 -23 74 20 127 24 149 61 58 78 0 33 0 81 -3 62 -9 rrcurveto
          1 9 rlineto
          -54 10 -80 7 -41 0 -81 0 -72 -54 -26 -161 rrcurveto
          endchar
        </CharString>
        <CharString name="currency">
          -110 143 15 304 15 hstem
          79 164 rmoveto
          8 -10 47 41 rlineto
          24 -32 39 -20 47 0 45 0 39 19 34 30 rrcurveto
          31 -38 11 9 -32 38 rlineto
          30 31 21 35 7 43 7 45 -12 44 -24 29 rrcurveto
          53 44 -9 10 -53 -44 rlineto
          -25 25 -35 14 -42 0 -42 0 -39 -16 -33 -27 rrcurveto
          -39 47 -10 -9 40 -46 rlineto
          -32 -29 -23 -35 -7 -43 -7 -42 10 -42 19 -30 rrcurveto
          -8 109 rmoveto
          13 81 77 67 81 0 83 0 56 -65 -13 -83 -13 -84 -77 -72 -84 0 -84 0 -52 72 13 84 rrcurveto
          endchar
        </CharString>
        <CharString name="d">
          -58 0 18 497 24 246 -20 hstem
          438 13 vstem
          89 271 rmoveto
          -22 callsubr
          24 -8 rmoveto
          -21 callsubr
          endchar
        </CharString>
        <CharString name="d.salt">
          -47 -12 24 499 24 247 -20 hstem
          90 259 rmoveto
          128 callsubr
          24 -2 rmoveto
          129 callsubr
          endchar
        </CharString>
        <CharString name="d.smcp">
          35 0 24 524 24 hstem
          80 hmoveto
          81 callsubr
          -63 -548 rmoveto
          82 callsubr
          endchar
        </CharString>
        <CharString name="d.superior">
          -168 374 18 329 18 hstem
          378 12 vstem
          134 562 rmoveto
          -13 -82 1 -106 109 0 70 0 57 43 22 16 rrcurveto
          -2 -55 12 0 83 524 -18 0 -31 -193 rlineto
          -45 20 -60 10 -34 0 -114 0 -23 -86 -14 -91 rrcurveto
          18 -8 rmoveto
          19 125 34 42 80 0 58 0 38 -13 41 -11 rrcurveto
          -39 -250 rlineto
          -32 -19 -57 -36 -59 0 -75 0 -24 56 16 106 rrcurveto
          endchar
        </CharString>
        <CharString name="dagger">
          -61 512 14 hstem
          185 14 vstem
          113 512 rmoveto
          159 -5 -87 -579 14 0 97 579 161 5 2 14 -159 4 33 240 -14 0 -43 -240 -161 -4 rlineto
          endchar
        </CharString>
        <CharString name="daggerdbl">
          -136 194 14 304 14 hstem
          97 194 rmoveto
          161 -5 -39 -261 14 0 44 261 164 5 2 14 -162 4 50 295 160 5 3 14 -160 4 33 240 -14 0 -43 -240 -160 -4 rlineto
          -3 -14 160 -5 -45 -295 -163 -4 rlineto
          endchar
        </CharString>
        <CharString name="dcaron">
          -38 0 18 497 24 246 -20 hstem
          438 13 vstem
          89 271 rmoveto
          -22 callsubr
          24 -8 rmoveto
          -21 callsubr
          500 318 rmoveto
          -107 callsubr
          endchar
        </CharString>
        <CharString name="dcaron.salt">
          -42 -12 24 499 24 247 -20 hstem
          90 257 rmoveto
          -27 -168 43 -101 125 0 106 0 76 4 51 8 rrcurveto
          124 782 -24 0 -46 -286 rlineto
          -60 26 -95 13 -45 0 -153 0 -50 -120 -25 -158 rrcurveto
          24 hmoveto
          129 callsubr
          520 324 rmoveto
          -107 callsubr
          endchar
        </CharString>
        <CharString name="dcaron.smcp">
          41 0 24 524 24 60 130 hstem
          324 272 vstem
          324 762 rmoveto
          59 callsubr
          81 -130 rmoveto
          21 hmoveto
          -305 -632 rmoveto
          81 callsubr
          -63 -548 rmoveto
          82 callsubr
          endchar
        </CharString>
        <CharString name="dcroat">
          -58 0 18 497 24 102 14 130 -20 hstem
          439 13 vstem
          90 272 rmoveto
          -19 -122 16 -156 145 0 68 0 109 41 30 24 rrcurveto
          -59 13 vlineto
          102 641 83 0 2 14 -83 0 21 130 -22 0 -21 -130 -132 0 -2 -14 132 0 -23 -142 rlineto
          -60 26 -85 14 -45 0 -151 0 -56 -131 -22 -136 rrcurveto
          24 -9 rmoveto
          32 205 85 47 84 0 77 0 48 -12 66 -18 rrcurveto
          -65 -412 rlineto
          -57 -27 -69 -28 -79 0 -85 0 -65 71 28 174 rrcurveto
          endchar
        </CharString>
        <CharString name="dcroat.salt">
          -58 -12 24 499 24 106 14 127 -20 hstem
          91 260 rmoveto
          -27 -168 43 -104 125 0 106 0 76 4 51 8 rrcurveto
          101 641 62 0 3 14 -62 0 20 127 -24 0 -20 -127 -151 0 -3 -14 151 0 -23 -145 rlineto
          -60 26 -95 13 -45 0 -153 0 -50 -117 -25 -158 rrcurveto
          24 -3 rmoveto
          129 callsubr
          endchar
        </CharString>
        <CharString name="dcroat.smcp">
          33 0 24 259 14 251 24 hstem
          61 283 rmoveto
          115 callsubr
          46 -273 rmoveto
          116 callsubr
          endchar
        </CharString>
        <CharString name="degree">
          -224 530 14 177 14 hstem
          149 203 vstem
          149 632 rmoveto
          -9 -57 42 -45 56 0 56 0 49 45 9 57 9 57 -40 46 -56 0 -56 0 -51 -46 -9 -57 rrcurveto
          14 hmoveto
          8 49 46 40 48 0 48 0 33 -40 -8 -49 -8 -49 -45 -39 -48 0 -48 0 -34 39 8 49 rrcurveto
          endchar
        </CharString>
        <CharString name="degree.smcp">
          -226 368 16 174 16 hstem
          122 203 vstem
          122 470 rmoveto
          -9 -57 39 -45 56 0 56 0 52 45 9 57 9 57 -37 47 -56 0 -56 0 -54 -47 -9 -57 rrcurveto
          15 hmoveto
          8 48 45 40 48 0 48 0 33 -40 -8 -48 -8 -48 -44 -38 -48 0 -48 0 -34 38 8 48 rrcurveto
          endchar
        </CharString>
        <CharString name="dieresis">
          -136 564 35 hstem
          141 35 220 35 vstem
          141 582 rmoveto
          13 callsubr
          255 hmoveto
          13 callsubr
          endchar
        </CharString>
        <CharString name="dieresis.smcp">
          -137 564 35 hstem
          141 36 219 36 vstem
          141 582 rmoveto
          114 callsubr
          255 hmoveto
          114 callsubr
          endchar
        </CharString>
        <CharString name="divide">
          -23 147 66 128 24 118 66 hstem
          100 341 rmoveto
          416 0 4 24 -416 0 rlineto
          162 -206 rmoveto
          -11 callsubr
          47 293 rmoveto
          -1 -7 4 -4 7 0 rrcurveto
          11 hlineto
          7 0 6 3 1 8 rrcurveto
          6 43 rlineto
          1 7 -2 5 -8 0 rrcurveto
          -12 hlineto
          -8 0 -5 -4 -1 -8 rrcurveto
          endchar
        </CharString>
        <CharString name="dollar">
          -5 -7 23 331 24 344 23 hstem
          80 7 rmoveto
          36 -7 94 -5 59 -2 rrcurveto
          -13 -81 18 0 13 80 rlineto
          108 -2 105 18 23 148 rrcurveto
          10 68 rlineto
          13 82 -18 65 -133 0 rrcurveto
          -104 hlineto
          -88 0 -56 23 16 100 rrcurveto
          11 66 rlineto
          21 134 77 26 114 -5 0 0 129 -5 63 -4 rrcurveto
          2 13 rlineto
          -39 6 -79 9 -57 3 rrcurveto
          13 87 -18 0 -13 -86 rlineto
          -135 0 -79 -32 -23 -146 rrcurveto
          -11 -66 rlineto
          -10 -62 5 -85 155 0 rrcurveto
          102 hlineto
          100 0 33 -31 -15 -92 rrcurveto
          -10 -68 rlineto
          -18 -117 -78 -23 -97 0 -93 0 -88 2 -43 4 rrcurveto
          endchar
        </CharString>
        <CharString name="dollar.smcp">
          -48 -3 27 -13 13 250 24 252 25 -25 14 hstemhm
          hintmask 01100000
          69 11 rmoveto
          hintmask 10110000
          33 -6 102 -5 40 -3 rrcurveto
          -11 -66 18 0 11 66 rlineto
          84 -1 104 19 18 114 rrcurveto
          6 38 rlineto
          10 65 -38 66 -106 0 rrcurveto
          -82 hlineto
          -70 0 -63 26 12 78 rrcurveto
          5 31 rlineto
          12 76 33 41 121 0 rrcurveto
          207 0 rlineto
          hintmask 00101000
          3 14 rlineto
          -40 6 -93 4 -32 0 rrcurveto
          11 66 -18 0 rlineto
          hintmask 10110000
          -11 -65 rlineto
          -98 0 -98 -2 -21 -133 rrcurveto
          -5 -31 rlineto
          -12 -77 35 -58 119 0 rrcurveto
          82 hlineto
          76 0 47 -43 -10 -60 rrcurveto
          -6 -38 rlineto
          -14 -89 -84 -20 -56 0 rrcurveto
          hintmask 01100000
          -219 hlineto
          endchar
        </CharString>
        <CharString name="dotaccent">
          -407 547 86 hstem
          70.9004058838 44.820602417 vstem
          70.9004058838 559 rmoveto
          -101 callsubr
          endchar
        </CharString>
        <CharString name="dotlessi">
          -414 21 -21 531 -20 hstem
          60 108 vstem
          60 hmoveto
          -12 callsubr
          endchar
        </CharString>
        <CharString name="e">
          -42 -7 24 500 24 hstem
          87 278 rmoveto
          -20 callsubr
          21 -17 rmoveto
          -19 callsubr
          endchar
        </CharString>
        <CharString name="e.smcp">
          -61 -2 24 -13 13 250 26 250 23 -23 14 hstemhm
          hintmask 10100000
          91 83 rmoveto
          83 callsubr
          hintmask 01100000
          84 callsubr
          hintmask 10110000
          85 callsubr
          hintmask 00101000
          86 callsubr
          hintmask 10110000
          87 callsubr
          endchar
        </CharString>
        <CharString name="e.superior">
          -139 366 18 336 18 hstem
          133 560 rmoveto
          -21 -133 24 -61 87 0 57 0 63 4 57 16 rrcurveto
          8 vlineto
          -53 -8 -73 -6 -52 4 -47 0 -45 16 18 139 25 -10 258 -48 24 147 14 87 -53 23 -91 0 -132 0 -41 -60 -19 -118 rrcurveto
          17 -12 rmoveto
          13 79 14 93 145 0 109 0 15 -40 -10 -52 -26 -130 -260 50 0 0 rrcurveto
          endchar
        </CharString>
        <CharString name="eacute">
          -42 -7 24 500 24 60 133 hstem
          341.667007446 168 vstem
          341.666992188 601 rmoveto
          22 callsubr
          -396.666992188 -456 rmoveto
          -20 callsubr
          21 -17 rmoveto
          -19 callsubr
          endchar
        </CharString>
        <CharString name="eacute.smcp">
          -61 -2 24 -13 13 250 26 250 14 -14 23 60 133 hstemhm
          354.496002197 168 hintmask 00000110
          354.49609375 631 rmoveto
          22 callsubr
          hintmask 10100000
          -405.49609375 -681 rmoveto
          83 callsubr
          hintmask 01100000
          84 callsubr
          hintmask 10101000
          85 callsubr
          hintmask 00110000
          86 callsubr
          hintmask 10101000
          87 callsubr
          endchar
        </CharString>
        <CharString name="ecaron">
          -42 -7 24 500 24 60 130 hstem
          233.268005371 272 vstem
          233.267578125 731 rmoveto
          59 callsubr
          81 -130 rmoveto
          21 hmoveto
          -265.267578125 -323 rmoveto
          -20 callsubr
          21 -17 rmoveto
          -19 callsubr
          endchar
        </CharString>
        <CharString name="ecaron.smcp">
          -61 -2 24 -13 13 250 26 250 14 -14 23 60 130 hstemhm
          243.268005371 272 hintmask 00000110
          243.267578125 761 rmoveto
          59 callsubr
          81 -130 rmoveto
          21 hmoveto
          hintmask 10100000
          -271.267578125 -548 rmoveto
          83 callsubr
          hintmask 01100000
          84 callsubr
          hintmask 10101000
          85 callsubr
          hintmask 00110000
          86 callsubr
          hintmask 10101000
          87 callsubr
          endchar
        </CharString>
        <CharString name="ecircumflex">
          -42 -7 24 500 24 60 130 hstem
          212.667007446 272 vstem
          212.666992188 601 rmoveto
          -31 callsubr
          -278.666992188 -453 rmoveto
          -20 callsubr
          21 -17 rmoveto
          -19 callsubr
          endchar
        </CharString>
        <CharString name="ecircumflex.smcp">
          -61 -2 24 -13 13 250 26 250 14 -14 23 60 130 hstemhm
          227.667007446 272 hintmask 00000110
          227.666992188 631 rmoveto
          -31 callsubr
          hintmask 10100000
          -289.666992188 -678 rmoveto
          83 callsubr
          hintmask 01100000
          84 callsubr
          hintmask 10101000
          85 callsubr
          hintmask 00110000
          86 callsubr
          hintmask 10101000
          87 callsubr
          endchar
        </CharString>
        <CharString name="edieresis">
          -42 -7 24 500 24 60 35 hstem
          206.518997192 35 220 35 vstem
          206.51953125 619 rmoveto
          13 callsubr
          255 hmoveto
          13 callsubr
          -374.51953125 -341 rmoveto
          -20 callsubr
          21 -17 rmoveto
          -19 callsubr
          endchar
        </CharString>
        <CharString name="edieresis.smcp">
          -61 -2 24 -13 13 250 26 250 14 -14 23 60 35 hstemhm
          231.518997192 35 220 35 hintmask 00000100
          231.51953125 649 rmoveto
          13 callsubr
          255 hmoveto
          13 callsubr
          hintmask 10100000
          -395.51953125 -566 rmoveto
          83 callsubr
          hintmask 01100000
          84 callsubr
          hintmask 10101000
          85 callsubr
          hintmask 00110000
          86 callsubr
          hintmask 10101000
          87 callsubr
          endchar
        </CharString>
        <CharString name="edotaccent">
          -42 -7 24 500 24 60 86 hstem
          333.070007324 44.820602417 vstem
          333.0703125 613 rmoveto
          62 callsubr
          -255.890625 -397 rmoveto
          -20 callsubr
          21 -17 rmoveto
          -19 callsubr
          endchar
        </CharString>
        <CharString name="edotaccent.smcp">
          -61 -2 24 -13 13 250 26 250 14 -14 23 60 86 hstemhm
          353.070007324 44.820602417 hintmask 00000100
          353.0703125 643 rmoveto
          62 callsubr
          hintmask 10100000
          -271.890625 -622 rmoveto
          83 callsubr
          hintmask 01100000
          84 callsubr
          hintmask 10101000
          85 callsubr
          hintmask 00110000
          86 callsubr
          hintmask 10101000
          87 callsubr
          endchar
        </CharString>
        <CharString name="egrave">
          -42 -7 24 500 24 60 133 hstem
          229.667007446 126 vstem
          229.666992188 734 rmoveto
          -30 callsubr
          -168.666992188 -456 rmoveto
          -20 callsubr
          21 -17 rmoveto
          -19 callsubr
          endchar
        </CharString>
        <CharString name="egrave.smcp">
          -61 -2 24 -13 13 250 26 250 14 -14 23 60 133 hstemhm
          255.667007446 126 hintmask 00000110
          255.666992188 764 rmoveto
          -30 callsubr
          hintmask 10100000
          -190.666992188 -681 rmoveto
          83 callsubr
          hintmask 01100000
          84 callsubr
          hintmask 10101000
          85 callsubr
          hintmask 00110000
          86 callsubr
          hintmask 10101000
          87 callsubr
          endchar
        </CharString>
        <CharString name="eight">
          65 0 24 338 23 328 24 hstem
          121 154 rmoveto
          -81 callsubr
          9 -102 rmoveto
          -80 callsubr
          53 343 rmoveto
          -79 callsubr
          endchar
        </CharString>
        <CharString name="eight.denominator">
          -72 -1 18 215 18 212 18 hstem
          80 103 rmoveto
          43 callsubr
          8 -59 rmoveto
          44 callsubr
          35 220 rmoveto
          45 callsubr
          endchar
        </CharString>
        <CharString name="eight.numerator">
          -67 255 18 215 18 212 18 hstem
          121 359 rmoveto
          43 callsubr
          8 -59 rmoveto
          44 callsubr
          35 220 rmoveto
          45 callsubr
          endchar
        </CharString>
        <CharString name="eight.oldstyle">
          31 0 24 338 23 328 24 hstem
          121 154 rmoveto
          -81 callsubr
          9 -102 rmoveto
          -80 callsubr
          53 343 rmoveto
          -79 callsubr
          endchar
        </CharString>
        <CharString name="eight.smcp">
          37 0 24 253 25 249 24 hstem
          96 139 rmoveto
          -6 -41 -13 -98 130 0 rrcurveto
          158 hlineto
          68 0 65 30 16 101 rrcurveto
          5 32 rlineto
          11 66 -33 59 -46 5 39 6 54 26 13 80 rrcurveto
          4 28 rlineto
          15 95 -36 47 -83 0 rrcurveto
          -156 hlineto
          -90 0 -51 -28 -17 -106 rrcurveto
          -4 -28 rlineto
          -10 -62 28 -51 52 -14 -30 -1 -64 -20 -14 -91 rrcurveto
          18 -41 rmoveto
          6 37 rlineto
          14 91 73 16 43 0 rrcurveto
          146 hlineto
          46 0 62 -16 -15 -96 rrcurveto
          -5 -32 rlineto
          -11 -68 -45 -41 -64 0 rrcurveto
          -158 hlineto
          -76 0 -27 38 11 71 rrcurveto
          44 277 rmoveto
          4 25 rlineto
          15 96 37 20 78 0 rrcurveto
          156 hlineto
          72 0 26 -36 -13 -80 rrcurveto
          -4 -25 rlineto
          -9 -60 -52 -48 -68 0 rrcurveto
          -146 hlineto
          -48 0 -62 20 14 88 rrcurveto
          endchar
        </CharString>
        <CharString name="eight.tnum">
          43 0 24 338 23 328 24 hstem
          100 154 rmoveto
          -81 callsubr
          9 -102 rmoveto
          -80 callsubr
          53 343 rmoveto
          -79 callsubr
          endchar
        </CharString>
        <CharString name="eight.tosf">
          42 0 24 338 23 328 24 hstem
          99.3887023926 154 rmoveto
          -6 -41 -8 -113 172.000305176 0 rrcurveto
          115 hlineto
          64 0 96 24 21 130 rrcurveto
          15 98 rlineto
          10 63 -15 45 -67 20 57 4 45 54 9 54 rrcurveto
          10 65 rlineto
          19 123 -48 57 -112 0 rrcurveto
          -116 hlineto
          -103 0 -73 -32 -21 -134 rrcurveto
          -10 -65 rlineto
          -8 -53 3 -72 84 -15 -39 0 -67 -37 -12 -76 rrcurveto
          9 -102 rmoveto
          -80 callsubr
          53 343 rmoveto
          -79 callsubr
          endchar
        </CharString>
        <CharString name="eightinferior">
          -158 -201 18 215 18 212 18 hstem
          50 -97 rmoveto
          43 callsubr
          8 -59 rmoveto
          44 callsubr
          35 220 rmoveto
          45 callsubr
          endchar
        </CharString>
        <CharString name="eightsuperior">
          -160 354 18 215 18 212 18 hstem
          122 458 rmoveto
          43 callsubr
          8 -59 rmoveto
          44 callsubr
          35 220 rmoveto
          45 callsubr
          endchar
        </CharString>
        <CharString name="ellipsis">
          155 0 86 hstem
          147 12 rmoveto
          -1.23500061035 -6.9619140625 4.23500061035 -5.0380859375 7 0 rrcurveto
          12 hlineto
          7 0 4.59199523926 4.0625 1.40800476074 7.9375 rrcurveto
          11 62 rlineto
          1 7 -3 5 -8 0 rrcurveto
          -11 hlineto
          -8 0 -5 -4 -1 -8 rrcurveto
          261 -62 rmoveto
          66 callsubr
          259 -62 rmoveto
          66 callsubr
          endchar
        </CharString>
        <CharString name="emacron">
          -42 -7 24 500 24 60 15 hstem
          222.854995728 254 vstem
          222.85546875 601 rmoveto
          15 callsubr
          -137.85546875 -338 rmoveto
          -20 callsubr
          21 -17 rmoveto
          -19 callsubr
          endchar
        </CharString>
        <CharString name="emacron.smcp">
          -61 -2 24 -13 13 250 26 250 14 -14 23 61 15 hstemhm
          238 254 hintmask 00000110
          238 632 rmoveto
          15 callsubr
          hintmask 10100000
          -149 -564 rmoveto
          83 callsubr
          hintmask 01100000
          84 callsubr
          hintmask 10101000
          85 callsubr
          hintmask 00110000
          86 callsubr
          hintmask 10101000
          87 callsubr
          endchar
        </CharString>
        <CharString name="emdash">
          162 277 25 hstem
          59 277 rmoveto
          56 callsubr
          endchar
        </CharString>
        <CharString name="emdash.alt">
          164 347 25 hstem
          71 347 rmoveto
          56 callsubr
          endchar
        </CharString>
        <CharString name="emdash.smcp">
          162 264 25 hstem
          57 264 rmoveto
          56 callsubr
          endchar
        </CharString>
        <CharString name="endash">
          -147 275 25 hstem
          60 275 rmoveto
          55 callsubr
          endchar
        </CharString>
        <CharString name="endash.alt">
          -61 345 25 hstem
          70 345 rmoveto
          55 callsubr
          endchar
        </CharString>
        <CharString name="endash.smcp">
          -61 260 25 hstem
          57 260 rmoveto
          55 callsubr
          endchar
        </CharString>
        <CharString name="eng">
          -25 -245 15 251 -21 531 -20 5 24 hstemhm
          144 12 hintmask 11011000
          60 hmoveto
          24 0 72 452 rlineto
          65 33 67 31 84 0 90 0 48 -75 -11 -71 rrcurveto
          -59 -370 -14 -89 rlineto
          -17 -93 -67 -35 -78 -13 rrcurveto
          9 -15 rlineto
          55 6 102 22 20 127 rrcurveto
          14 90 59 370 rlineto
          14 88 -55 82 -106 0 -81 0 -70 -36 -67 -35 rrcurveto
          hintmask 11101000
          -2 62 -12 0 rlineto
          endchar
        </CharString>
        <CharString name="eng.smcp">
          39 -217 18 220 -21 hstem
          70 hmoveto
          24 0 84 529 321 -529 -7 -45 rlineto
          -24 -151 -51 7 -88 -10 rrcurveto
          -2 -18 rlineto
          118 0 47 21 24 152 rrcurveto
          7 44 90 571 -24 0 -85 -534 -323 534 -21 0 rlineto
          endchar
        </CharString>
        <CharString name="eogonek">
          -42 -158.92199707 14 137.92199707 24 -14.9219055176 20 494.921905518 24 hstemhm
          hintmask 00000000
          434.334960938 22.078125 rmoveto
          58 callsubr
          hintmask 01010000
          -359.334960938 255.921875 rmoveto
          -20 callsubr
          21 -17 rmoveto
          -19 callsubr
          endchar
        </CharString>
        <CharString name="eogonek.smcp">
          -61 -172.31300354 14 146.999908447 20 -10.6869049072 24 -13 13 250 26 250 14 -14 23 hstemhm
          hintmask 01000000
          448.364257812 8.6865234375 rmoveto
          58 callsubr
          hintmask 00101000
          -369.364257812 74.3134765625 rmoveto
          83 callsubr
          hintmask 00011000
          84 callsubr
          hintmask 00101010
          85 callsubr
          hintmask 00001100
          86 callsubr
          hintmask 00101010
          87 callsubr
          endchar
        </CharString>
        <CharString name="equal">
          -117 212 24 235 24 hstem
          53 212 rmoveto
          427 0 4 24 -427 0 rlineto
          37 235 rmoveto
          427 0 4 24 -427 0 rlineto
          endchar
        </CharString>
        <CharString name="estimated">
          199 0 21 237 17 239 19 hstem
          98 111 379 112 vstem
          98 266 rmoveto
          0 -78 28 -63 55 -51 55 -51 67 -23 96 0 62 0 30 6 42 16 40 16 35 27 38 40 rrcurveto
          -56 hlineto
          -43 -48 -72 -36 -76 0 rrcurveto
          -114 -76 66 27 hvcurveto
          133 vlineto
          13 5 -2 7 vhcurveto
          479 hlineto
          -4 89 -31 75 -58 45 -58 45 -61 21 -89 0 -97 0 -64 -25 -56 -50 -55 -52 -29 -62 0 -78 rrcurveto
          111 18 rmoveto
          137 vlineto
          23 81 70 108 86 104 -57 -42 vhcurveto
          -133 vlineto
          -10 -1 3 -12 vhcurveto
          -357 hlineto
          -5 -4 0 9 hvcurveto
          endchar
        </CharString>
        <CharString name="eth">
          -32 0 26 481 24 231 21 hstem
          80 270 rmoveto
          -28 -179 27 -91 137 0 rrcurveto
          70 hlineto
          107 0 83 59 32 199 24 151 5 181 -80 103 rrcurveto
          131 48 -4 14 -137 -51 rlineto
          -44 47 -63 31 -94 1 rrcurveto
          -3 -21 rlineto
          86 -1 53 -27 40 -39 rrcurveto
          -163 -61 2 -14 172 64 rlineto
          56 -67 9 -94 2 -58 -6 19 -37 47 -87 0 rrcurveto
          -70 hlineto
          -135 0 -58 -91 -27 -170 rrcurveto
          24 -6 rmoveto
          32 202 72 41 89 0 rrcurveto
          70 hlineto
          143 0 -9 -133 -17 -110 -21 -131 -47 -107 -126 0 rrcurveto
          -70 hlineto
          -97 0 -51 37 32 201 rrcurveto
          endchar
        </CharString>
        <CharString name="eth.smcp">
          50 0 24 259 14 251 24 hstem
          20 283 rmoveto
          115 callsubr
          46 -273 rmoveto
          116 callsubr
          endchar
        </CharString>
        <CharString name="exclam">
          -343 21 -21 731 -20 hstem
          124 12 vstem
          83.9004058838 12 rmoveto
          -1.10838317871 -7 4.20799255371 -5 7 0 rrcurveto
          11 hlineto
          7 0 5.63400268555 4 1.26599121094 8 rrcurveto
          9.82099914551 62 rlineto
          1.1079864502 7 -3.20799255371 5 -8 0 rrcurveto
          -11 hlineto
          -7.99990844727 0 -4.6337890625 -4 -1.2666015625 -8 rrcurveto
          30.279296875 122 rmoveto
          12 0 90 535 -22 0 rlineto
          endchar
        </CharString>
        <CharString name="exclam.smcp">
          -332 21 -21 hstem
          84 117 vstem
          84 12 rmoveto
          -1.23539733887 -6.9619140625 4.23539733887 -5.0380859375 7 0 rrcurveto
          12 hlineto
          7 0 4.59199523926 4.0625 1.40800476074 7.9375 rrcurveto
          11 62 rlineto
          1 7 -3 5 -8 0 rrcurveto
          -11 hlineto
          -8 0 -5 -4 -1 -8 rrcurveto
          25 92 rmoveto
          12 0 69 404 -22 0 rlineto
          endchar
        </CharString>
        <CharString name="exclamdown">
          -340 45 142 vstem
          45 -270 rmoveto
          22 0 80 536 -12 0 rlineto
          6 121 rmoveto
          12 callsubr
          endchar
        </CharString>
        <CharString name="exclamdown.alt">
          -279 21 -21 hstem
          92 142 vstem
          92 hmoveto
          22 0 80 536 -12 0 rlineto
          6 121 rmoveto
          12 callsubr
          endchar
        </CharString>
        <CharString name="exclamdown.smcp">
          -327 21 -21 hstem
          89 116 vstem
          89 hmoveto
          22 0 59 404 -12 0 rlineto
          2 92 rmoveto
          117 callsubr
          endchar
        </CharString>
        <CharString name="f">
          -220 21 -21 507 24 -24 14 241 24 -24 13 hstemhm
          hintmask 10100000
          92 507 rmoveto
          -18 callsubr
          hintmask 11010000
          -17 callsubr
          hintmask 10001000
          2 13 rlineto
          hintmask 11010000
          -16 callsubr
          hintmask 10100000
          -89 -10 rlineto
          endchar
        </CharString>
        <CharString name="f.salt">
          -255 21 -21 482 24 258 22 -22 11 hstemhm
          hintmask 11100000
          60 hmoveto
          130 callsubr
          hintmask 11010000
          134 0 1 11 rlineto
          hintmask 11100000
          131 callsubr
          endchar
        </CharString>
        <CharString name="f.smcp">
          -59 21 -21 272 26 250 23 -23 14 hstemhm
          hintmask 11100000
          80 hmoveto
          88 callsubr
          hintmask 11010000
          86 callsubr
          hintmask 11100000
          89 callsubr
          endchar
        </CharString>
        <CharString name="f.superior">
          -287 694 17 -17 8 183 18 hstemhm
          121 288 hintmask 01110000
          121 694 rmoveto
          74 0 -50 -316 18 0 50 316 rlineto
          hintmask 10110000
          132 0 3 17 -132 0 13 85 rlineto
          10 60 29 29 57 0 rrcurveto
          82 0 2 12 rlineto
          -30 4 -19 2 -37 0 -90 0 -16 -69 -6 -36 rrcurveto
          -13 -87 rlineto
          hintmask 01110000
          -76 -9 rlineto
          endchar
        </CharString>
        <CharString name="f_f">
          149 21 -21 507 24 -24 12 226 31 -22 32 hstemhm
          hintmask 10100000
          92 507 rmoveto
          69 callsubr
          hintmask 11000000
          336 0 -80 -509 24 0 rlineto
          hintmask 10100000
          80 509 rlineto
          hintmask 11001000
          178 0 4 24 -178 0 16 99 rlineto
          11 68 20 68 67 -4 rrcurveto
          0 139 -8 1 vhcurveto
          3 14 rlineto
          -34 10 -84 8 -30 0 -90 0 -18 -102 -9 -54 rrcurveto
          -16 -99 -336 0 14 89 rlineto
          15 97 45 39 65 -4 rrcurveto
          hintmask 11010000
          0 105 -7 1 vhcurveto
          2 14 rlineto
          -39 8 -36 9 -32 0 -120 0 -21 -100 -9 -56 rrcurveto
          -14 -89 rlineto
          hintmask 10100000
          -99 -12 rlineto
          endchar
        </CharString>
        <CharString name="f_f_i">
          383 21 -21 507 24 -24 17 221 31 -15 25 hstemhm
          hintmask 10100000
          92 507 rmoveto
          69 callsubr
          hintmask 11000000
          337 0 -80 -507 24 0 rlineto
          hintmask 10100000
          80 507 rlineto
          hintmask 11000000
          347 0 -80 -507 24 0 rlineto
          hintmask 10100000
          83 524 rlineto
          hintmask 11001000
          -370 7 8 53 rlineto
          20 127 76 54 92 -4 rrcurveto
          0 170 -8 1 vhcurveto
          2 14 rlineto
          -64 15 -76 4 -36 0 -120 0 -70 -84 -19 -118 rrcurveto
          -8 -53 -337 0 14 89 rlineto
          15 97 45 39 65 -4 rrcurveto
          hintmask 11010000
          0 105 -7 1 vhcurveto
          2 14 rlineto
          -39 8 -36 9 -32 0 -120 0 -21 -100 -9 -56 rrcurveto
          -14 -89 -99 -12 rlineto
          endchar
        </CharString>
        <CharString name="f_t">
          152 -1 13 495 24 -24 14 241 24 -24 13 hstemhm
          613 16 hintmask 10100100
          92 507 rmoveto
          -18 callsubr
          hintmask 11000100
          374 0 -50 -319 rlineto
          -21 -132 32 -57 84 0 rrcurveto
          66 0 2 13 rlineto
          -7 -66 11 0 hvcurveto
          -29 4 -62 4 25 157 rrcurveto
          hintmask 10100100
          50 319 rlineto
          hintmask 11010100
          175 0 4 24 -175 0 24 149 -16 0 -32 -149 -374 0 15 99 rlineto
          12 78 18 54 68 0 rrcurveto
          142 0 rlineto
          hintmask 10001100
          2 13 rlineto
          hintmask 11010100
          -34 10 -84 1 -30 0 -90 0 -19 -102 -9 -54 rrcurveto
          -15 -99 rlineto
          hintmask 10100100
          -89 -10 rlineto
          endchar
        </CharString>
        <CharString name="f_y">
          309 -275 14 282 -21 507 25 -25 14 241 24 -24 13 hstemhm
          hintmask 11010000
          92 507 rmoveto
          -18 callsubr
          hintmask 11101000
          181 hlineto
          88 0 24 -10 18 -89 rrcurveto
          58 -294 rlineto
          20 -100 59 -18 23 -2 0 0 -115 -256 -71 1 rrcurveto
          -14 vlineto
          95 118 270 0 hvcurveto
          213 445 rlineto
          9 19 19 44 -8 29 rrcurveto
          -15 hlineto
          -4 -28 -15 -34 -10 -22 rrcurveto
          -204 -429 rlineto
          0 0 -69 -2 -20 103 rrcurveto
          -58 299 rlineto
          -15 79 -21 35 -115 -1 rrcurveto
          -181 -1 15 99 rlineto
          12 78 18 54 68 0 rrcurveto
          142 0 rlineto
          hintmask 11000100
          2 13 rlineto
          hintmask 11011000
          -34 10 -84 1 -30 0 -90 0 -19 -102 -9 -54 rrcurveto
          -15 -99 -89 -10 rlineto
          endchar
        </CharString>
        <CharString name="ffl">
          525 3 13 491 24 -24 12 226 31 -14 24 hstemhm
          hintmask 10100000
          92 507 rmoveto
          69 callsubr
          hintmask 11000000
          333 0 -80 -507 24 0 rlineto
          hintmask 10100000
          80 507 rlineto
          hintmask 11001000
          147 0 4 24 -147 0 8 53 rlineto
          20 126 69 52 80 0 rrcurveto
          215 0 -91 -570 rlineto
          -21 -132 30 -57 84 0 rrcurveto
          67 0 3 13 rlineto
          -7 -66 11 0 hvcurveto
          -29 4 -62 4 25 157 rrcurveto
          94 594 -244 0 rlineto
          -114 1 -60 -90 -17 -108 rrcurveto
          -8 -58 -333 0 14 89 rlineto
          15 97 45 39 65 -4 rrcurveto
          hintmask 11010000
          0 105 -7 1 vhcurveto
          2 14 rlineto
          -39 8 -37 9 -32 0 -120 0 -20 -100 -9 -56 rrcurveto
          -14 -89 rlineto
          hintmask 10100000
          -99 -12 rlineto
          endchar
        </CharString>
        <CharString name="fi">
          -29 21 -21 502 24 -24 14 246 24 hstemhm
          hintmask 10110000
          60 502 rmoveto
          98 0 -80 -502 24 0 80 502 rlineto
          hintmask 11010000
          347 0 -80 -502 24 0 83 519 -370 7 9 58 rlineto
          20 127 78 55 92 -4 rrcurveto
          0 168 -8 1 vhcurveto
          2 13 rlineto
          -64 15 -78 4 -36 0 -120 0 -68 -84 -19 -118 rrcurveto
          -9 -58 rlineto
          hintmask 10110000
          -100 -10 rlineto
          endchar
        </CharString>
        <CharString name="five">
          48 -4 24 -14 14 387 24 277 24 hstemhm
          hintmask 01110000
          79 6 rmoveto
          hintmask 10110000
          -87 callsubr
          hintmask 01110000
          -297 hlineto
          endchar
        </CharString>
        <CharString name="five.denominator">
          -142 -4 19 -12 12 241 18 183 18 hstemhm
          hintmask 01110000
          56 3 rmoveto
          hintmask 10110000
          39 callsubr
          hintmask 01110000
          -211 hlineto
          endchar
        </CharString>
        <CharString name="five.numerator">
          -142 252 19 -12 12 241 18 183 18 hstemhm
          hintmask 01110000
          96 259 rmoveto
          hintmask 10110000
          39 callsubr
          hintmask 01110000
          -211 hlineto
          endchar
        </CharString>
        <CharString name="five.oldstyle">
          31 -104 24 -14 14 387 24 277 24 hstemhm
          hintmask 01110000
          69 -94 rmoveto
          hintmask 10110000
          -87 callsubr
          hintmask 01110000
          -297 hlineto
          endchar
        </CharString>
        <CharString name="five.smcp">
          -1 -1 25 -12 12 290 24 208 24 hstemhm
          hintmask 01110000
          79 12 rmoveto
          hintmask 10110000
          28 -8 115 -6 99 1 85 1 79 31 18 113 rrcurveto
          7 48 rlineto
          13 85 -20 61 -118 0 rrcurveto
          -103 hlineto
          -62 0 -52 -33 -20 -25 rrcurveto
          57 266 335 0 3 24 -358 0 -73 -356 20 0 rlineto
          9 54 74 46 68 0 rrcurveto
          98 hlineto
          109 0 6 -53 -10 -66 rrcurveto
          -7 -44 rlineto
          -13 -82 -52 -45 -89 0 rrcurveto
          hintmask 01110000
          -244 hlineto
          endchar
        </CharString>
        <CharString name="five.tnum">
          43 -4 24 -14 14 387 24 277 24 hstemhm
          hintmask 01110000
          98 6 rmoveto
          hintmask 10110000
          -87 callsubr
          hintmask 01110000
          -297 hlineto
          endchar
        </CharString>
        <CharString name="five.tosf">
          43 -104 24 -14 14 387 24 277 24 hstemhm
          hintmask 01110000
          98 -94 rmoveto
          hintmask 10110000
          -87 callsubr
          hintmask 01110000
          -297 hlineto
          endchar
        </CharString>
        <CharString name="fiveinferior">
          -159 -204 19 -12 12 241 18 183 18 hstemhm
          hintmask 01110000
          7 -197 rmoveto
          hintmask 10110000
          39 callsubr
          hintmask 01110000
          -211 hlineto
          endchar
        </CharString>
        <CharString name="fivesuperior">
          -157 351 19 -12 12 241 18 183 18 hstemhm
          hintmask 01110000
          79 358 rmoveto
          hintmask 10110000
          39 callsubr
          hintmask 01110000
          -211 hlineto
          endchar
        </CharString>
        <CharString name="fl">
          118 3 13 491 24 -24 14 241 24 hstemhm
          hintmask 10110000
          92 507 rmoveto
          98 0 -80 -507 24 0 80 507 rlineto
          hintmask 11010000
          147 0 4 24 -147 0 8 53 rlineto
          20 126 74 52 80 0 rrcurveto
          210 0 -91 -570 rlineto
          -21 -132 33 -57 84 0 rrcurveto
          64 0 2 13 rlineto
          -7 -65 11 0 hvcurveto
          -29 4 -62 4 25 157 rrcurveto
          94 594 -239 0 rlineto
          -120 0 -59 -94 -17 -108 rrcurveto
          -8 -53 rlineto
          hintmask 10110000
          -100 -10 rlineto
          endchar
        </CharString>
        <CharString name="florin">
          -48 -204 24 -12 12 601 24 331 24 -24 12 hstemhm
          hintmask 01100000
          -8 -192 rmoveto
          hintmask 10110000
          5 -4 33 -8 39 0 135 0 49 176 36 116 rrcurveto
          105 333 144 0 8 24 -144 0 20 61 rlineto
          41 127 40 143 98 0 rrcurveto
          88 0 rlineto
          hintmask 00101000
          5 12 rlineto
          hintmask 10110000
          -6 2 -34 10 -49 0 -123 0 -36 -148 -48 -146 rrcurveto
          -20 -60 -102 0 -8 -25 102 0 -105 -333 rlineto
          -31 -99 -53 -169 -109 0 rrcurveto
          -75 hlineto
          endchar
        </CharString>
        <CharString name="four">
          -7 23 -21 210 24 -14 14 496 -20 hstemhm
          hintmask 11010000
          55 237 rmoveto
          -90 callsubr
          hintmask 10110000
          92 10 2 14 rlineto
          hintmask 11010000
          -89 callsubr
          hintmask 10110000
          -37 -236 rlineto
          hintmask 11010000
          -88 callsubr
          endchar
        </CharString>
        <CharString name="four.denominator">
          -173 22 -21 166 19 -8 8 hstemhm
          hintmask 11000000
          38 177 rmoveto
          27 callsubr
          hintmask 10100000
          61 11 1 8 rlineto
          hintmask 11000000
          37 callsubr
          hintmask 10100000
          -20 -121 rlineto
          hintmask 11000000
          38 callsubr
          endchar
        </CharString>
        <CharString name="four.numerator">
          -172 423 19 -8 8 289 -20 hstemhm
          hintmask 10100000
          79 433 rmoveto
          27 callsubr
          hintmask 01100000
          61 11 1 8 rlineto
          hintmask 10100000
          37 callsubr
          hintmask 01100000
          -20 -121 rlineto
          hintmask 10100000
          38 callsubr
          endchar
        </CharString>
        <CharString name="four.oldstyle">
          5 112 24 -14 14 hstemhm
          hintmask 10000000
          44 137 rmoveto
          -90 callsubr
          hintmask 01000000
          92 10 2 14 rlineto
          hintmask 10000000
          -89 callsubr
          hintmask 01000000
          -37 -236 rlineto
          hintmask 10000000
          -88 callsubr
          endchar
        </CharString>
        <CharString name="four.smcp">
          -52 23 -21 165 24 -14 14 hstemhm
          hintmask 11000000
          47 190 rmoveto
          13 -23 345 0 -26 -165 24 0 26 165 rlineto
          hintmask 10100000
          92 10 2 14 rlineto
          hintmask 11000000
          -90 0 42 265 -14 0 -22 -75 rlineto
          hintmask 10100000
          -30 -190 rlineto
          hintmask 11000000
          -331 0 268 379 -28 0 rlineto
          endchar
        </CharString>
        <CharString name="four.tnum">
          -57 23 -21 210 24 -14 14 496 -20 hstemhm
          hintmask 11010000
          40 237 rmoveto
          -90 callsubr
          hintmask 10110000
          92 10 2 14 rlineto
          hintmask 11010000
          -89 callsubr
          hintmask 10110000
          -37 -236 rlineto
          hintmask 11010000
          -88 callsubr
          endchar
        </CharString>
        <CharString name="four.tosf">
          -57 112 24 -14 14 hstemhm
          hintmask 10000000
          40 137 rmoveto
          -90 callsubr
          hintmask 01000000
          92 10 2 14 rlineto
          hintmask 10000000
          -89 callsubr
          hintmask 01000000
          -37 -236 rlineto
          hintmask 10000000
          -88 callsubr
          endchar
        </CharString>
        <CharString name="fourinferior">
          -155 -33 19 -8 8 hstemhm
          hintmask 10000000
          4 -23 rmoveto
          27 callsubr
          hintmask 01000000
          61 11 1 8 rlineto
          hintmask 10000000
          37 callsubr
          hintmask 01000000
          -20 -121 rlineto
          hintmask 10000000
          38 callsubr
          endchar
        </CharString>
        <CharString name="foursuperior">
          -93 522 19 -8 8 hstemhm
          hintmask 10000000
          115 532 rmoveto
          27 callsubr
          hintmask 01000000
          61 11 1 8 rlineto
          hintmask 10000000
          37 callsubr
          hintmask 01000000
          -20 -121 rlineto
          hintmask 10000000
          38 callsubr
          endchar
        </CharString>
        <CharString name="fraction">
          175 21 -21 hstem
          90 hmoveto
          26 callsubr
          endchar
        </CharString>
        <CharString name="g">
          -47 -10 24 499 24 hstem
          37 -248 rmoveto
          -15 callsubr
          76 505 rmoveto
          -14 callsubr
          endchar
        </CharString>
        <CharString name="g.salt">
          -65 -270 24 420 24 311 24 hstem
          32 -114 rmoveto
          63 callsubr
          -21 -230 rmoveto
          64 callsubr
          76 460 rmoveto
          65 callsubr
          endchar
        </CharString>
        <CharString name="g.smcp">
          -1 -7 24 4 -21 287 24 -24 14 254 24 hstemhm
          480 14 hintmask 10001100
          110 292 rmoveto
          90 callsubr
          hintmask 01101100
          91 callsubr
          hintmask 10011100
          92 callsubr
          endchar
        </CharString>
        <CharString name="g.superior">
          -210 364 18 334 18 hstem
          98 210 rmoveto
          156 -15 rlineto
          71 -7 43 39 13 82 rrcurveto
          66 413 rlineto
          -31 3 -61 9 -70 0 -83 0 -48 -64 -20 -111 -18 -103 9 -92 102 0 30 0 74 12 45 17 rrcurveto
          -14 -83 rlineto
          -10 -72 -39 -28 -53 3 rrcurveto
          -160 10 rlineto
          52 332 rmoveto
          17 101 42 63 77 -3 rrcurveto
          139 -5 -49 -304 rlineto
          -57 -17 -42 -8 -49 0 -77 0 -21 56 20 117 rrcurveto
          endchar
        </CharString>
        <CharString name="gbreve">
          -47 -10 24 499 24 60 14 hstem
          249.731994629 14 202 14 vstem
          249.732421875 711 rmoveto
          57 callsubr
          -226.732421875 -959 rmoveto
          -15 callsubr
          76 505 rmoveto
          -14 callsubr
          endchar
        </CharString>
        <CharString name="gbreve.salt">
          -65 -270 24 420 24 311 24 60 14 hstem
          251 14 202 14 vstem
          251 707 rmoveto
          57 callsubr
          -233 -821 rmoveto
          63 callsubr
          -21 -230 rmoveto
          64 callsubr
          76 460 rmoveto
          65 callsubr
          endchar
        </CharString>
        <CharString name="gbreve.smcp">
          -1 -7 24 -17 21 266 14 -14 24 244 24 60 14 hstemhm
          282.731994629 14 183.268005371 14 4.73199462891 14 hintmask 0000010000000000
          282.732421875 753 rmoveto
          57 callsubr
          hintmask 1000100100000000
          -186.732421875 -461 rmoveto
          90 callsubr
          hintmask 0101100100000000
          91 callsubr
          hintmask 1010100100000000
          92 callsubr
          endchar
        </CharString>
        <CharString name="gcircumflex">
          -47 -10 24 499 24 60 130 hstem
          220.667007446 272 vstem
          220.666992188 597 rmoveto
          -31 callsubr
          -336.666992188 -975 rmoveto
          -15 callsubr
          76 505 rmoveto
          -14 callsubr
          endchar
        </CharString>
        <CharString name="gcircumflex.salt">
          -65 -270 24 420 24 311 24 60 130 hstem
          217 272 vstem
          217 593 rmoveto
          -31 callsubr
          -338 -837 rmoveto
          63 callsubr
          -21 -230 rmoveto
          64 callsubr
          76 460 rmoveto
          65 callsubr
          endchar
        </CharString>
        <CharString name="gcircumflex.smcp">
          -1 -7 24 -17 21 266 14 -14 24 244 24 60 130 hstemhm
          243.667007446 272 -35.6670074463 14 hintmask 00000110
          243.666992188 639 rmoveto
          -31 callsubr
          hintmask 10001001
          -286.666992188 -477 rmoveto
          90 callsubr
          hintmask 01011001
          91 callsubr
          hintmask 10101001
          92 callsubr
          endchar
        </CharString>
        <CharString name="gcommaaccent">
          -61 -10 24 499 24 192 5 hstem
          38 -248 rmoveto
          -15 callsubr
          76 505 rmoveto
          -14 callsubr
          251 337 rmoveto
          -1 -7 2 -5 8 0 rrcurveto
          8 hlineto
          7 0 4.80400085449 4.02699279785 1.19599914551 7.97300720215 rrcurveto
          9 60 rlineto
          1 8 -5 3 -6 0 rrcurveto
          -5 0 5 36 rlineto
          1 5 3 9 13 0 rrcurveto
          1 5 rlineto
          0 0 -27 8 -6 -36 rrcurveto
          endchar
        </CharString>
        <CharString name="gcommaaccent.salt">
          -76 -270 24 420 24 311 24 176 5 hstem
          44 -114 rmoveto
          63 callsubr
          -21 -230 rmoveto
          64 callsubr
          76 460 rmoveto
          65 callsubr
          218 244 rmoveto
          -0.929992675781 -7.01100158691 1.92999267578 -4.98899841309 8 0 rrcurveto
          8 hlineto
          7 0 5.93499755859 4.00900268555 1.06500244141 7.99099731445 rrcurveto
          8 60 rlineto
          1.19599914551 7.97300720215 -5.19599914551 3.02699279785 -6 0 rrcurveto
          -5 0 5 36 rlineto
          1 5 2 9 13 0 rrcurveto
          1 5 rlineto
          0 0 -27.4029998779 8.06399536133 -5.59700012207 -36.0639953613 rrcurveto
          endchar
        </CharString>
        <CharString name="gcommaaccent.smcp">
          -1 -196.367996216 5.39999389648 183.968002319 24 4 -21 287 24 -24 14 254 24 hstemhm
          480 14 hintmask 11000110
          110 292 rmoveto
          90 callsubr
          hintmask 10110110
          91 callsubr
          hintmask 11001110
          92 callsubr
          151.472000122 -415.468002319 rmoveto
          -1.13998413086 -7.20001220703 3.78700256348 -4.5 6.30000305176 0 rrcurveto
          5.39999389648 0 -6.69999694824 -42.3000030518 rlineto
          -0.85498046875 -5.40000915527 -2.18301391602 -8.10000610352 -13.5 0 rrcurveto
          -0.854995727539 -5.39999389648 rlineto
          -1.52587890625e-05 1.52587890625e-05 27.516998291 -8.10000610352 5.70100402832 36 rrcurveto
          15.966003418 100.800003052 rlineto
          1.14099121094 7.2001953125 -1.98799133301 4.5 -8.10000610352 0 rrcurveto
          -9 hlineto
          -7.20001220703 0 -4.16999816895 -3.60060119629 -1.28300476074 -8.09959411621 rrcurveto
          endchar
        </CharString>
        <CharString name="gdotaccent">
          -47 -10 24 499 24 60 86 hstem
          341.070007324 44.820602417 vstem
          341.0703125 609 rmoveto
          62 callsubr
          -313.890625 -919 rmoveto
          -15 callsubr
          76 505 rmoveto
          -14 callsubr
          endchar
        </CharString>
        <CharString name="gdotaccent.salt">
          -65 -270 24 420 24 311 24 63 86 hstem
          350.233001709 44.820602417 vstem
          350.233398438 608 rmoveto
          62 callsubr
          -328.053710938 -784 rmoveto
          63 callsubr
          -21 -230 rmoveto
          64 callsubr
          76 460 rmoveto
          65 callsubr
          endchar
        </CharString>
        <CharString name="gdotaccent.smcp">
          -1 -7 24 -17 21 266 14 -14 24 244 24 41 86 hstemhm
          331.796005249 44.820602417 103.383392334 14 hintmask 00000100
          331.796875 632 rmoveto
          68 callsubr
          hintmask 10001001
          -231.6171875 -402 rmoveto
          90 callsubr
          hintmask 01011001
          91 callsubr
          hintmask 10101001
          92 callsubr
          endchar
        </CharString>
        <CharString name="germandbls">
          -31 -8 24 5 -21 753 24 hstemhm
          hintmask 01100000
          60 hmoveto
          24 0 90 566 rlineto
          19 120 79 67 115 0 139 0 57 -49 -37 -94 -17 -44 -45 -53 -36 -23 -111 -70 -35 -14 -9 -55 -23 -145 275 97 -21 -125 rrcurveto
          -7 -46 rlineto
          hintmask 10100000
          -7 -43 -31 -73 -114 0 rrcurveto
          hintmask 01100000
          -69 0 -67 3 -37 2 rrcurveto
          -2 -14 rlineto
          hintmask 10100000
          34 -7 72 -8 68 0 95 0 68 46 14 91 rrcurveto
          7 49 rlineto
          22 148 -272 -92 18 114 8 52 53 15 82 56 121 76 103 230 -295 0 -142 0 -78 -95 -18 -116 rrcurveto
          endchar
        </CharString>
        <CharString name="germandbls.smcp">
          404 -10 24 254 24 258 23 hstem
          60 6 rmoveto
          107 callsubr
          477 -14 rmoveto
          107 callsubr
          endchar
        </CharString>
        <CharString name="grave">
          -360 531 133 hstem
          125 126 vstem
          125 664 rmoveto
          -30 callsubr
          endchar
        </CharString>
        <CharString name="grave.smcp">
          -360 531 133 hstem
          125 126 vstem
          125 664 rmoveto
          -30 callsubr
          endchar
        </CharString>
        <CharString name="greater">
          -106 72 141 rmoveto
          377 204 3 20 -314 192 -4 -23 290 -177 -348 -189 rlineto
          endchar
        </CharString>
        <CharString name="greaterequal">
          -127 128 24 hstem
          66 128 rmoveto
          378 0 4 24 -378 0 rlineto
          44 69 rmoveto
          377 204 3 20 -314 192 -5 -26 288 -174 -345 -188 rlineto
          endchar
        </CharString>
        <CharString name="guillemotleft">
          -17 106 354 rmoveto
          177 -209 17 16 -160 191 218 189 -15 17 rlineto
          -52 -204 rmoveto
          177 -209 19 15 -164 193 220 188 -15 17 rlineto
          endchar
        </CharString>
        <CharString name="guillemotright">
          -20 81 163 rmoveto
          15 -18 243 209 -172 204 -18 -16 157 -185 rlineto
          -40 -194 rmoveto
          15 -18 243 209 -172 204 -18 -15 158 -187 rlineto
          endchar
        </CharString>
        <CharString name="guilsinglleft">
          -302 38 253 vstem
          38 354 rmoveto
          178 -208 17 16 -164 190 222 189 -15 16 rlineto
          endchar
        </CharString>
        <CharString name="guilsinglright">
          -204 106 258 vstem
          106 163 rmoveto
          14 -17 244 208 -174 203 -16 -14 159 -187 rlineto
          endchar
        </CharString>
        <CharString name="h">
          -39 21 -21 516 24 244 -20 hstem
          60 hmoveto
          -13 callsubr
          endchar
        </CharString>
        <CharString name="h.smcp">
          15 20 -21 264 24 hstem
          79 -1 rmoveto
          93 callsubr
          endchar
        </CharString>
        <CharString name="h.superior">
          -128 721 18 hstem
          127 325 vstem
          127 378 rmoveto
          18 0 47 296 rlineto
          44 22 54 25 62 0 62 0 30 -32 -10 -64 rrcurveto
          -39 -247 18 0 39 247 rlineto
          9 59 -22 55 -82 0 -61 0 -65 -30 -37 -24 rrcurveto
          34 216 -18 0 rlineto
          endchar
        </CharString>
        <CharString name="hbar">
          -39 21 -21 516 24 91 14 139 -20 hstem
          60 hmoveto
          24 0 72 455 rlineto
          80 40 58 21 88 0 89 0 41 -62 -13 -84 rrcurveto
          -59 -370 24 0 59 370 rlineto
          14 88 -45 82 -106 0 -81 0 -82 -33 -65 -38 rrcurveto
          26 162 144 0 2 14 -144 0 22 139 -24 0 -22 -139 -70 0 -2 -14 70 0 rlineto
          endchar
        </CharString>
        <CharString name="hbar.smcp">
          33 20 -21 264 24 132 11 hstem
          70 -1 rmoveto
          24 0 42 264 381 0 -42 -264 24 0 67 420 53 0 1 11 -53 0 22 140 -24 0 -22 -140 -381 0 22 140 -24 0 rlineto
          -22 -140 -50 0 -1 -11 50 0 rlineto
          3 -132 rmoveto
          21 132 381 0 -21 -132 rlineto
          endchar
        </CharString>
        <CharString name="hcircumflex">
          -39 0 21 495 24 224 20 60 130 hstem
          64.9698944092 272 vstem
          64.9697265625 844 rmoveto
          -31 callsubr
          -157.969726562 -974 rmoveto
          -13 callsubr
          endchar
        </CharString>
        <CharString name="hcircumflex.smcp">
          15 -1 21 243 24 343 130 hstem
          257.410003662 272 vstem
          257.41015625 630 rmoveto
          -31 callsubr
          -331.41015625 -761 rmoveto
          93 callsubr
          endchar
        </CharString>
        <CharString name="hungarumlaut">
          -117 531 133 hstem
          154 307 vstem
          154 531 rmoveto
          22 callsubr
          -3 -133 rmoveto
          22 callsubr
          endchar
        </CharString>
        <CharString name="hyphen">
          -248 278 24 hstem
          60 288 vstem
          60 278 rmoveto
          284 0 4 24 -284 0 rlineto
          endchar
        </CharString>
        <CharString name="hyphen.alt">
          -218 348 24 hstem
          71 318 vstem
          71 348 rmoveto
          14 callsubr
          endchar
        </CharString>
        <CharString name="hyphen.smcp">
          -220 263 24 hstem
          57 318 vstem
          57 263 rmoveto
          14 callsubr
          endchar
        </CharString>
        <CharString name="i">
          -435 21 -21 531 -20 119 66 hstem
          60 138 vstem
          60 hmoveto
          -12 callsubr
          13 111 rmoveto
          -11 callsubr
          endchar
        </CharString>
        <CharString name="i.smcp">
          -388 21 -21 hstem
          80 114 vstem
          80 hmoveto
          94 callsubr
          endchar
        </CharString>
        <CharString name="i.superior">
          -404 782 56 hstem
          125 93 vstem
          125 378 rmoveto
          18 0 56 356 -18 0 rlineto
          5 59 rmoveto
          67 callsubr
          endchar
        </CharString>
        <CharString name="iacute">
          -414 0 21 490 20 65 133 hstemhm
          60 108 -50.5410003662 168 hintmask 00101000
          117.458984375 596 rmoveto
          22 callsubr
          hintmask 11010000
          -199.458984375 -729 rmoveto
          -12 callsubr
          endchar
        </CharString>
        <CharString name="iacute.smcp">
          -388 0 21 609 133 hstemhm
          80 114 -12.3329925537 168 hintmask 01000000
          181.666992188 630 rmoveto
          22 callsubr
          hintmask 10100000
          -243.666992188 -763 rmoveto
          94 callsubr
          endchar
        </CharString>
        <CharString name="icircumflex">
          -414 0 21 490 20 65 130 hstemhm
          -11.5410003662 272 -200.458999634 108 hintmask 00100000
          -11.541015625 596 rmoveto
          -31 callsubr
          hintmask 11001000
          -81.458984375 -726 rmoveto
          -12 callsubr
          endchar
        </CharString>
        <CharString name="icircumflex.smcp">
          -388 0 21 609 130 hstemhm
          48.6667022705 272 -240.666702271 114 hintmask 01100000
          48.6669921875 630 rmoveto
          -31 callsubr
          hintmask 10010000
          -121.666992188 -760 rmoveto
          94 callsubr
          endchar
        </CharString>
        <CharString name="idieresis">
          -414 0 21 490 20 65 35 hstem
          -17.6889953613 35 42.6889953613 108 69.3110046387 35 vstem
          -17.689453125 614 rmoveto
          13 callsubr
          255 hmoveto
          13 callsubr
          -177.310546875 -614 rmoveto
          -12 callsubr
          endchar
        </CharString>
        <CharString name="idieresis.smcp">
          -388 0 21 609 35 hstemhm
          46.5191040039 35 -1.51910400391 114 107.518997192 35 hintmask 01000000
          46.51953125 648 rmoveto
          13 callsubr
          255 hmoveto
          13 callsubr
          hintmask 10010000
          -221.51953125 -648 rmoveto
          94 callsubr
          endchar
        </CharString>
        <CharString name="igrave">
          -414 0 21 490 20 65 133 hstemhm
          5.45899963379 126 -71.4589996338 108 hintmask 00100000
          5.458984375 729 rmoveto
          -30 callsubr
          hintmask 11001000
          28.541015625 -729 rmoveto
          -12 callsubr
          endchar
        </CharString>
        <CharString name="igrave.smcp">
          -388 0 21 609 133 hstemhm
          77.6667022705 126 -123.666702271 114 hintmask 01000000
          77.6669921875 763 rmoveto
          -30 callsubr
          hintmask 10010000
          -23.6669921875 -763 rmoveto
          94 callsubr
          endchar
        </CharString>
        <CharString name="imacron">
          -414 0 21 490 20 65 15 hstemhm
          36.6475067139 254 -230.647506714 108 hintmask 00100000
          36.6474609375 596 rmoveto
          15 callsubr
          hintmask 11001000
          21.3525390625 -611 rmoveto
          -12 callsubr
          endchar
        </CharString>
        <CharString name="imacron.smcp">
          -388 0 21 609 15 hstemhm
          60.8551940918 254 -234.855194092 114 hintmask 01000000
          60.85546875 630 rmoveto
          15 callsubr
          hintmask 10010000
          17.14453125 -645 rmoveto
          94 callsubr
          endchar
        </CharString>
        <CharString name="infinity">
          112 169 24 297 24 hstem
          58 345 rmoveto
          -15 -92 11 -84 127 0 90 0 80 82 47 71 24 -61 64 -93 90 0 127 0 28 75 15 92 12 77 7 102 -138 0 -77 0 -101 -95 -43 -55 rrcurveto
          -28 59 -68 91 -82 0 -139 0 -17 -82 -14 -87 rrcurveto
          25 -2 rmoveto
          17 109 32 38 96 0 68 0 57 -76 37 -71 -36 -48 -85 -102 -87 0 -91 0 -24 48 16 102 rrcurveto
          331 hmoveto
          51 64 99 83 59 0 105 0 7 -60 -14 -89 -13 -85 -28 -63 -104 0 -73 0 -58 74 -31 76 rrcurveto
          endchar
        </CharString>
        <CharString name="integral">
          -195 -204 24 -14 14 956 24 -24 14 hstemhm
          hintmask 01000000
          -8 -194 rmoveto
          hintmask 10100000
          12 -9 49 -1 41 0 120 0 10 133 25 159 rrcurveto
          66 418 rlineto
          23 143 12 127 99 0 rrcurveto
          98 0 rlineto
          hintmask 00010000
          2 14 rlineto
          hintmask 10100000
          -30 8 -10 2 -61 0 -117 0 -15 -135 -25 -159 rrcurveto
          -66 -418 rlineto
          -27 -172 -12 -96 -96 0 rrcurveto
          -96 hlineto
          endchar
        </CharString>
        <CharString name="iogonek">
          -435 -180.92199707 14 147.000091553 20 -0.0780944824219 21 490 20 99 66 hstemhm
          60 138 hintmask 00000000
          67.3349609375 0.078125 rmoveto
          58 callsubr
          hintmask 00111100
          -19.3349609375 -0.078125 rmoveto
          -12 callsubr
          13 111 rmoveto
          -11 callsubr
          endchar
        </CharString>
        <CharString name="iogonek.smcp">
          -388 -180.92199707 14 147.000091553 20 -0.0780944824219 21 hstemhm
          80 114 hintmask 00000000
          88.3349609375 0.078125 rmoveto
          58 callsubr
          hintmask 00110000
          -20.3349609375 -0.078125 rmoveto
          94 callsubr
          endchar
        </CharString>
        <CharString name="itilde">
          -414 0 21 490 20 70 16 57 16 hstem
          71 108 vstem
          16 632 rmoveto
          11 callsubr
          55 -632 rmoveto
          -12 callsubr
          endchar
        </CharString>
        <CharString name="itilde.smcp">
          -388 0 21 609 16 57 16 hstem
          80 114 vstem
          24.5361328125 661 rmoveto
          11 callsubr
          55.4638671875 -661 rmoveto
          94 callsubr
          endchar
        </CharString>
        <CharString name="j">
          -428 531 -20 119 66 hstem
          28 180 vstem
          28 -270 rmoveto
          -10 callsubr
          11 111 rmoveto
          -1 -7 5 -5 7 0 rrcurveto
          11 hlineto
          7 0 5 4 1 8 rrcurveto
          7 42 rlineto
          1 7 -2 5 -8 0 rrcurveto
          -12 hlineto
          -8 0 -5 -4 -1 -8 rrcurveto
          endchar
        </CharString>
        <CharString name="j.smcp">
          -263 20 14 hstem
          38 304 vstem
          38 20 rmoveto
          95 callsubr
          endchar
        </CharString>
        <CharString name="j.superior">
          -419 733 -20 69 56 hstem
          96 8 vstem
          96 196 rmoveto
          8 hlineto
          15 52 16 69 8 58 rrcurveto
          57 358 -19 0 rlineto
          6 60 rmoveto
          67 callsubr
          endchar
        </CharString>
        <CharString name="jcircumflex">
          -453 531 -20 hstem
          26 281 vstem
          26 -270 rmoveto
          -10 callsubr
          -118 65 rmoveto
          18 0 143 116 94 -116 17 0 -98 130 -21 0 rlineto
          endchar
        </CharString>
        <CharString name="jcircumflex.smcp">
          -263 20 14 596 130 hstemhm
          38 304 -147.332992554 272 hintmask 01010000
          194.666992188 630 rmoveto
          -31 callsubr
          hintmask 10100000
          -309.666992188 -740 rmoveto
          95 callsubr
          endchar
        </CharString>
        <CharString name="k">
          -105 21 -21 275 22 234 -20 271 -20 hstem
          468 25 vstem
          60 hmoveto
          -9 callsubr
          endchar
        </CharString>
        <CharString name="k.smcp">
          -74 20 -21 268 24 hstem
          79 -1 rmoveto
          96 callsubr
          endchar
        </CharString>
        <CharString name="k.superior">
          -240 556 19 hstem
          127 299 vstem
          127 378 rmoveto
          18 0 28 178 rlineto
          19 2 49 13 20 13 rrcurveto
          115 -199 21 0 -120 206 rlineto
          66 38 65 56 18 54 rrcurveto
          -19 hlineto
          -21 -63 -135 -95 -75 -6 rrcurveto
          52 324 -18 0 rlineto
          endchar
        </CharString>
        <CharString name="kcommaaccent">
          -105 -196.199996948 5.39999389648 188.800003052 21 254 22 214 20 231 20 hstem
          184.207000732 49.1844940186 234.608505249 25 vstem
          hintmask 00000000
          184.20703125 -196.200195312 rmoveto
          70 callsubr
          -125.061523438 188.799804688 rmoveto
          -9 callsubr
          endchar
        </CharString>
        <CharString name="kcommaaccent.smcp">
          -74 -196.367996216 5.39999389648 189.968002319 21 247 24 hstem
          224.121994019 49.1844940186 vstem
          hintmask 00000000
          224.12109375 -196.368164062 rmoveto
          0 0 27.5185546875 -8.099609375 5.701171875 36 rrcurveto
          15.96484375 100.799804688 rlineto
          1.140625 7.2001953125 -1.9873046875 4.5 -8.099609375 0 rrcurveto
          -9.0009765625 hlineto
          -7.19921875 0 -4.169921875 -3.6005859375 -1.283203125 -8.099609375 rrcurveto
          -8.837890625 -55.7998046875 rlineto
          -1.140625 -7.2001953125 3.787109375 -4.5 6.30078125 0 rrcurveto
          5.3994140625 0 -6.7001953125 -42.2998046875 rlineto
          -0.8544921875 -5.400390625 -2.18359375 -8.099609375 -13.5 0 rrcurveto
          -145.9765625 189.967773438 rmoveto
          96 callsubr
          endchar
        </CharString>
        <CharString name="kgreenlandic">
          -137 21 -21 255 24 252 -20 hstem
          60 hmoveto
          24 0 40 255 115 0 142 -255 29 0 -147 264 246 267 -31 0 -235 -252 -115 0 40 252 -24 0 rlineto
          endchar
        </CharString>
        <CharString name="l">
          -266 0 13 770 -20 hstem
          89 189 rmoveto
          -8 callsubr
          endchar
        </CharString>
        <CharString name="l.smcp">
          -83 0 24 hstem
          93 86 rmoveto
          97 callsubr
          endchar
        </CharString>
        <CharString name="l.superior">
          -291 378 10 hstem
          146 504 rmoveto
          -13 -80 22 -46 74 0 rrcurveto
          63 0 2 10 -66 8 rlineto
          -47 6 -31 16 14 86 rrcurveto
          63 396 -18 0 rlineto
          endchar
        </CharString>
        <CharString name="lacute">
          -266 0 13 750 20 60 133 hstem
          197.667007446 168 vstem
          197.666992188 843 rmoveto
          22 callsubr
          -250.666992188 -787 rmoveto
          -8 callsubr
          endchar
        </CharString>
        <CharString name="lacute.smcp">
          -83 0 24 606 133 hstem
          185.667007446 168 vstem
          185.666992188 630 rmoveto
          22 callsubr
          -234.666992188 -677 rmoveto
          97 callsubr
          endchar
        </CharString>
        <CharString name="lcaron">
          -266 0 13 771 -21 hstem
          282 12 vstem
          89 189 rmoveto
          -8 callsubr
          99 -202 rmoveto
          60 callsubr
          endchar
        </CharString>
        <CharString name="lcaron.smcp">
          -66 0 24 hstem
          99 86 rmoveto
          -9 -55 30 -31 53 0 rrcurveto
          284 0 4 24 -280 0 rlineto
          -39 0 -27 17 8 50 rrcurveto
          76 479 -24 0 rlineto
          91 -161 rmoveto
          -107 callsubr
          endchar
        </CharString>
        <CharString name="lcommaaccent">
          -266 -196.199996948 5.39999389648 190.800003052 13 750 20 hstem
          119.207000732 49.1844940186 vstem
          hintmask 00000000
          119.20703125 -196.200195312 rmoveto
          70 callsubr
          -18.0615234375 379.799804688 rmoveto
          -8 callsubr
          endchar
        </CharString>
        <CharString name="lcommaaccent.smcp">
          -83 -196.367996216 5.39999389648 190.968002319 24 hstem
          236.725997925 49.1844940186 vstem
          hintmask 00000000
          236.725585938 -196.368164062 rmoveto
          113 callsubr
          -144.581054688 276.967773438 rmoveto
          97 callsubr
          endchar
        </CharString>
        <CharString name="less">
          -107 99 345 rmoveto
          313 -204 3 24 -286 189 344 177 5 26 -376 -192 rlineto
          endchar
        </CharString>
        <CharString name="lessequal">
          -12 128 24 hstem
          100 128 rmoveto
          378 0 4 24 -378 0 rlineto
          43 273 rmoveto
          313 -204 4 25 -286 188 343 175 5 28 -376 -192 rlineto
          endchar
        </CharString>
</ttFont>
